<?xml version="1.0" encoding="utf-8"?>
<!DOCTYPE svg PUBLIC "-//W3C//DTD SVG 1.1//EN" "http://www.w3.org/Graphics/SVG/1.1/DTD/svg11.dtd">
<svg version="1.1" xmlns="http://www.w3.org/2000/svg" xmlns:xlink="http://www.w3.org/1999/xlink" xml:space="preserve">
  <g id="base-x:286.02-y:163.79-w:409.47-h:188.16">
	<path fill="#FFF7EC" d="M694.462,289.263c-1.093-2.071-2.311-4.158-3.597-6.164c-1.492-2.409-3.123-4.708-4.813-6.792   c-9.22-11.786-18.91-18.156-21.123-19.526l-2.384-1.419l-9.063,9.05l-40.116-40.225l-41.066,0.009   c-0.903-1.144-4.447-4.355-6.575-5.869c-46.41-37.239-86.811-1.054-93.935,6.011l-16.726,0.03l-19.194-19.124l4.73-4.727   l-1.395-2.053c-17.288-25.449-40.881-33.731-41.876-34.071l-1.769-0.604l-32.181,32.18l0,0.001l-15.346,15.346l-23.714-23.714   l-2.128-2.115l-0.004,0.004l-0.013-0.013l-33.602,33.601l0.001,72.195l6.125,5.89l-7.794,7.793l-0.879,0.958v17.815l23.335,23.334   h15.338l9.886-9.887l14.771,14.77h67.521l0.118-20.752h22.383l0.026,1.762v0.281h7.289v4.367h12.594l10.32,10.32v1.75l86.74,0.05   v1.836l66.711,0.009l20.843-20.844l6.057,6.027l45.538-45.534L694.462,289.263z"/>
</g>
</svg>