<?xml version="1.0" encoding="utf-8"?>
<!DOCTYPE svg PUBLIC "-//W3C//DTD SVG 1.1//EN" "http://www.w3.org/Graphics/SVG/1.1/DTD/svg11.dtd">
<svg version="1.1" xmlns="http://www.w3.org/2000/svg" xmlns:xlink="http://www.w3.org/1999/xlink" xml:space="preserve">
  <g id="deck.2-x:287.54-y:189.23-w:126.11-h:160.61">
		<polygon id="base_4_" fill="#999999" points="402.453,328.443 402.458,319.015 323.483,239.793 348.064,215.315 321.954,189.23     290.55,220.472 290.55,291.965 290.563,291.953 296.054,297.444 287.541,305.958 287.541,308.643 287.541,323.972     309.219,345.594 321.926,345.595 333.44,334.079 349.406,349.836 413.654,349.836 413.654,328.438   "/>
		<g id="ways-x:287.54-y:189.23-w:126.11-h:160.61_4_">
			<path fill="#D6D6D6" d="M401.74,337.015l-0.003-15.254l-24.475-24.474l-1.387,1.387c-0.643,0.643-1.222,0.063-1.222,0.063     l-6.851-6.85c-0.334-0.334-0.002-0.666-0.002-0.666v0l1.699-1.699l-21.916-21.916l-5.602-5.602l-14.337-14.337l-1.214,1.214     c-1.628-1.651-4.786-4.708-4.786-4.708c-1.288-1.288-0.473-2.56,0.025-3.123l22.718-22.71l-25.365-25.365l-24.66,24.66     c0,0-2.997,3.04-2.766,8.903c0.201,5.084,1.556,8.114,2.629,10.34c0,0,1.814,3.848,1.814,6.856c0,0,0,42.297,0,44.67     c0,3.486,1.16,7.749,3.279,9.869l36.931,36.788l10.626,10.626l2.007,2.007c0,0,0.028,0.03,0.076,0.076l0.054,0.054l0.009,0.001     c0.381,0.342,1.666,1.279,4.368,1.279h23.24c0.343,0,1.791,0,3.523,0c2.885,0,6.56,0,7.233,0c1.077,0,2.632-1.529,2.632-1.529     l1.811-1.66c0.864-0.864,2.374-0.933,2.369-0.932h7.629v-2.297h11.177v-5.673H401.74z M387.323,312.753l2.938,2.938     c0.301,0.301,0.061,0.541,0.061,0.541l-20.186,20.186c-0.543,0.543-0.952,0.138-0.955,0.135l-2.65-2.651     c-0.419-0.422,0.046-0.887,0.046-0.887l0.002-0.003l0.966-0.966l0.863-0.863l18.35-18.35     C387.022,312.57,387.226,312.672,387.323,312.753z M376.256,301.959c0.372-0.372,0.686-0.058,0.686-0.058     c1.616,1.616,3.963,3.963,6.431,6.431c0.372,0.372,0.088,0.769,0.088,0.769l-19.402,19.402l-0.942,0.942     c-0.372,0.372-0.956,0.084-0.956,0.084l-6.418-6.418c-0.32-0.32-0.094-0.546-0.094-0.546L376.256,301.959z M323.596,251.201     c0.39,0.39,0.025,0.782,0,0.808l-24.051,24.083v-12.353l17.871-17.871c0.424-0.424,0.821-0.027,0.821-0.027L323.596,251.201z      M309.953,234.911l5.209,5.209c0.441,0.441,0.008,1.02,0.001,1.029l-15.618,15.619v-12.631l9.077-9.078v0     C309.309,234.373,309.953,234.911,309.953,234.911z M334.134,211.155l4.757,4.787c0.687,0.686-0.006,1.52-0.006,1.52     l-20.097,20.097c-0.531,0.531-0.979,0.243-1.156,0.084l-5.113-5.142c-0.687-0.687,0-1.337,0-1.337l20.008-20.008     C333.329,210.354,334.13,211.151,334.134,211.155z M325.743,204.356c0.796-0.796,1.45-0.142,1.45-0.142l2.047,2.047     c0.672,0.672,0.18,1.293-0.001,1.48l-0.063,0.063l-25.524,25.524c-0.495,0.493-0.881,0.142-0.924,0.099l-2.013-2.003     c-0.898-0.898-0.158-1.882-0.158-1.882L325.743,204.356z M297.844,233.28c0,0-0.31,1.69-0.853,2.233     c-0.363,0.363-1.118-1.266-1.681-3.329c0,0-1.052-3.387,0.788-2.674C296.099,229.511,298.472,230.798,297.844,233.28z      M295.709,225.587c-1.215-1.215-1.216-3.185,0-4.401l15.368-15.368c1.215-1.215,3.185-1.215,4.4,0     c1.216,1.215,1.215,3.186,0,4.401l-15.367,15.368C298.895,226.802,296.924,226.803,295.709,225.587z M301.007,293.123     c-0.698-1.665-1.462-3.992-1.462-6.255c0-1.3,0-1.787,0-1.843v-3.691l28.042-28.042c0.333-0.333,0.615-0.125,0.706-0.04     l6.55,6.55c0.421,0.423,0.08,0.793,0.056,0.818l-32.649,32.651C301.502,293.912,301.098,293.292,301.007,293.123z      M310.042,304.177l-5.781-5.781c-0.337-0.338,0.051-0.804,0.051-0.804l33.695-33.695c0.439-0.439,0.92-0.011,0.92-0.011     l5.654,5.654c0.38,0.38,0.176,0.699,0.063,0.826l-0.06,0.061h0l-33.718,33.72C310.485,304.525,310.042,304.177,310.042,304.177z      M319.716,313.851l-5.705-5.704c-0.337-0.338-0.056-0.708-0.056-0.708l33.786-33.787c0.398-0.398,0.804-0.149,0.804-0.149     l5.603,5.603c0.369,0.473,0.111,0.84,0.111,0.84l-33.875,33.876C320.1,314.042,319.821,313.916,319.716,313.851z M330.12,324.255     l-6.471-6.471c-0.228-0.306,0.027-0.561,0.027-0.561l-0.005-0.011l33.83-33.83c0.473-0.369,0.864-0.059,0.864-0.059l0.001,0     l6.273,6.273h0c0.369,0.473-0.041,0.859-0.041,0.859v0l-0.52,0.52L330.854,324.2C330.474,324.58,330.12,324.255,330.12,324.255z      M339.121,333.255l-5.643-5.643c-0.319-0.322,0.015-0.685,0.045-0.717l31.936-31.936c0.433-0.433,0.81-0.056,0.81-0.056     l5.641,5.641c0.347,0.347-0.016,0.709-0.016,0.709l-31.968,31.969C339.546,333.601,339.121,333.255,339.121,333.255z      M342.041,336.175l9.937-9.937c0.371-0.371,0.76-0.001,0.761,0l6.793,6.793l-10.317,10.317L342.041,336.175z M358.359,346.266     c-2.287,0-2.915-2.118-1.728-3.305l7.148-7.148l5.612,5.616l-0.012,4.836H358.359z M373.462,342.412     c-1.126-1.126-1.126-2.951,0-4.077l14.236-14.236c1.125-1.126,2.951-1.126,4.077,0c1.126,1.126,1.125,2.951,0,4.077     l-14.236,14.236C376.413,343.538,374.587,343.538,373.462,342.412z M394.942,336.827c-1.605,1.605-7.555,7.605-7.555,7.605     s-1.678,1.833-4.337,1.833h-2.896h-1.71l16.74-16.739C397.011,331.354,396.547,335.222,394.942,336.827z"/>
		</g>
		<g id="lots-x:287.54-y:189.23-w:126.11-h:160.61_4_">
			<rect x="291.319" y="255.253" fill="#EBEBEB" width="3.574" height="1.99"/>
			<rect x="291.319" y="253.104" fill="#EBEBEB" width="3.574" height="1.989"/>
			<rect x="291.319" y="250.954" fill="#EBEBEB" width="3.574" height="1.99"/>
			<rect x="291.319" y="248.804" fill="#EBEBEB" width="3.574" height="1.99"/>
			<rect x="291.319" y="246.655" fill="#EBEBEB" width="3.574" height="1.99"/>
			<rect x="291.318" y="244.506" fill="#EBEBEB" width="3.574" height="1.99"/>
			<rect x="291.319" y="242.356" fill="#EBEBEB" width="3.574" height="1.99"/>
			<rect x="291.319" y="240.207" fill="#EBEBEB" width="3.574" height="1.99"/>
			<rect x="291.319" y="272.503" fill="#EBEBEB" width="3.574" height="1.99"/>
			<rect x="291.319" y="270.354" fill="#EBEBEB" width="3.574" height="1.989"/>
			<rect x="291.319" y="268.204" fill="#EBEBEB" width="3.574" height="1.99"/>
			<rect x="291.319" y="266.054" fill="#EBEBEB" width="3.574" height="1.99"/>
			<rect x="291.319" y="263.905" fill="#EBEBEB" width="3.574" height="1.99"/>
			<rect x="291.318" y="261.756" fill="#EBEBEB" width="3.574" height="1.99"/>
			<rect x="291.319" y="259.606" fill="#EBEBEB" width="3.574" height="1.99"/>
			<rect x="291.319" y="257.457" fill="#EBEBEB" width="3.574" height="1.99"/>
			<rect x="291.319" y="289.753" fill="#EBEBEB" width="3.574" height="1.99"/>
			<rect x="291.319" y="287.604" fill="#EBEBEB" width="3.574" height="1.989"/>
			<rect x="291.319" y="285.454" fill="#EBEBEB" width="3.574" height="1.99"/>
			<rect x="291.319" y="283.304" fill="#EBEBEB" width="3.574" height="1.99"/>
			<rect x="291.319" y="281.155" fill="#EBEBEB" width="3.574" height="1.99"/>
			<rect x="291.318" y="279.006" fill="#EBEBEB" width="3.574" height="1.99"/>
			<rect x="291.319" y="276.856" fill="#EBEBEB" width="3.574" height="1.99"/>
			<rect x="291.319" y="274.707" fill="#EBEBEB" width="3.574" height="1.99"/>
			
				<rect x="300.47" y="243.451" transform="matrix(0.7074 -0.7069 0.7069 0.7074 -85.1262 284.8624)" fill="#EBEBEB" width="1.989" height="3.574"/>
			
				<rect x="301.99" y="241.931" transform="matrix(0.7072 -0.707 0.707 0.7072 -83.5997 285.5589)" fill="#EBEBEB" width="1.99" height="3.574"/>
			
				<rect x="303.51" y="240.411" transform="matrix(0.7072 -0.707 0.707 0.7072 -82.0801 286.1884)" fill="#EBEBEB" width="1.99" height="3.574"/>
			
				<rect x="305.03" y="238.891" transform="matrix(0.7074 -0.7069 0.7069 0.7074 -80.5687 286.7509)" fill="#EBEBEB" width="1.989" height="3.574"/>
			
				<rect x="306.55" y="237.372" transform="matrix(0.7072 -0.707 0.707 0.7072 -79.0413 287.4475)" fill="#EBEBEB" width="1.99" height="3.574"/>
			
				<rect x="308.069" y="235.852" transform="matrix(0.7072 -0.707 0.707 0.7072 -77.5217 288.077)" fill="#EBEBEB" width="1.99" height="3.574"/>
			
				<rect x="300.783" y="249.848" transform="matrix(0.7072 -0.707 0.707 0.7072 -89.5499 287.0233)" fill="#EBEBEB" width="1.99" height="3.574"/>
			
				<rect x="302.303" y="248.328" transform="matrix(0.7072 -0.707 0.707 0.7072 -88.0304 287.6527)" fill="#EBEBEB" width="1.99" height="3.574"/>
			
				<rect x="303.823" y="246.808" transform="matrix(0.7074 -0.7069 0.7069 0.7074 -86.5179 288.2146)" fill="#EBEBEB" width="1.989" height="3.574"/>
			
				<rect x="305.343" y="245.288" transform="matrix(0.7072 -0.707 0.707 0.7072 -84.9915 288.9119)" fill="#EBEBEB" width="1.99" height="3.574"/>
			
				<rect x="306.862" y="243.768" transform="matrix(0.7072 -0.707 0.707 0.7072 -83.4719 289.5414)" fill="#EBEBEB" width="1.99" height="3.574"/>
			
				<rect x="308.382" y="242.248" transform="matrix(0.7074 -0.7069 0.7069 0.7074 -81.9604 290.1031)" fill="#EBEBEB" width="1.989" height="3.574"/>
			
				<rect x="309.902" y="240.729" transform="matrix(0.7072 -0.707 0.707 0.7072 -80.433 290.8005)" fill="#EBEBEB" width="1.99" height="3.574"/>
			
				<rect x="311.422" y="239.208" transform="matrix(0.7072 -0.707 0.707 0.7072 -78.9135 291.43)" fill="#EBEBEB" width="1.99" height="3.574"/>
			
				<rect x="301.318" y="262.054" transform="matrix(0.7072 -0.707 0.707 0.7072 -98.0233 290.975)" fill="#EBEBEB" width="1.99" height="3.574"/>
			
				<rect x="302.837" y="260.534" transform="matrix(0.7072 -0.707 0.707 0.7072 -96.5037 291.6044)" fill="#EBEBEB" width="1.99" height="3.574"/>
			
				<rect x="304.357" y="259.015" transform="matrix(0.7072 -0.707 0.707 0.7072 -94.9844 292.2342)" fill="#EBEBEB" width="1.99" height="3.574"/>
			
				<rect x="305.877" y="257.495" transform="matrix(0.7072 -0.707 0.707 0.7072 -93.4648 292.8636)" fill="#EBEBEB" width="1.99" height="3.574"/>
			
				<rect x="307.397" y="255.975" transform="matrix(0.7072 -0.707 0.707 0.7072 -91.9452 293.493)" fill="#EBEBEB" width="1.99" height="3.574"/>
			
				<rect x="308.917" y="254.455" transform="matrix(0.7074 -0.7069 0.7069 0.7074 -90.4325 294.0533)" fill="#EBEBEB" width="1.989" height="3.574"/>
			
				<rect x="310.437" y="252.935" transform="matrix(0.7072 -0.707 0.707 0.7072 -88.9063 294.7523)" fill="#EBEBEB" width="1.99" height="3.574"/>
			
				<rect x="311.957" y="251.415" transform="matrix(0.7072 -0.707 0.707 0.7072 -87.3868 295.3817)" fill="#EBEBEB" width="1.99" height="3.574"/>
			
				<rect x="313.477" y="249.895" transform="matrix(0.7074 -0.7069 0.7069 0.7074 -85.875 295.9419)" fill="#EBEBEB" width="1.989" height="3.574"/>
			
				<rect x="314.996" y="248.376" transform="matrix(0.7072 -0.707 0.707 0.7072 -84.3479 296.6409)" fill="#EBEBEB" width="1.99" height="3.574"/>
			
				<rect x="316.516" y="246.855" transform="matrix(0.7072 -0.707 0.707 0.7072 -82.8283 297.2703)" fill="#EBEBEB" width="1.99" height="3.574"/>
			
				<rect x="301.547" y="268.363" transform="matrix(0.7072 -0.707 0.707 0.7072 -102.4164 292.9841)" fill="#EBEBEB" width="1.99" height="3.574"/>
			
				<rect x="303.067" y="266.843" transform="matrix(0.7072 -0.707 0.707 0.7072 -100.8969 293.6138)" fill="#EBEBEB" width="1.99" height="3.574"/>
			
				<rect x="304.587" y="265.323" transform="matrix(0.7072 -0.707 0.707 0.7072 -99.3773 294.2432)" fill="#EBEBEB" width="1.99" height="3.574"/>
			
				<rect x="306.106" y="263.803" transform="matrix(0.7072 -0.707 0.707 0.7072 -97.8578 294.8727)" fill="#EBEBEB" width="1.99" height="3.574"/>
			
				<rect x="307.626" y="262.284" transform="matrix(0.7072 -0.707 0.707 0.7072 -96.3384 295.5024)" fill="#EBEBEB" width="1.99" height="3.574"/>
			
				<rect x="309.146" y="260.764" transform="matrix(0.7072 -0.707 0.707 0.7072 -94.8188 296.1319)" fill="#EBEBEB" width="1.99" height="3.574"/>
			
				<rect x="310.666" y="259.244" transform="matrix(0.7072 -0.707 0.707 0.7072 -93.2993 296.7613)" fill="#EBEBEB" width="1.99" height="3.574"/>
			
				<rect x="312.186" y="257.724" transform="matrix(0.7074 -0.7069 0.7069 0.7074 -91.7866 297.3208)" fill="#EBEBEB" width="1.989" height="3.574"/>
			
				<rect x="313.706" y="256.204" transform="matrix(0.7072 -0.707 0.707 0.7072 -90.2604 298.0205)" fill="#EBEBEB" width="1.99" height="3.574"/>
			
				<rect x="315.226" y="254.684" transform="matrix(0.7072 -0.707 0.707 0.7072 -88.7408 298.65)" fill="#EBEBEB" width="1.99" height="3.574"/>
			
				<rect x="316.746" y="253.164" transform="matrix(0.7074 -0.7069 0.7069 0.7074 -87.2291 299.2094)" fill="#EBEBEB" width="1.989" height="3.574"/>
			
				<rect x="318.265" y="251.645" transform="matrix(0.7072 -0.707 0.707 0.7072 -85.702 299.9091)" fill="#EBEBEB" width="1.99" height="3.574"/>
			
				<rect x="319.785" y="250.124" transform="matrix(0.7072 -0.707 0.707 0.7072 -84.1824 300.5386)" fill="#EBEBEB" width="1.99" height="3.574"/>
			
				<rect x="301.525" y="279.834" transform="matrix(0.7074 -0.7069 0.7069 0.7074 -110.5348 296.2551)" fill="#EBEBEB" width="1.99" height="3.574"/>
			
				<rect x="303.044" y="278.313" transform="matrix(0.7072 -0.707 0.707 0.7072 -109.0127 296.9561)" fill="#EBEBEB" width="1.99" height="3.574"/>
			
				<rect x="304.564" y="276.793" transform="matrix(0.7072 -0.707 0.707 0.7072 -107.4933 297.5858)" fill="#EBEBEB" width="1.99" height="3.574"/>
			
				<rect x="306.084" y="275.274" transform="matrix(0.7074 -0.7069 0.7069 0.7074 -105.9774 298.1438)" fill="#EBEBEB" width="1.99" height="3.574"/>
			
				<rect x="307.604" y="273.754" transform="matrix(0.7072 -0.707 0.707 0.7072 -104.4542 298.8448)" fill="#EBEBEB" width="1.99" height="3.574"/>
			
				<rect x="309.124" y="272.234" transform="matrix(0.7072 -0.707 0.707 0.7072 -102.9348 299.4744)" fill="#EBEBEB" width="1.99" height="3.574"/>
			
				<rect x="310.644" y="270.714" transform="matrix(0.7072 -0.707 0.707 0.7072 -101.4153 300.1041)" fill="#EBEBEB" width="1.99" height="3.574"/>
			
				<rect x="312.164" y="269.194" transform="matrix(0.7072 -0.707 0.707 0.7072 -99.8958 300.7335)" fill="#EBEBEB" width="1.99" height="3.574"/>
			
				<rect x="313.684" y="267.674" transform="matrix(0.7072 -0.707 0.707 0.7072 -98.3762 301.3629)" fill="#EBEBEB" width="1.99" height="3.574"/>
			
				<rect x="315.204" y="266.155" transform="matrix(0.7072 -0.707 0.707 0.7072 -96.8569 301.9927)" fill="#EBEBEB" width="1.99" height="3.574"/>
			
				<rect x="316.723" y="264.635" transform="matrix(0.7072 -0.707 0.707 0.7072 -95.3373 302.6221)" fill="#EBEBEB" width="1.99" height="3.574"/>
			
				<rect x="318.243" y="263.115" transform="matrix(0.7072 -0.707 0.707 0.7072 -93.8177 303.2516)" fill="#EBEBEB" width="1.99" height="3.574"/>
			
				<rect x="319.763" y="261.595" transform="matrix(0.7074 -0.7069 0.7069 0.7074 -92.3055 303.8097)" fill="#EBEBEB" width="1.989" height="3.574"/>
			
				<rect x="321.283" y="260.075" transform="matrix(0.7072 -0.707 0.707 0.7072 -90.7789 304.5108)" fill="#EBEBEB" width="1.99" height="3.574"/>
			
				<rect x="322.803" y="258.555" transform="matrix(0.7072 -0.707 0.707 0.7072 -89.2593 305.1402)" fill="#EBEBEB" width="1.99" height="3.574"/>
			
				<rect x="324.323" y="257.035" transform="matrix(0.7074 -0.7069 0.7069 0.7074 -87.7479 305.6982)" fill="#EBEBEB" width="1.989" height="3.574"/>
			
				<rect x="325.843" y="255.516" transform="matrix(0.7072 -0.707 0.707 0.7072 -86.2204 306.3994)" fill="#EBEBEB" width="1.99" height="3.574"/>
			
				<rect x="327.362" y="253.996" transform="matrix(0.7072 -0.707 0.707 0.7072 -84.7008 307.0288)" fill="#EBEBEB" width="1.99" height="3.574"/>
			
				<rect x="301.155" y="288.568" transform="matrix(0.7072 -0.707 0.707 0.7072 -116.8161 298.6223)" fill="#EBEBEB" width="1.99" height="3.574"/>
			
				<rect x="302.674" y="287.048" transform="matrix(0.7072 -0.707 0.707 0.7072 -115.2965 299.2517)" fill="#EBEBEB" width="1.99" height="3.574"/>
			
				<rect x="304.194" y="285.529" transform="matrix(0.7072 -0.707 0.707 0.7072 -113.7772 299.8815)" fill="#EBEBEB" width="1.99" height="3.574"/>
			
				<rect x="305.714" y="284.009" transform="matrix(0.7074 -0.7069 0.7069 0.7074 -112.2601 300.4384)" fill="#EBEBEB" width="1.99" height="3.574"/>
			
				<rect x="307.234" y="282.489" transform="matrix(0.7072 -0.707 0.707 0.7072 -110.738 301.1403)" fill="#EBEBEB" width="1.99" height="3.574"/>
			
				<rect x="308.754" y="280.969" transform="matrix(0.7072 -0.707 0.707 0.7072 -109.2186 301.77)" fill="#EBEBEB" width="1.99" height="3.574"/>
			
				<rect x="310.274" y="279.449" transform="matrix(0.7074 -0.7069 0.7069 0.7074 -107.7028 302.327)" fill="#EBEBEB" width="1.99" height="3.574"/>
			
				<rect x="311.794" y="277.929" transform="matrix(0.7072 -0.707 0.707 0.7072 -106.1795 303.0291)" fill="#EBEBEB" width="1.99" height="3.574"/>
			
				<rect x="313.313" y="276.409" transform="matrix(0.7072 -0.707 0.707 0.7072 -104.6601 303.6586)" fill="#EBEBEB" width="1.99" height="3.574"/>
			
				<rect x="314.833" y="274.89" transform="matrix(0.7072 -0.707 0.707 0.7072 -103.1407 304.2883)" fill="#EBEBEB" width="1.99" height="3.574"/>
			
				<rect x="316.353" y="273.37" transform="matrix(0.7072 -0.707 0.707 0.7072 -101.6211 304.9178)" fill="#EBEBEB" width="1.99" height="3.574"/>
			
				<rect x="317.873" y="271.85" transform="matrix(0.7072 -0.707 0.707 0.7072 -100.1015 305.5472)" fill="#EBEBEB" width="1.99" height="3.574"/>
			
				<rect x="319.393" y="270.33" transform="matrix(0.7072 -0.707 0.707 0.7072 -98.5822 306.177)" fill="#EBEBEB" width="1.99" height="3.574"/>
			
				<rect x="320.913" y="268.81" transform="matrix(0.7072 -0.707 0.707 0.7072 -97.0626 306.8064)" fill="#EBEBEB" width="1.99" height="3.574"/>
			
				<rect x="322.433" y="267.29" transform="matrix(0.7072 -0.707 0.707 0.7072 -95.543 307.4359)" fill="#EBEBEB" width="1.99" height="3.574"/>
			
				<rect x="323.953" y="265.771" transform="matrix(0.7074 -0.7069 0.7069 0.7074 -94.0308 307.9929)" fill="#EBEBEB" width="1.989" height="3.574"/>
			
				<rect x="325.472" y="264.251" transform="matrix(0.7072 -0.707 0.707 0.7072 -92.5042 308.6951)" fill="#EBEBEB" width="1.99" height="3.574"/>
			
				<rect x="326.992" y="262.73" transform="matrix(0.7072 -0.707 0.707 0.7072 -90.9846 309.3245)" fill="#EBEBEB" width="1.99" height="3.574"/>
			
				<rect x="328.512" y="261.211" transform="matrix(0.7074 -0.7069 0.7069 0.7074 -89.4733 309.8815)" fill="#EBEBEB" width="1.989" height="3.574"/>
			
				<rect x="330.032" y="259.691" transform="matrix(0.7072 -0.707 0.707 0.7072 -87.9457 310.5837)" fill="#EBEBEB" width="1.99" height="3.574"/>
			
				<rect x="331.552" y="258.171" transform="matrix(0.7072 -0.707 0.707 0.7072 -86.4261 311.2131)" fill="#EBEBEB" width="1.99" height="3.574"/>
			
				<rect x="311.966" y="290.236" transform="matrix(0.7074 -0.7069 0.7069 0.7074 -114.8326 306.6798)" fill="#EBEBEB" width="1.99" height="3.574"/>
			
				<rect x="313.485" y="288.716" transform="matrix(0.7072 -0.707 0.707 0.7072 -113.3105 307.3833)" fill="#EBEBEB" width="1.99" height="3.574"/>
			
				<rect x="315.005" y="287.196" transform="matrix(0.7072 -0.707 0.707 0.7072 -111.7911 308.0129)" fill="#EBEBEB" width="1.99" height="3.574"/>
			
				<rect x="316.525" y="285.677" transform="matrix(0.7074 -0.7069 0.7069 0.7074 -110.2753 308.5684)" fill="#EBEBEB" width="1.99" height="3.574"/>
			
				<rect x="318.045" y="284.157" transform="matrix(0.7072 -0.707 0.707 0.7072 -108.752 309.2721)" fill="#EBEBEB" width="1.99" height="3.574"/>
			
				<rect x="319.565" y="282.637" transform="matrix(0.7072 -0.707 0.707 0.7072 -107.2327 309.9016)" fill="#EBEBEB" width="1.99" height="3.574"/>
			
				<rect x="321.085" y="281.117" transform="matrix(0.7072 -0.707 0.707 0.7072 -105.7132 310.5313)" fill="#EBEBEB" width="1.99" height="3.574"/>
			
				<rect x="322.605" y="279.597" transform="matrix(0.7072 -0.707 0.707 0.7072 -104.1936 311.1607)" fill="#EBEBEB" width="1.99" height="3.574"/>
			
				<rect x="324.125" y="278.077" transform="matrix(0.7072 -0.707 0.707 0.7072 -102.674 311.7902)" fill="#EBEBEB" width="1.99" height="3.574"/>
			
				<rect x="325.645" y="276.558" transform="matrix(0.7072 -0.707 0.707 0.7072 -101.1547 312.4199)" fill="#EBEBEB" width="1.99" height="3.574"/>
			
				<rect x="327.164" y="275.038" transform="matrix(0.7072 -0.707 0.707 0.7072 -99.6351 313.0493)" fill="#EBEBEB" width="1.99" height="3.574"/>
			
				<rect x="328.684" y="273.518" transform="matrix(0.7072 -0.707 0.707 0.7072 -98.1156 313.6788)" fill="#EBEBEB" width="1.99" height="3.574"/>
			
				<rect x="330.204" y="271.998" transform="matrix(0.7074 -0.7069 0.7069 0.7074 -96.6033 314.2343)" fill="#EBEBEB" width="1.989" height="3.574"/>
			
				<rect x="331.724" y="270.478" transform="matrix(0.7072 -0.707 0.707 0.7072 -95.0767 314.938)" fill="#EBEBEB" width="1.99" height="3.574"/>
			
				<rect x="333.244" y="268.958" transform="matrix(0.7072 -0.707 0.707 0.7072 -93.5571 315.5674)" fill="#EBEBEB" width="1.99" height="3.574"/>
			
				<rect x="334.764" y="267.438" transform="matrix(0.7074 -0.7069 0.7069 0.7074 -92.0458 316.1229)" fill="#EBEBEB" width="1.989" height="3.574"/>
			
				<rect x="336.283" y="265.919" transform="matrix(0.7072 -0.707 0.707 0.7072 -90.5182 316.8266)" fill="#EBEBEB" width="1.99" height="3.574"/>
			
				<rect x="337.803" y="264.398" transform="matrix(0.7072 -0.707 0.707 0.7072 -88.9987 317.4561)" fill="#EBEBEB" width="1.99" height="3.574"/>
			
				<rect x="315.278" y="293.575" transform="matrix(0.7074 -0.7069 0.7069 0.7074 -116.223 309.9983)" fill="#EBEBEB" width="1.99" height="3.574"/>
			
				<rect x="310.373" y="291.83" transform="matrix(0.7074 -0.7069 0.7069 0.7074 -116.425 306.0202)" fill="#EBEBEB" width="1.99" height="3.574"/>
			
				<rect x="313.685" y="295.168" transform="matrix(0.7074 -0.7069 0.7069 0.7074 -117.8153 309.3387)" fill="#EBEBEB" width="1.99" height="3.574"/>
			
				<rect x="316.798" y="292.055" transform="matrix(0.7072 -0.707 0.707 0.7072 -114.701 310.7025)" fill="#EBEBEB" width="1.99" height="3.574"/>
			
				<rect x="318.318" y="290.535" transform="matrix(0.7072 -0.707 0.707 0.7072 -113.1815 311.3322)" fill="#EBEBEB" width="1.99" height="3.574"/>
			
				<rect x="319.838" y="289.015" transform="matrix(0.7074 -0.7069 0.7069 0.7074 -111.6656 311.8869)" fill="#EBEBEB" width="1.99" height="3.574"/>
			
				<rect x="321.358" y="287.495" transform="matrix(0.7072 -0.707 0.707 0.7072 -110.1424 312.5913)" fill="#EBEBEB" width="1.99" height="3.574"/>
			
				<rect x="322.877" y="285.975" transform="matrix(0.7072 -0.707 0.707 0.7072 -108.623 313.2209)" fill="#EBEBEB" width="1.99" height="3.574"/>
			
				<rect x="324.397" y="284.456" transform="matrix(0.7072 -0.707 0.707 0.7072 -107.1036 313.8505)" fill="#EBEBEB" width="1.99" height="3.574"/>
			
				<rect x="325.917" y="282.936" transform="matrix(0.7072 -0.707 0.707 0.7072 -105.584 314.48)" fill="#EBEBEB" width="1.99" height="3.574"/>
			
				<rect x="327.437" y="281.415" transform="matrix(0.7072 -0.707 0.707 0.7072 -104.0644 315.1094)" fill="#EBEBEB" width="1.99" height="3.574"/>
			
				<rect x="328.957" y="279.896" transform="matrix(0.7072 -0.707 0.707 0.7072 -102.5451 315.7392)" fill="#EBEBEB" width="1.99" height="3.574"/>
			
				<rect x="330.477" y="278.376" transform="matrix(0.7072 -0.707 0.707 0.7072 -101.0255 316.3686)" fill="#EBEBEB" width="1.99" height="3.574"/>
			
				<rect x="331.997" y="276.856" transform="matrix(0.7072 -0.707 0.707 0.7072 -99.506 316.998)" fill="#EBEBEB" width="1.99" height="3.574"/>
			
				<rect x="333.517" y="275.337" transform="matrix(0.7074 -0.7069 0.7069 0.7074 -97.9937 317.5527)" fill="#EBEBEB" width="1.989" height="3.574"/>
			
				<rect x="335.036" y="273.817" transform="matrix(0.7072 -0.707 0.707 0.7072 -96.4671 318.2572)" fill="#EBEBEB" width="1.99" height="3.574"/>
			
				<rect x="336.556" y="272.296" transform="matrix(0.7072 -0.707 0.707 0.7072 -94.9475 318.8867)" fill="#EBEBEB" width="1.99" height="3.574"/>
			
				<rect x="338.076" y="270.777" transform="matrix(0.7074 -0.7069 0.7069 0.7074 -93.4362 319.4413)" fill="#EBEBEB" width="1.989" height="3.574"/>
			
				<rect x="339.596" y="269.257" transform="matrix(0.7072 -0.707 0.707 0.7072 -91.9086 320.1459)" fill="#EBEBEB" width="1.99" height="3.574"/>
			
				<rect x="341.116" y="267.737" transform="matrix(0.7072 -0.707 0.707 0.7072 -90.389 320.7753)" fill="#EBEBEB" width="1.99" height="3.574"/>
			
				<rect x="317.105" y="304.521" transform="matrix(0.7072 -0.707 0.707 0.7072 -123.4244 314.5696)" fill="#EBEBEB" width="1.99" height="3.574"/>
			
				<rect x="318.625" y="303.001" transform="matrix(0.7072 -0.707 0.707 0.7072 -121.9049 315.199)" fill="#EBEBEB" width="1.99" height="3.574"/>
			
				<rect x="320.145" y="301.481" transform="matrix(0.7072 -0.707 0.707 0.7072 -120.3856 315.8288)" fill="#EBEBEB" width="1.99" height="3.574"/>
			
				<rect x="321.665" y="299.962" transform="matrix(0.7074 -0.7069 0.7069 0.7074 -118.8685 316.3818)" fill="#EBEBEB" width="1.99" height="3.574"/>
			
				<rect x="323.185" y="298.441" transform="matrix(0.7072 -0.707 0.707 0.7072 -117.3464 317.0877)" fill="#EBEBEB" width="1.99" height="3.574"/>
			
				<rect x="324.705" y="296.921" transform="matrix(0.7072 -0.707 0.707 0.7072 -115.827 317.7173)" fill="#EBEBEB" width="1.99" height="3.574"/>
			
				<rect x="326.224" y="295.402" transform="matrix(0.7074 -0.7069 0.7069 0.7074 -114.3111 318.2704)" fill="#EBEBEB" width="1.99" height="3.574"/>
			
				<rect x="327.744" y="293.882" transform="matrix(0.7072 -0.707 0.707 0.7072 -112.7879 318.9765)" fill="#EBEBEB" width="1.99" height="3.574"/>
			
				<rect x="329.264" y="292.362" transform="matrix(0.7072 -0.707 0.707 0.7072 -111.2685 319.606)" fill="#EBEBEB" width="1.99" height="3.574"/>
			
				<rect x="330.784" y="290.842" transform="matrix(0.7072 -0.707 0.707 0.7072 -109.749 320.2357)" fill="#EBEBEB" width="1.99" height="3.574"/>
			
				<rect x="332.304" y="289.322" transform="matrix(0.7072 -0.707 0.707 0.7072 -108.2294 320.8651)" fill="#EBEBEB" width="1.99" height="3.574"/>
			
				<rect x="333.824" y="287.802" transform="matrix(0.7072 -0.707 0.707 0.7072 -106.7099 321.4946)" fill="#EBEBEB" width="1.99" height="3.574"/>
			
				<rect x="335.344" y="286.283" transform="matrix(0.7072 -0.707 0.707 0.7072 -105.1906 322.1243)" fill="#EBEBEB" width="1.99" height="3.574"/>
			
				<rect x="336.864" y="284.763" transform="matrix(0.7072 -0.707 0.707 0.7072 -103.671 322.7538)" fill="#EBEBEB" width="1.99" height="3.574"/>
			
				<rect x="338.383" y="283.243" transform="matrix(0.7072 -0.707 0.707 0.7072 -102.1514 323.3832)" fill="#EBEBEB" width="1.99" height="3.574"/>
			
				<rect x="339.903" y="281.723" transform="matrix(0.7074 -0.7069 0.7069 0.7074 -100.6391 323.9363)" fill="#EBEBEB" width="1.989" height="3.574"/>
			
				<rect x="341.423" y="280.203" transform="matrix(0.7072 -0.707 0.707 0.7072 -99.1125 324.6424)" fill="#EBEBEB" width="1.99" height="3.574"/>
			
				<rect x="342.943" y="278.683" transform="matrix(0.7072 -0.707 0.707 0.7072 -97.593 325.2719)" fill="#EBEBEB" width="1.99" height="3.574"/>
			
				<rect x="344.463" y="277.163" transform="matrix(0.7074 -0.7069 0.7069 0.7074 -96.0816 325.8249)" fill="#EBEBEB" width="1.989" height="3.574"/>
			
				<rect x="345.983" y="275.644" transform="matrix(0.7072 -0.707 0.707 0.7072 -94.5541 326.531)" fill="#EBEBEB" width="1.99" height="3.574"/>
			
				<rect x="347.502" y="274.123" transform="matrix(0.7072 -0.707 0.707 0.7072 -93.0345 327.1605)" fill="#EBEBEB" width="1.99" height="3.574"/>
			
				<rect x="320.448" y="307.864" transform="matrix(0.7072 -0.707 0.707 0.7072 -124.8091 317.9116)" fill="#EBEBEB" width="1.99" height="3.574"/>
			
				<rect x="315.57" y="306.057" transform="matrix(0.7072 -0.707 0.707 0.7072 -124.9597 313.9335)" fill="#EBEBEB" width="1.99" height="3.574"/>
			
				<rect x="318.912" y="309.4" transform="matrix(0.7072 -0.707 0.707 0.7072 -126.3444 317.2755)" fill="#EBEBEB" width="1.99" height="3.574"/>
			
				<rect x="321.968" y="306.344" transform="matrix(0.7072 -0.707 0.707 0.7072 -123.2895 318.541)" fill="#EBEBEB" width="1.99" height="3.574"/>
			
				<rect x="323.488" y="304.824" transform="matrix(0.7072 -0.707 0.707 0.7072 -121.7702 319.1707)" fill="#EBEBEB" width="1.99" height="3.574"/>
			
				<rect x="325.008" y="303.304" transform="matrix(0.7074 -0.7069 0.7069 0.7074 -120.2531 319.723)" fill="#EBEBEB" width="1.99" height="3.574"/>
			
				<rect x="326.527" y="301.784" transform="matrix(0.7072 -0.707 0.707 0.7072 -118.731 320.4296)" fill="#EBEBEB" width="1.99" height="3.574"/>
			
				<rect x="328.047" y="300.264" transform="matrix(0.7072 -0.707 0.707 0.7072 -117.2115 321.0593)" fill="#EBEBEB" width="1.99" height="3.574"/>
			
				<rect x="329.567" y="298.745" transform="matrix(0.7074 -0.7069 0.7069 0.7074 -115.6958 321.6116)" fill="#EBEBEB" width="1.99" height="3.574"/>
			
				<rect x="331.087" y="297.225" transform="matrix(0.7072 -0.707 0.707 0.7072 -114.1725 322.3184)" fill="#EBEBEB" width="1.99" height="3.574"/>
			
				<rect x="332.607" y="295.705" transform="matrix(0.7072 -0.707 0.707 0.7072 -112.6531 322.9479)" fill="#EBEBEB" width="1.99" height="3.574"/>
			
				<rect x="334.127" y="294.185" transform="matrix(0.7072 -0.707 0.707 0.7072 -111.1336 323.5776)" fill="#EBEBEB" width="1.99" height="3.574"/>
			
				<rect x="335.647" y="292.665" transform="matrix(0.7072 -0.707 0.707 0.7072 -109.6141 324.2071)" fill="#EBEBEB" width="1.99" height="3.574"/>
			
				<rect x="337.167" y="291.145" transform="matrix(0.7072 -0.707 0.707 0.7072 -108.0945 324.8365)" fill="#EBEBEB" width="1.99" height="3.574"/>
			
				<rect x="338.687" y="289.625" transform="matrix(0.7072 -0.707 0.707 0.7072 -106.5752 325.4662)" fill="#EBEBEB" width="1.99" height="3.574"/>
			
				<rect x="340.206" y="288.106" transform="matrix(0.7072 -0.707 0.707 0.7072 -105.0556 326.0957)" fill="#EBEBEB" width="1.99" height="3.574"/>
			
				<rect x="341.726" y="286.585" transform="matrix(0.7072 -0.707 0.707 0.7072 -103.536 326.7252)" fill="#EBEBEB" width="1.99" height="3.574"/>
			
				<rect x="343.246" y="285.066" transform="matrix(0.7074 -0.7069 0.7069 0.7074 -102.0237 327.2775)" fill="#EBEBEB" width="1.989" height="3.574"/>
			
				<rect x="344.766" y="283.546" transform="matrix(0.7072 -0.707 0.707 0.7072 -100.4972 327.9843)" fill="#EBEBEB" width="1.99" height="3.574"/>
			
				<rect x="346.286" y="282.026" transform="matrix(0.7072 -0.707 0.707 0.7072 -98.9776 328.6138)" fill="#EBEBEB" width="1.99" height="3.574"/>
			
				<rect x="347.806" y="280.506" transform="matrix(0.7074 -0.7069 0.7069 0.7074 -97.4662 329.166)" fill="#EBEBEB" width="1.989" height="3.574"/>
			
				<rect x="349.325" y="278.986" transform="matrix(0.7072 -0.707 0.707 0.7072 -95.9387 329.873)" fill="#EBEBEB" width="1.99" height="3.574"/>
			
				<rect x="350.845" y="277.466" transform="matrix(0.7072 -0.707 0.707 0.7072 -94.4191 330.5024)" fill="#EBEBEB" width="1.99" height="3.574"/>
			
				<rect x="327.135" y="314.551" transform="matrix(0.7072 -0.707 0.707 0.7072 -127.5791 324.5974)" fill="#EBEBEB" width="1.99" height="3.574"/>
			
				<rect x="328.655" y="313.031" transform="matrix(0.7072 -0.707 0.707 0.7072 -126.0595 325.2269)" fill="#EBEBEB" width="1.99" height="3.574"/>
			
				<rect x="330.175" y="311.512" transform="matrix(0.7072 -0.707 0.707 0.7072 -124.5402 325.8566)" fill="#EBEBEB" width="1.99" height="3.574"/>
			
				<rect x="331.695" y="309.992" transform="matrix(0.7074 -0.7069 0.7069 0.7074 -123.0231 326.4072)" fill="#EBEBEB" width="1.99" height="3.574"/>
			
				<rect x="333.215" y="308.472" transform="matrix(0.7072 -0.707 0.707 0.7072 -121.5011 327.1155)" fill="#EBEBEB" width="1.99" height="3.574"/>
			
				<rect x="334.735" y="306.952" transform="matrix(0.7072 -0.707 0.707 0.7072 -119.9816 327.7452)" fill="#EBEBEB" width="1.99" height="3.574"/>
			
				<rect x="336.255" y="305.432" transform="matrix(0.7074 -0.7069 0.7069 0.7074 -118.4658 328.2958)" fill="#EBEBEB" width="1.99" height="3.574"/>
			
				<rect x="337.775" y="303.912" transform="matrix(0.7072 -0.707 0.707 0.7072 -116.9426 329.0043)" fill="#EBEBEB" width="1.99" height="3.574"/>
			
				<rect x="339.294" y="302.392" transform="matrix(0.7072 -0.707 0.707 0.7072 -115.4232 329.6338)" fill="#EBEBEB" width="1.99" height="3.574"/>
			
				<rect x="340.814" y="300.872" transform="matrix(0.7072 -0.707 0.707 0.7072 -113.9037 330.2635)" fill="#EBEBEB" width="1.99" height="3.574"/>
			
				<rect x="342.334" y="299.353" transform="matrix(0.7072 -0.707 0.707 0.7072 -112.3841 330.8929)" fill="#EBEBEB" width="1.99" height="3.574"/>
			
				<rect x="343.854" y="297.832" transform="matrix(0.7072 -0.707 0.707 0.7072 -110.8646 331.5224)" fill="#EBEBEB" width="1.99" height="3.574"/>
			
				<rect x="345.374" y="296.313" transform="matrix(0.7072 -0.707 0.707 0.7072 -109.3452 332.1521)" fill="#EBEBEB" width="1.99" height="3.574"/>
			
				<rect x="346.894" y="294.793" transform="matrix(0.7072 -0.707 0.707 0.7072 -107.8257 332.7816)" fill="#EBEBEB" width="1.99" height="3.574"/>
			
				<rect x="348.414" y="293.273" transform="matrix(0.7072 -0.707 0.707 0.7072 -106.3061 333.411)" fill="#EBEBEB" width="1.99" height="3.574"/>
			
				<rect x="349.934" y="291.754" transform="matrix(0.7074 -0.7069 0.7069 0.7074 -104.7938 333.9617)" fill="#EBEBEB" width="1.989" height="3.574"/>
			
				<rect x="351.453" y="290.234" transform="matrix(0.7072 -0.707 0.707 0.7072 -103.2672 334.6702)" fill="#EBEBEB" width="1.99" height="3.574"/>
			
				<rect x="352.973" y="288.713" transform="matrix(0.7072 -0.707 0.707 0.7072 -101.7477 335.2996)" fill="#EBEBEB" width="1.99" height="3.574"/>
			
				<rect x="354.493" y="287.194" transform="matrix(0.7074 -0.7069 0.7069 0.7074 -100.2363 335.8503)" fill="#EBEBEB" width="1.989" height="3.574"/>
			
				<rect x="356.013" y="285.674" transform="matrix(0.7072 -0.707 0.707 0.7072 -98.7087 336.5588)" fill="#EBEBEB" width="1.99" height="3.574"/>
			
				<rect x="357.533" y="284.154" transform="matrix(0.7072 -0.707 0.707 0.7072 -97.1892 337.1883)" fill="#EBEBEB" width="1.99" height="3.574"/>
			
				<rect x="330.478" y="317.894" transform="matrix(0.7072 -0.707 0.707 0.7072 -128.9637 327.9394)" fill="#EBEBEB" width="1.99" height="3.574"/>
			
				<rect x="325.6" y="316.087" transform="matrix(0.7072 -0.707 0.707 0.7072 -129.1144 323.9613)" fill="#EBEBEB" width="1.99" height="3.574"/>
			
				<rect x="328.943" y="319.43" transform="matrix(0.7072 -0.707 0.707 0.7072 -130.499 327.3033)" fill="#EBEBEB" width="1.99" height="3.574"/>
			
				<rect x="331.998" y="316.374" transform="matrix(0.7072 -0.707 0.707 0.7072 -127.4442 328.5688)" fill="#EBEBEB" width="1.99" height="3.574"/>
			
				<rect x="333.518" y="314.854" transform="matrix(0.7072 -0.707 0.707 0.7072 -125.9249 329.1985)" fill="#EBEBEB" width="1.99" height="3.574"/>
			
				<rect x="335.038" y="313.335" transform="matrix(0.7074 -0.7069 0.7069 0.7074 -124.4078 329.7483)" fill="#EBEBEB" width="1.99" height="3.574"/>
			
				<rect x="336.558" y="311.814" transform="matrix(0.7072 -0.707 0.707 0.7072 -122.8857 330.4575)" fill="#EBEBEB" width="1.99" height="3.574"/>
			
				<rect x="338.078" y="310.294" transform="matrix(0.7072 -0.707 0.707 0.7072 -121.3662 331.0871)" fill="#EBEBEB" width="1.99" height="3.574"/>
			
				<rect x="339.597" y="308.775" transform="matrix(0.7074 -0.7069 0.7069 0.7074 -119.8504 331.637)" fill="#EBEBEB" width="1.99" height="3.574"/>
			
				<rect x="341.117" y="307.255" transform="matrix(0.7072 -0.707 0.707 0.7072 -118.3272 332.3463)" fill="#EBEBEB" width="1.99" height="3.574"/>
			
				<rect x="342.637" y="305.735" transform="matrix(0.7072 -0.707 0.707 0.7072 -116.8078 332.9758)" fill="#EBEBEB" width="1.99" height="3.574"/>
			
				<rect x="344.157" y="304.215" transform="matrix(0.7072 -0.707 0.707 0.7072 -115.2883 333.6055)" fill="#EBEBEB" width="1.99" height="3.574"/>
			
				<rect x="345.677" y="302.695" transform="matrix(0.7072 -0.707 0.707 0.7072 -113.7687 334.2349)" fill="#EBEBEB" width="1.99" height="3.574"/>
			
				<rect x="347.197" y="301.175" transform="matrix(0.7072 -0.707 0.707 0.7072 -112.2491 334.8643)" fill="#EBEBEB" width="1.99" height="3.574"/>
			
				<rect x="348.717" y="299.656" transform="matrix(0.7072 -0.707 0.707 0.7072 -110.7299 335.4941)" fill="#EBEBEB" width="1.99" height="3.574"/>
			
				<rect x="350.237" y="298.136" transform="matrix(0.7072 -0.707 0.707 0.7072 -109.2103 336.1235)" fill="#EBEBEB" width="1.99" height="3.574"/>
			
				<rect x="351.756" y="296.616" transform="matrix(0.7072 -0.707 0.707 0.7072 -107.6907 336.753)" fill="#EBEBEB" width="1.99" height="3.574"/>
			
				<rect x="353.277" y="295.096" transform="matrix(0.7074 -0.7069 0.7069 0.7074 -106.1784 337.3028)" fill="#EBEBEB" width="1.989" height="3.574"/>
			
				<rect x="354.796" y="293.576" transform="matrix(0.7072 -0.707 0.707 0.7072 -104.6519 338.0121)" fill="#EBEBEB" width="1.99" height="3.574"/>
			
				<rect x="356.316" y="292.056" transform="matrix(0.7072 -0.707 0.707 0.7072 -103.1323 338.6416)" fill="#EBEBEB" width="1.99" height="3.574"/>
			
				<rect x="357.836" y="290.536" transform="matrix(0.7074 -0.7069 0.7069 0.7074 -101.6209 339.1914)" fill="#EBEBEB" width="1.989" height="3.574"/>
			
				<rect x="359.356" y="289.017" transform="matrix(0.7072 -0.707 0.707 0.7072 -100.0934 339.9008)" fill="#EBEBEB" width="1.99" height="3.574"/>
			
				<rect x="360.875" y="287.497" transform="matrix(0.7072 -0.707 0.707 0.7072 -98.5738 340.5302)" fill="#EBEBEB" width="1.99" height="3.574"/>
			<rect x="404.207" y="342.95" fill="#EBEBEB" width="1.99" height="3.574"/>
			<rect x="406.356" y="342.949" fill="#EBEBEB" width="1.99" height="3.574"/>
			<rect x="408.505" y="342.95" fill="#EBEBEB" width="1.99" height="3.574"/>
			<rect x="410.655" y="342.95" fill="#EBEBEB" width="1.99" height="3.574"/>
			<rect x="402.035" y="342.95" fill="#EBEBEB" width="1.99" height="3.574"/>
			<rect x="404.207" y="333.116" fill="#EBEBEB" width="1.99" height="3.574"/>
			<rect x="406.356" y="333.115" fill="#EBEBEB" width="1.99" height="3.574"/>
			<rect x="408.505" y="333.116" fill="#EBEBEB" width="1.99" height="3.574"/>
			<rect x="410.655" y="333.116" fill="#EBEBEB" width="1.99" height="3.574"/>
			<rect x="402.035" y="333.116" fill="#EBEBEB" width="1.99" height="3.574"/>
			<rect x="395.33" y="345.356" fill="#EBEBEB" width="1.99" height="3.574"/>
			<rect x="397.479" y="345.355" fill="#EBEBEB" width="1.99" height="3.574"/>
			<rect x="399.628" y="345.356" fill="#EBEBEB" width="1.99" height="3.574"/>
			<rect x="393.158" y="345.356" fill="#EBEBEB" width="1.99" height="3.574"/>
			
				<rect x="384.116" y="340.715" transform="matrix(0.7072 -0.707 0.707 0.7072 -129.394 372.5418)" fill="#EBEBEB" width="1.99" height="3.573"/>
			
				<rect x="385.636" y="339.195" transform="matrix(0.7071 -0.7071 0.7071 0.7071 -127.869 373.2604)" fill="#EBEBEB" width="1.99" height="3.574"/>
			
				<rect x="387.156" y="337.675" transform="matrix(0.7072 -0.707 0.707 0.7072 -126.3552 373.8008)" fill="#EBEBEB" width="1.99" height="3.574"/>
			
				<rect x="388.676" y="336.155" transform="matrix(0.7074 -0.7069 0.7069 0.7074 -124.842 374.3412)" fill="#EBEBEB" width="1.99" height="3.574"/>
			
				<rect x="390.195" y="334.635" transform="matrix(0.707 -0.7072 0.7072 0.707 -123.3025 375.2382)" fill="#EBEBEB" width="1.99" height="3.574"/>
			
				<rect x="391.715" y="333.115" transform="matrix(0.7072 -0.707 0.707 0.7072 -121.7966 375.6894)" fill="#EBEBEB" width="1.99" height="3.574"/>
			
				<rect x="393.235" y="331.596" transform="matrix(0.7074 -0.7069 0.7069 0.7074 -120.2846 376.2298)" fill="#EBEBEB" width="1.99" height="3.574"/>
			
				<rect x="382.58" y="342.25" transform="matrix(0.7071 -0.7071 0.7071 0.7071 -130.9246 371.9948)" fill="#EBEBEB" width="1.99" height="3.574"/>
			
				<rect x="369.992" y="330.024" transform="matrix(0.7071 -0.7071 0.7071 0.7071 -126.0919 359.5643)" fill="#EBEBEB" width="1.99" height="3.93"/>
			
				<rect x="371.511" y="328.503" transform="matrix(0.7071 -0.7071 0.7071 0.7071 -124.5721 360.1934)" fill="#EBEBEB" width="1.99" height="3.93"/>
			
				<rect x="373.031" y="326.984" transform="matrix(0.7074 -0.7069 0.7069 0.7074 -123.0635 360.6509)" fill="#EBEBEB" width="1.989" height="3.93"/>
			
				<rect x="374.551" y="325.464" transform="matrix(0.707 -0.7072 0.7072 0.707 -121.5266 361.5391)" fill="#EBEBEB" width="1.99" height="3.93"/>
			
				<rect x="376.07" y="323.944" transform="matrix(0.7071 -0.7071 0.7071 0.7071 -120.0125 362.082)" fill="#EBEBEB" width="1.99" height="3.93"/>
			
				<rect x="377.591" y="322.424" transform="matrix(0.7074 -0.7069 0.7069 0.7074 -118.506 362.5394)" fill="#EBEBEB" width="1.989" height="3.931"/>
			
				<rect x="379.111" y="320.905" transform="matrix(0.7074 -0.7069 0.7069 0.7074 -116.9868 363.1694)" fill="#EBEBEB" width="1.991" height="3.93"/>
			
				<rect x="380.63" y="319.385" transform="matrix(0.7074 -0.7069 0.7069 0.7074 -115.4677 363.7986)" fill="#EBEBEB" width="1.99" height="3.93"/>
			
				<rect x="382.151" y="317.865" transform="matrix(0.7074 -0.7069 0.7069 0.7074 -113.9487 364.4281)" fill="#EBEBEB" width="1.989" height="3.931"/>
			
				<rect x="383.67" y="316.345" transform="matrix(0.7074 -0.7069 0.7069 0.7074 -112.4295 365.058)" fill="#EBEBEB" width="1.991" height="3.93"/>
			
				<rect x="385.19" y="314.825" transform="matrix(0.7071 -0.7071 0.7071 0.7071 -110.8932 365.8596)" fill="#EBEBEB" width="1.99" height="3.929"/>
			
				<rect x="386.71" y="313.305" transform="matrix(0.7071 -0.7071 0.7071 0.7071 -109.3734 366.4892)" fill="#EBEBEB" width="1.99" height="3.93"/>
			
				<rect x="368.456" y="331.56" transform="matrix(0.7074 -0.7069 0.7069 0.7074 -127.6366 358.7556)" fill="#EBEBEB" width="1.99" height="3.93"/>
			
				<rect x="315.087" y="228.765" transform="matrix(0.7072 -0.707 0.707 0.7072 -70.4569 290.9633)" fill="#EBEBEB" width="1.99" height="3.574"/>
			
				<rect x="316.606" y="227.244" transform="matrix(0.7071 -0.7071 0.7071 0.7071 -68.9265 291.6598)" fill="#EBEBEB" width="1.99" height="3.574"/>
			
				<rect x="318.126" y="225.725" transform="matrix(0.7072 -0.707 0.707 0.7072 -67.418 292.2225)" fill="#EBEBEB" width="1.99" height="3.574"/>
			
				<rect x="319.646" y="224.205" transform="matrix(0.7074 -0.7069 0.7069 0.7074 -65.91 292.785)" fill="#EBEBEB" width="1.99" height="3.574"/>
			
				<rect x="321.166" y="222.685" transform="matrix(0.707 -0.7072 0.7072 0.707 -64.3547 293.6154)" fill="#EBEBEB" width="1.99" height="3.574"/>
			
				<rect x="322.686" y="221.165" transform="matrix(0.7072 -0.707 0.707 0.7072 -62.8592 294.111)" fill="#EBEBEB" width="1.99" height="3.575"/>
			
				<rect x="324.206" y="219.646" transform="matrix(0.7074 -0.7069 0.7069 0.7074 -61.3526 294.6737)" fill="#EBEBEB" width="1.99" height="3.574"/>
			
				<rect x="325.726" y="218.125" transform="matrix(0.7071 -0.7071 0.7071 0.7071 -59.8073 295.4373)" fill="#EBEBEB" width="1.99" height="3.574"/>
			
				<rect x="327.246" y="216.605" transform="matrix(0.7072 -0.707 0.707 0.7072 -58.3008 295.9996)" fill="#EBEBEB" width="1.99" height="3.575"/>
			
				<rect x="328.765" y="215.086" transform="matrix(0.7074 -0.7069 0.7069 0.7074 -56.7953 296.5623)" fill="#EBEBEB" width="1.99" height="3.574"/>
			
				<rect x="330.285" y="213.566" transform="matrix(0.7071 -0.7071 0.7071 0.7071 -55.2477 297.3259)" fill="#EBEBEB" width="1.99" height="3.574"/>
			
				<rect x="331.805" y="212.046" transform="matrix(0.7072 -0.707 0.707 0.7072 -53.7424 297.8881)" fill="#EBEBEB" width="1.99" height="3.574"/>
			
				<rect x="318.43" y="232.108" transform="matrix(0.7072 -0.707 0.707 0.7072 -71.8414 294.3054)" fill="#EBEBEB" width="1.99" height="3.573"/>
			
				<rect x="313.551" y="230.3" transform="matrix(0.7071 -0.7071 0.7071 0.7071 -71.9821 290.3943)" fill="#EBEBEB" width="1.99" height="3.574"/>
			
				<rect x="316.894" y="233.643" transform="matrix(0.7072 -0.707 0.707 0.7072 -73.3768 293.6692)" fill="#EBEBEB" width="1.99" height="3.574"/>
			
				<rect x="319.949" y="230.588" transform="matrix(0.7074 -0.7069 0.7069 0.7074 -70.3328 294.8668)" fill="#EBEBEB" width="1.99" height="3.574"/>
			
				<rect x="321.469" y="229.068" transform="matrix(0.7072 -0.707 0.707 0.7072 -68.8026 295.5645)" fill="#EBEBEB" width="1.99" height="3.574"/>
			
				<rect x="322.989" y="227.548" transform="matrix(0.7074 -0.7069 0.7069 0.7074 -67.2946 296.1262)" fill="#EBEBEB" width="1.99" height="3.574"/>
			
				<rect x="324.509" y="226.028" transform="matrix(0.7074 -0.7069 0.7069 0.7074 -65.7755 296.7555)" fill="#EBEBEB" width="1.99" height="3.574"/>
			
				<rect x="326.029" y="224.508" transform="matrix(0.7072 -0.707 0.707 0.7072 -64.244 297.453)" fill="#EBEBEB" width="1.99" height="3.574"/>
			
				<rect x="327.549" y="222.988" transform="matrix(0.7074 -0.7069 0.7069 0.7074 -62.7372 298.0148)" fill="#EBEBEB" width="1.99" height="3.574"/>
			
				<rect x="329.069" y="221.468" transform="matrix(0.7072 -0.707 0.707 0.7072 -61.205 298.7121)" fill="#EBEBEB" width="1.99" height="3.574"/>
			
				<rect x="330.588" y="219.948" transform="matrix(0.7072 -0.707 0.707 0.7072 -59.6855 299.3416)" fill="#EBEBEB" width="1.99" height="3.574"/>
			
				<rect x="332.108" y="218.429" transform="matrix(0.7072 -0.707 0.707 0.7072 -58.1661 299.9713)" fill="#EBEBEB" width="1.99" height="3.574"/>
			
				<rect x="333.628" y="216.909" transform="matrix(0.7072 -0.707 0.707 0.7072 -56.6465 300.6008)" fill="#EBEBEB" width="1.99" height="3.574"/>
			
				<rect x="335.148" y="215.389" transform="matrix(0.7072 -0.707 0.707 0.7072 -55.127 301.2302)" fill="#EBEBEB" width="1.99" height="3.574"/>
			
				<rect x="344.036" y="334.492" transform="matrix(0.7074 -0.7069 0.7069 0.7074 -136.7299 342.3008)" fill="#EBEBEB" width="1.99" height="3.574"/>
			
				<rect x="345.556" y="332.972" transform="matrix(0.7072 -0.707 0.707 0.7072 -135.2093 343.0138)" fill="#EBEBEB" width="1.99" height="3.574"/>
			
				<rect x="347.076" y="331.452" transform="matrix(0.7072 -0.707 0.707 0.7072 -133.6897 343.6432)" fill="#EBEBEB" width="1.99" height="3.574"/>
			
				<rect x="348.596" y="329.933" transform="matrix(0.7072 -0.707 0.707 0.7072 -132.1704 344.273)" fill="#EBEBEB" width="1.99" height="3.574"/>
			
				<rect x="350.116" y="328.413" transform="matrix(0.7074 -0.7069 0.7069 0.7074 -130.6533 344.819)" fill="#EBEBEB" width="1.99" height="3.574"/>
			
				<rect x="351.636" y="326.893" transform="matrix(0.7072 -0.707 0.707 0.7072 -129.1313 345.5319)" fill="#EBEBEB" width="1.99" height="3.574"/>
			
				<rect x="348.188" y="338.644" transform="matrix(0.7074 -0.7069 0.7069 0.7074 -138.4495 346.4501)" fill="#EBEBEB" width="1.99" height="3.574"/>
			
				<rect x="349.708" y="337.124" transform="matrix(0.7072 -0.707 0.707 0.7072 -136.9289 347.1641)" fill="#EBEBEB" width="1.99" height="3.574"/>
			
				<rect x="351.228" y="335.603" transform="matrix(0.7072 -0.707 0.707 0.7072 -135.4093 347.7936)" fill="#EBEBEB" width="1.99" height="3.574"/>
			
				<rect x="352.748" y="334.084" transform="matrix(0.7072 -0.707 0.707 0.7072 -133.89 348.4233)" fill="#EBEBEB" width="1.99" height="3.574"/>
			
				<rect x="354.267" y="332.564" transform="matrix(0.7074 -0.7069 0.7069 0.7074 -132.3729 348.9684)" fill="#EBEBEB" width="1.99" height="3.574"/>
			
				<rect x="355.787" y="331.044" transform="matrix(0.7072 -0.707 0.707 0.7072 -130.8508 349.6822)" fill="#EBEBEB" width="1.99" height="3.574"/>
			
				<rect x="357.871" y="342.247" transform="matrix(0.7072 -0.707 0.707 0.7072 -138.1609 354.435)" fill="#EBEBEB" width="1.99" height="3.574"/>
			
				<rect x="359.391" y="340.727" transform="matrix(0.7072 -0.707 0.707 0.7072 -136.6416 355.0648)" fill="#EBEBEB" width="1.99" height="3.574"/>
			<rect x="365.57" y="343.904" fill="#EBEBEB" width="3.574" height="1.99"/>
			<rect x="365.571" y="341.755" fill="#EBEBEB" width="3.574" height="1.99"/>
			
				<rect x="360.91" y="339.207" transform="matrix(0.7074 -0.7069 0.7069 0.7074 -135.1245 355.6082)" fill="#EBEBEB" width="1.99" height="3.574"/>
			
				<rect x="362.43" y="337.687" transform="matrix(0.7072 -0.707 0.707 0.7072 -133.6025 356.3236)" fill="#EBEBEB" width="1.99" height="3.574"/>
			
				<rect x="359.235" y="319.293" transform="matrix(0.7072 -0.707 0.707 0.7072 -121.5339 348.6799)" fill="#EBEBEB" width="1.99" height="3.574"/>
			
				<rect x="360.755" y="317.774" transform="matrix(0.7072 -0.707 0.707 0.7072 -120.0143 349.3093)" fill="#EBEBEB" width="1.99" height="3.574"/>
			
				<rect x="362.275" y="316.253" transform="matrix(0.7072 -0.707 0.707 0.7072 -118.4948 349.9387)" fill="#EBEBEB" width="1.99" height="3.574"/>
			
				<rect x="363.795" y="314.734" transform="matrix(0.7072 -0.707 0.707 0.7072 -116.9754 350.5685)" fill="#EBEBEB" width="1.99" height="3.574"/>
			
				<rect x="365.315" y="313.214" transform="matrix(0.7072 -0.707 0.707 0.7072 -115.4559 351.1979)" fill="#EBEBEB" width="1.99" height="3.574"/>
			
				<rect x="366.834" y="311.694" transform="matrix(0.7072 -0.707 0.707 0.7072 -113.9363 351.8274)" fill="#EBEBEB" width="1.99" height="3.574"/>
			
				<rect x="368.355" y="310.174" transform="matrix(0.7074 -0.7069 0.7069 0.7074 -112.424 352.3735)" fill="#EBEBEB" width="1.989" height="3.574"/>
			
				<rect x="369.874" y="308.654" transform="matrix(0.7072 -0.707 0.707 0.7072 -110.8974 353.0866)" fill="#EBEBEB" width="1.99" height="3.574"/>
			
				<rect x="371.394" y="307.134" transform="matrix(0.7072 -0.707 0.707 0.7072 -109.3778 353.716)" fill="#EBEBEB" width="1.99" height="3.574"/>
			
				<rect x="372.914" y="305.614" transform="matrix(0.7074 -0.7069 0.7069 0.7074 -107.8665 354.2621)" fill="#EBEBEB" width="1.989" height="3.574"/>
			
				<rect x="374.434" y="304.095" transform="matrix(0.7072 -0.707 0.707 0.7072 -106.3389 354.9752)" fill="#EBEBEB" width="1.99" height="3.574"/>
			
				<rect x="375.954" y="302.575" transform="matrix(0.7072 -0.707 0.707 0.7072 -104.8194 355.6046)" fill="#EBEBEB" width="1.99" height="3.574"/>
			
				<rect x="361.803" y="324.892" transform="matrix(0.7072 -0.707 0.707 0.7072 -124.7405 352.1342)" fill="#EBEBEB" width="1.99" height="3.574"/>
			
				<rect x="357.751" y="320.787" transform="matrix(0.7072 -0.707 0.707 0.7072 -123.0246 348.0678)" fill="#EBEBEB" width="1.99" height="3.574"/>
			
				<rect x="363.323" y="323.372" transform="matrix(0.7072 -0.707 0.707 0.7072 -123.2211 352.7638)" fill="#EBEBEB" width="1.99" height="3.574"/>
			
				<rect x="364.843" y="321.853" transform="matrix(0.7072 -0.707 0.707 0.7072 -121.7015 353.3933)" fill="#EBEBEB" width="1.99" height="3.574"/>
			
				<rect x="366.362" y="320.332" transform="matrix(0.7072 -0.707 0.707 0.7072 -120.1819 354.0227)" fill="#EBEBEB" width="1.99" height="3.574"/>
			
				<rect x="367.882" y="318.813" transform="matrix(0.7072 -0.707 0.707 0.7072 -118.6626 354.6525)" fill="#EBEBEB" width="1.99" height="3.574"/>
			
				<rect x="369.402" y="317.293" transform="matrix(0.7072 -0.707 0.707 0.7072 -117.143 355.2819)" fill="#EBEBEB" width="1.99" height="3.574"/>
			
				<rect x="370.922" y="315.773" transform="matrix(0.7072 -0.707 0.707 0.7072 -115.6235 355.9114)" fill="#EBEBEB" width="1.99" height="3.574"/>
			
				<rect x="372.442" y="314.254" transform="matrix(0.7074 -0.7069 0.7069 0.7074 -114.1112 356.4565)" fill="#EBEBEB" width="1.989" height="3.574"/>
			
				<rect x="373.962" y="312.734" transform="matrix(0.7072 -0.707 0.707 0.7072 -112.5846 357.1705)" fill="#EBEBEB" width="1.99" height="3.574"/>
			
				<rect x="375.481" y="311.213" transform="matrix(0.7072 -0.707 0.707 0.7072 -111.065 357.8)" fill="#EBEBEB" width="1.99" height="3.574"/>
			
				<rect x="377.002" y="309.694" transform="matrix(0.7074 -0.7069 0.7069 0.7074 -109.5537 358.3451)" fill="#EBEBEB" width="1.989" height="3.574"/>
			
				<rect x="378.521" y="308.174" transform="matrix(0.7072 -0.707 0.707 0.7072 -108.0262 359.0592)" fill="#EBEBEB" width="1.99" height="3.574"/>
			
				<rect x="380.041" y="306.654" transform="matrix(0.7072 -0.707 0.707 0.7072 -106.5066 359.6886)" fill="#EBEBEB" width="1.99" height="3.574"/>
			
				<rect x="335.069" y="325.525" transform="matrix(0.7074 -0.7069 0.7069 0.7074 -133.0154 333.3374)" fill="#EBEBEB" width="1.99" height="3.574"/>
			
				<rect x="336.589" y="324.005" transform="matrix(0.7072 -0.707 0.707 0.7072 -131.4948 334.0482)" fill="#EBEBEB" width="1.99" height="3.574"/>
			
				<rect x="338.108" y="322.484" transform="matrix(0.7072 -0.707 0.707 0.7072 -129.9752 334.6777)" fill="#EBEBEB" width="1.99" height="3.574"/>
			
				<rect x="339.628" y="320.965" transform="matrix(0.7072 -0.707 0.707 0.7072 -128.4559 335.3074)" fill="#EBEBEB" width="1.99" height="3.574"/>
			
				<rect x="341.148" y="319.445" transform="matrix(0.7074 -0.7069 0.7069 0.7074 -126.9388 335.8557)" fill="#EBEBEB" width="1.99" height="3.574"/>
			
				<rect x="342.668" y="317.925" transform="matrix(0.7072 -0.707 0.707 0.7072 -125.4167 336.5663)" fill="#EBEBEB" width="1.99" height="3.574"/>
			
				<rect x="344.188" y="316.405" transform="matrix(0.7072 -0.707 0.707 0.7072 -123.8972 337.196)" fill="#EBEBEB" width="1.99" height="3.574"/>
			
				<rect x="345.708" y="314.885" transform="matrix(0.7074 -0.7069 0.7069 0.7074 -122.3814 337.7443)" fill="#EBEBEB" width="1.99" height="3.574"/>
			
				<rect x="347.228" y="313.365" transform="matrix(0.7072 -0.707 0.707 0.7072 -120.8582 338.4551)" fill="#EBEBEB" width="1.99" height="3.574"/>
			
				<rect x="348.748" y="311.845" transform="matrix(0.7072 -0.707 0.707 0.7072 -119.3388 339.0846)" fill="#EBEBEB" width="1.99" height="3.574"/>
			
				<rect x="350.268" y="310.326" transform="matrix(0.7072 -0.707 0.707 0.7072 -117.8193 339.7143)" fill="#EBEBEB" width="1.99" height="3.574"/>
			
				<rect x="351.787" y="308.806" transform="matrix(0.7072 -0.707 0.707 0.7072 -116.2997 340.3438)" fill="#EBEBEB" width="1.99" height="3.574"/>
			
				<rect x="353.307" y="307.286" transform="matrix(0.7072 -0.707 0.707 0.7072 -114.7802 340.9732)" fill="#EBEBEB" width="1.99" height="3.574"/>
			
				<rect x="354.827" y="305.766" transform="matrix(0.7072 -0.707 0.707 0.7072 -113.2609 341.6029)" fill="#EBEBEB" width="1.99" height="3.574"/>
			
				<rect x="356.347" y="304.246" transform="matrix(0.7072 -0.707 0.707 0.7072 -111.7413 342.2324)" fill="#EBEBEB" width="1.99" height="3.574"/>
			
				<rect x="357.867" y="302.726" transform="matrix(0.7072 -0.707 0.707 0.7072 -110.2217 342.8618)" fill="#EBEBEB" width="1.99" height="3.574"/>
			
				<rect x="359.387" y="301.207" transform="matrix(0.7074 -0.7069 0.7069 0.7074 -108.7094 343.4102)" fill="#EBEBEB" width="1.989" height="3.574"/>
			
				<rect x="360.906" y="299.687" transform="matrix(0.7072 -0.707 0.707 0.7072 -107.1828 344.121)" fill="#EBEBEB" width="1.99" height="3.574"/>
			
				<rect x="362.426" y="298.166" transform="matrix(0.7072 -0.707 0.707 0.7072 -105.6633 344.7505)" fill="#EBEBEB" width="1.99" height="3.574"/>
			
				<rect x="363.946" y="296.647" transform="matrix(0.7074 -0.7069 0.7069 0.7074 -104.1519 345.2988)" fill="#EBEBEB" width="1.989" height="3.574"/>
			
				<rect x="365.466" y="295.127" transform="matrix(0.7072 -0.707 0.707 0.7072 -102.6244 346.0096)" fill="#EBEBEB" width="1.99" height="3.574"/>
			
				<rect x="338.478" y="328.925" transform="matrix(0.7074 -0.7069 0.7069 0.7074 -134.4216 336.7425)" fill="#EBEBEB" width="1.99" height="3.574"/>
			
				<rect x="339.998" y="327.405" transform="matrix(0.7072 -0.707 0.707 0.7072 -132.901 337.4541)" fill="#EBEBEB" width="1.99" height="3.574"/>
			
				<rect x="341.518" y="325.885" transform="matrix(0.7072 -0.707 0.707 0.7072 -131.3814 338.0836)" fill="#EBEBEB" width="1.99" height="3.574"/>
			
				<rect x="343.038" y="324.366" transform="matrix(0.7072 -0.707 0.707 0.7072 -129.8621 338.7133)" fill="#EBEBEB" width="1.99" height="3.574"/>
			
				<rect x="344.557" y="322.846" transform="matrix(0.7074 -0.7069 0.7069 0.7074 -128.345 339.2607)" fill="#EBEBEB" width="1.99" height="3.574"/>
			
				<rect x="346.101" y="321.326" transform="matrix(0.7072 -0.707 0.707 0.7072 -126.8161 339.9888)" fill="#EBEBEB" width="1.99" height="3.574"/>
			
				<rect x="347.621" y="319.806" transform="matrix(0.7072 -0.707 0.707 0.7072 -125.2966 340.6185)" fill="#EBEBEB" width="1.99" height="3.574"/>
			
				<rect x="349.14" y="318.286" transform="matrix(0.7074 -0.7069 0.7069 0.7074 -123.7808 341.166)" fill="#EBEBEB" width="1.99" height="3.574"/>
			
				<rect x="350.66" y="316.766" transform="matrix(0.7072 -0.707 0.707 0.7072 -122.2576 341.8776)" fill="#EBEBEB" width="1.99" height="3.574"/>
			
				<rect x="352.18" y="315.246" transform="matrix(0.7072 -0.707 0.707 0.7072 -120.7382 342.5071)" fill="#EBEBEB" width="1.99" height="3.574"/>
			
				<rect x="353.7" y="313.727" transform="matrix(0.7072 -0.707 0.707 0.7072 -119.2187 343.1368)" fill="#EBEBEB" width="1.99" height="3.574"/>
			
				<rect x="355.22" y="312.207" transform="matrix(0.7072 -0.707 0.707 0.7072 -117.6991 343.7662)" fill="#EBEBEB" width="1.99" height="3.574"/>
			
				<rect x="356.74" y="310.686" transform="matrix(0.7072 -0.707 0.707 0.7072 -116.1796 344.3957)" fill="#EBEBEB" width="1.99" height="3.574"/>
			
				<rect x="358.26" y="309.167" transform="matrix(0.7072 -0.707 0.707 0.7072 -114.6602 345.0254)" fill="#EBEBEB" width="1.99" height="3.574"/>
			
				<rect x="359.78" y="307.647" transform="matrix(0.7072 -0.707 0.707 0.7072 -113.1407 345.6548)" fill="#EBEBEB" width="1.99" height="3.574"/>
			
				<rect x="361.299" y="306.127" transform="matrix(0.7072 -0.707 0.707 0.7072 -111.6211 346.2843)" fill="#EBEBEB" width="1.99" height="3.574"/>
			
				<rect x="362.819" y="304.608" transform="matrix(0.7074 -0.7069 0.7069 0.7074 -110.1088 346.8318)" fill="#EBEBEB" width="1.989" height="3.574"/>
			
				<rect x="364.339" y="303.088" transform="matrix(0.7072 -0.707 0.707 0.7072 -108.5822 347.5435)" fill="#EBEBEB" width="1.99" height="3.574"/>
			
				<rect x="365.859" y="301.567" transform="matrix(0.7072 -0.707 0.707 0.7072 -107.0627 348.1729)" fill="#EBEBEB" width="1.99" height="3.574"/>
			
				<rect x="367.379" y="300.048" transform="matrix(0.7074 -0.7069 0.7069 0.7074 -105.5513 348.7204)" fill="#EBEBEB" width="1.989" height="3.574"/>
			
				<rect x="368.899" y="298.528" transform="matrix(0.7072 -0.707 0.707 0.7072 -104.0238 349.4321)" fill="#EBEBEB" width="1.99" height="3.574"/>
			
				<rect x="303.325" y="227.589" transform="matrix(0.7072 -0.707 0.707 0.7072 -73.069 282.3039)" fill="#EBEBEB" width="1.99" height="3.573"/>
			
				<rect x="304.845" y="226.069" transform="matrix(0.7071 -0.7071 0.7071 0.7071 -71.54 282.9987)" fill="#EBEBEB" width="1.99" height="3.574"/>
			
				<rect x="306.365" y="224.549" transform="matrix(0.7072 -0.707 0.707 0.7072 -70.0302 283.5629)" fill="#EBEBEB" width="1.99" height="3.574"/>
			
				<rect x="307.885" y="223.029" transform="matrix(0.7072 -0.707 0.707 0.7072 -68.5106 284.1925)" fill="#EBEBEB" width="1.99" height="3.574"/>
			
				<rect x="309.404" y="221.509" transform="matrix(0.7071 -0.7071 0.7071 0.7071 -66.9804 284.8873)" fill="#EBEBEB" width="1.99" height="3.574"/>
			
				<rect x="310.924" y="219.989" transform="matrix(0.7072 -0.707 0.707 0.7072 -65.4716 285.4515)" fill="#EBEBEB" width="1.99" height="3.574"/>
			
				<rect x="312.444" y="218.47" transform="matrix(0.7072 -0.707 0.707 0.7072 -63.9521 286.0811)" fill="#EBEBEB" width="1.99" height="3.574"/>
			
				<rect x="313.964" y="216.95" transform="matrix(0.7071 -0.7071 0.7071 0.7071 -62.4207 286.7761)" fill="#EBEBEB" width="1.99" height="3.574"/>
			
				<rect x="315.484" y="215.43" transform="matrix(0.7072 -0.707 0.707 0.7072 -60.9131 287.3401)" fill="#EBEBEB" width="1.99" height="3.574"/>
			
				<rect x="317.004" y="213.91" transform="matrix(0.7072 -0.707 0.707 0.7072 -59.3937 287.9698)" fill="#EBEBEB" width="1.99" height="3.574"/>
			
				<rect x="318.523" y="212.39" transform="matrix(0.7071 -0.7071 0.7071 0.7071 -57.8612 288.6647)" fill="#EBEBEB" width="1.99" height="3.574"/>
			
				<rect x="320.044" y="210.87" transform="matrix(0.7071 -0.7071 0.7071 0.7071 -56.3412 289.2942)" fill="#EBEBEB" width="1.989" height="3.574"/>
			
				<rect x="321.563" y="209.351" transform="matrix(0.7072 -0.707 0.707 0.7072 -54.8352 289.8584)" fill="#EBEBEB" width="1.99" height="3.574"/>
			
				<rect x="323.083" y="207.831" transform="matrix(0.7071 -0.7071 0.7071 0.7071 -53.3016 290.5533)" fill="#EBEBEB" width="1.99" height="3.574"/>
			
				<rect x="324.603" y="206.31" transform="matrix(0.7071 -0.7071 0.7071 0.7071 -51.7817 291.1828)" fill="#EBEBEB" width="1.99" height="3.574"/>
			
				<rect x="326.123" y="204.791" transform="matrix(0.7072 -0.707 0.707 0.7072 -50.2768 291.7471)" fill="#EBEBEB" width="1.99" height="3.574"/>
			
				<rect x="301.789" y="229.124" transform="matrix(0.7071 -0.7071 0.7071 0.7071 -74.5956 281.7331)" fill="#EBEBEB" width="1.99" height="3.574"/>
			
				<rect x="332.382" y="202.676" transform="matrix(0.7069 0.7074 -0.7074 0.7069 242.3531 -175.8788)" fill="#EBEBEB" width="1.989" height="3.574"/>
			
				<rect x="333.902" y="204.196" transform="matrix(0.7069 0.7074 -0.7074 0.7069 243.8736 -176.5082)" fill="#EBEBEB" width="1.989" height="3.574"/>
			
				<rect x="335.422" y="205.716" transform="matrix(0.707 0.7072 -0.7072 0.707 245.3275 -177.1223)" fill="#EBEBEB" width="1.99" height="3.574"/>
			
				<rect x="336.942" y="207.236" transform="matrix(0.7069 0.7074 -0.7074 0.7069 246.9149 -177.7675)" fill="#EBEBEB" width="1.989" height="3.574"/>
			
				<rect x="338.461" y="208.756" transform="matrix(0.7069 0.7074 -0.7074 0.7069 248.4356 -178.3969)" fill="#EBEBEB" width="1.99" height="3.574"/>
			
				<rect x="339.981" y="210.275" transform="matrix(0.7072 0.707 -0.707 0.7072 249.7526 -178.9792)" fill="#EBEBEB" width="1.99" height="3.574"/>
			
				<rect x="341.501" y="211.795" transform="matrix(0.7069 0.7074 -0.7074 0.7069 251.4767 -179.6561)" fill="#EBEBEB" width="1.99" height="3.574"/>
			
				<rect x="343.021" y="213.316" transform="matrix(0.7069 0.7074 -0.7074 0.7069 252.9974 -180.2856)" fill="#EBEBEB" width="1.99" height="3.574"/>
			
				<rect x="320.185" y="190.478" transform="matrix(0.707 0.7072 -0.7072 0.707 230.0865 -170.8108)" fill="#EBEBEB" width="1.99" height="3.574"/>
			
				<rect x="321.705" y="191.998" transform="matrix(0.707 0.7072 -0.7072 0.707 231.6066 -171.4402)" fill="#EBEBEB" width="1.989" height="3.574"/>
			
				<rect x="323.224" y="193.519" transform="matrix(0.7069 0.7074 -0.7074 0.7069 233.1908 -172.0854)" fill="#EBEBEB" width="1.99" height="3.574"/>
			
				<rect x="324.744" y="195.038" transform="matrix(0.707 0.7072 -0.7072 0.707 234.6471 -172.6994)" fill="#EBEBEB" width="1.99" height="3.574"/>
			
				<rect x="326.264" y="196.558" transform="matrix(0.7069 0.7074 -0.7074 0.7069 236.2319 -173.3446)" fill="#EBEBEB" width="1.989" height="3.574"/>
			
				<rect x="327.784" y="198.078" transform="matrix(0.707 0.7072 -0.7072 0.707 237.6878 -173.9583)" fill="#EBEBEB" width="1.99" height="3.574"/>
			
				<rect x="329.303" y="199.598" transform="matrix(0.707 0.7072 -0.7072 0.707 239.208 -174.588)" fill="#EBEBEB" width="1.99" height="3.574"/>
			
				<rect x="330.824" y="201.118" transform="matrix(0.7069 0.7074 -0.7074 0.7069 240.7938 -175.2333)" fill="#EBEBEB" width="1.989" height="3.574"/>
		</g>
	</g>
</svg>