<?xml version="1.0" encoding="utf-8"?>
<!DOCTYPE svg PUBLIC "-//W3C//DTD SVG 1.1//EN" "http://www.w3.org/Graphics/SVG/1.1/DTD/svg11.dtd">
<svg version="1.1" xmlns="http://www.w3.org/2000/svg" xmlns:xlink="http://www.w3.org/1999/xlink" xml:space="preserve">
  <g id="floor.4-x:412.71-y:206.59-w:201.73-h:118.52">
		<g id="hall-x:458.01-y:206.64-w:152.82-h:118.47">
			<path fill="#EBEBEB" d="M608.197,287.498l-0.009,0.01l-1.076-1.073l-2.095,2.097l-7.458-7.458v-0.005h-14.801h-1.28     c0,0-2.382-0.555-3.611-3.009c0,0-0.401-0.592-0.475-2.205c0,0-0.105-0.684,0.62-2.466c0,0,0.34-0.851,0.492-2.188     c0,0,0.23-1.11-0.227-3.301c0,0-0.601-2.164-1.974-4.26h-15.538v-0.076h-9.216v-4.534v-0.384v-8.631h3.014h0.929h8.637h5.516     v-7.984v-1.939h-5.516v1.939h-8.637c0-0.74,0-1.491,0-2.235v-7.403c0-0.763,0-1.213,0-1.214     c-5.032-5.789-11.374-10.18-18.836-12.786l-1.839-1.623v-10.125h-8.195v0.52h-9.274v-0.52l-8.223,0.149l0.001,9.535l-2.537,2.595     c-8.182,2.528-16.171,7.447-20.613,11.905v17.123l-2.083,2.063v6.789h17.135v31.063h-43.014v2.917h43.014v4.9l-2.572,2.573     h-6.325l2.36,2.276l1.317,1.426v5.596v9.327v2.523l6.035,5.705h14.479l5.688-6.144l3.429-0.1l-0.008-17.415h-4.012l-3.278-2.996     h-1.694l-3.394-3.394l-0.036-12.595l2.053-2.053h22.547l1.88,1.879l0.031,11.333l0.005,2.052l-0.018,8.999l13.623,12.677h8.26     v-15.848h0.739h0.013h14.413c0,0,1.363-1.001,2.385-3.612c0,0,0.654-1.322,0.454-3.009c0,0-0.022-0.958-0.996-3.166     c0,0-0.542-1.373-0.507-3.07c0,0-0.071-1.183,0.686-2.378c0,0,1.122-1.991,2.854-2.243l1.058,0.008v0.013h13.839l9.395,9.396     l1.778-1.78v0.001l0.78-0.78l0.891,0.893l1.647-1.646L608.197,287.498z M513.219,301.414c2.413,0,4.369,1.956,4.369,4.37v12.053     c0,2.413-1.956,4.368-4.369,4.368h-8.134c-2.413,0-4.369-1.955-4.369-4.368v-10.682h1.439l2.06,2.062l3.855-3.856l-2.022-2.021     v-1.925H513.219z M532.982,270.878l-3.118-1.31l-1.271,3.024c-0.739,0.137-1.501,0.208-2.279,0.208     c-6.92,0-12.531-5.611-12.531-12.531c0-0.473,0.027-0.942,0.079-1.401l0.674-0.421l2.899,1.219l2.183-5.194l-2.808-1.182     l-0.074-1.099c2.299-2.722,5.737-4.453,9.579-4.453c4.825,0,9.014,2.729,11.106,6.728l-1.061,2.525l2.269,0.953     c0.142,0.754,0.217,1.531,0.217,2.325C538.845,264.738,536.504,268.66,532.982,270.878z M575.376,284.895     c0,0-0.876,1.518-0.795,3.502c0,0,0.044,1.772,0.29,3.395c0,0,0.164,0.707,0.361,2.238c0,0,0.217,1.482-0.759,2.817     c0,0-1.184,1.447-2.599,1.444h-8.882c0,0-2.049,0.055-2.049-1.174v-1.924l-9.393-0.023v-0.648h2.049v-6.313h-2.049v-9.941     l4.647-4.648h4.569v-3.073c0.501-1.192,1.555-3.078,3.309-3.419h7.15c0,0,3.158,0.489,3.44,4.114c0,0,0.062,1.05-0.3,2.242     c0,0-0.289,0.794-0.289,2.455c0,0-0.107,1.34,0.604,2.776c0,0,1.169,1.866,1.274,3.795     C575.953,282.512,576.084,283.674,575.376,284.895z"/>
		</g>
		<g id="stores-x:412.71-y:206.59-w:192.85-h:94.86">
			<polygon id="store.34" fill="#FFE3B4" points="569.646,233.234 569.646,231.925 565.408,231.925 565.408,235.261      564.129,235.261 564.129,239.56 565.408,239.56 565.564,239.56 569.053,239.56 569.646,239.56 577.343,239.56 577.343,233.234         "/>
			<rect id="store.33" x="492.195" y="278.142" fill="#FFE3B4" width="8.399" height="4.663"/>
			<polygon id="store.32" fill="#FFE3B4" points="493.373,283.493 493.373,286.45 497.85,286.45 497.85,287.244 500.595,287.244      500.595,283.493    "/>
			<polygon id="store.31" fill="#FFE3B4" points="517.546,280.771 515.809,280.771 513.631,282.956 513.631,287.699      517.546,287.699    "/>
			<rect id="store.30" x="518.188" y="280.771" fill="#FFE3B4" width="3.234" height="6.928"/>
			<rect id="store.29" x="522.012" y="280.771" fill="#FFE3B4" width="4.708" height="6.928"/>
			<rect id="store.28" x="527.425" y="280.771" fill="#FFE3B4" width="4.673" height="6.928"/>
			<polygon id="store.27" fill="#FFE3B4" points="536.788,280.771 532.919,280.771 532.919,287.699 538.792,287.699 538.792,282.78         "/>
			<rect id="store.26" x="530.967" y="289.341" fill="#FFE3B4" width="8.057" height="4.055"/>
			<polygon id="store.25" fill="#FFE3B4" points="520.729,289.367 517.52,289.367 513.544,289.367 513.544,292.138 513.544,294.407      516.762,297.887 517.52,297.887 517.52,292.042 520.729,292.042    "/>
			<polygon id="store.24" fill="#FFE3B4" points="466.393,270.287 466.393,267.145 446.808,267.145 438.217,258.587      427.333,257.422 417.502,267.145 412.707,267.145 412.707,283.828 412.707,287.438 412.707,289.171 422.816,289.171      422.816,287.438 449.175,287.438 449.175,296.683 457.553,296.683 457.553,287.438 488.173,287.438 488.173,278.767      491.432,278.767 491.432,277.492 500.595,277.492 500.595,270.287    "/>
			<polygon id="store.23" fill="#FFE3B4" points="560.941,273.746 560.941,278.269 563.931,278.269 563.931,279.409      564.402,279.409 564.402,285.665 569.516,285.665 569.516,279.409 569.516,278.269 569.516,277.678 569.516,274.532      569.516,273.746    "/>
			<polygon id="store.22" fill="#FFE3B4" points="562.711,286.214 562.711,286.608 560.941,286.608 560.941,294.829      562.711,294.829 565.504,294.829 569.516,294.829 569.516,286.214    "/>
			<rect id="store.21" x="551.934" y="283.775" fill="#FFE3B4" width="6.962" height="3.924"/>
			<polygon id="store.20" fill="#FFE3B4" points="558.896,273.914 556.457,273.914 556.457,273.93 556.44,273.914 553.919,276.435      556.457,278.977 558.896,278.977    "/>
			<polygon id="store.19" fill="#FFE3B4" points="556.191,279.292 553.636,276.734 551.934,278.437 551.934,283.147      558.896,283.147 558.896,279.292    "/>
			<polygon id="store.18" fill="#FFE3B4" points="603.625,274.721 601.888,272.985 600.555,274.317 586.474,274.317      586.474,280.769 597.617,280.769 597.661,280.685    "/>
			<polygon id="store.17" fill="#FFE3B4" points="605.564,293.47 604.809,292.692 602.557,294.916 586.474,294.916 586.474,301.451      597.617,301.451 597.661,301.367    "/>
			<polygon id="store.16" fill="#FFE3B4" points="600.149,263.681 586.474,263.681 586.474,273.746 600.482,273.746      605.443,269.015    "/>
			<polygon id="store.15" fill="#FFE3B4" points="596.31,284.222 596.31,284.221 586.474,284.221 586.474,294.52 602.394,294.52      604.518,292.431    "/>
			<path id="store.14" fill="#FFE3B4" d="M507.535,217.704l1.366-1.435v-9.532l-5.698,1.513l2.365,10.74     c0.661-0.199,0.221-0.089,0.892-0.259L507.535,217.704z"/>
			<path id="store.13" fill="#FFE3B4" d="M484.646,219.616c-2.913,2.135-5.292,4.278-7.792,6.872v3.342h3.042v0.924h5.702     l0.019,0.019c1.346-1.316,2.426-2.315,3.917-3.468L484.646,219.616z"/>
			<path id="store.12" fill="#FFE3B4" d="M488.338,217.149c-1.122,0.71-1.984,1.242-3.056,2.017l4.841,7.71     c1.053-0.805,1.903-1.357,3.02-2.073L488.338,217.149z"/>
			<path id="store.11" fill="#FFE3B4" d="M495.031,219.102l-2.74,1.617l-2.756-4.37c-0.246,0.149-0.373,0.223-0.619,0.374     l4.82,7.649c1.112-0.7,1.954-1.208,3.126-1.817L495.031,219.102z"/>
			<path id="store.10" fill="#FFE3B4" d="M497.156,212.364c-2.64,1.12-4.667,2.214-7.109,3.672l2.438,3.872l2.888-1.657l2.091,3.997     c1.182-0.606,2.006-1.038,3.241-1.546L497.156,212.364z"/>
			<path id="store.9" fill="#FFE3B4" d="M502.741,210.362c-1.752,0.556-3.176,1.037-4.86,1.738l3.532,8.347     c1.24-0.499,2.209-0.874,3.497-1.271L502.741,210.362z"/>
			<path id="store.8" fill="#FFE3B4" d="M541.945,208.369l-6.943-1.78v9.952l1.767,1.584c0.688,0.242,1.092,0.399,1.766,0.672     L541.945,208.369z"/>
			<path id="store.7" fill="#FFE3B4" d="M550.325,214.02c-0.918-0.458-2.026-0.984-3.156-1.48l-4.211,8.341     c1.088,0.587,2.151,1.219,3.006,1.789L550.325,214.02z"/>
			<path id="store.6" fill="#FFE3B4" d="M554.946,216.598c-1.337-0.837-2.463-1.443-3.866-2.178l-4.554,8.609     c1.118,0.746,1.95,1.358,2.99,2.198L554.946,216.598z"/>
			<path id="store.5" fill="#FFE3B4" d="M546.389,212.207c-1.658-0.712-2.714-1.06-4.444-1.628l-2.761,8.513     c1.262,0.524,1.852,0.81,3.048,1.44L546.389,212.207z"/>
			<path id="store.4" fill="#FFE3B4" d="M555.581,217.023l-5.548,8.601c1.876,1.536,3.625,3.22,5.225,5.034h3.848v-0.9h8.589     l0.001-2.403l0.243-0.05C564.285,223.374,560.13,219.914,555.581,217.023z"/>
			<polygon id="store.3" fill="#FFE3B4" points="492.195,291.161 492.195,297.778 498.173,297.778 500.472,295.466 500.472,291.175         "/>
			<polygon id="store.2" fill="#FFE3B4" points="479.252,241.657 479.252,239.965 466.393,239.965 466.393,249.861 478.375,249.861      479.628,249.861 483.593,249.861 485.678,247.745 485.678,241.657    "/>
			<rect id="store.1_1_" x="479.896" y="237.461" fill="#FFE3B4" width="5.781" height="3.605"/>
			<rect id="store.0_1_" x="479.896" y="232.721" fill="#FFE3B4" width="5.781" height="3.929"/>
		</g>
		<g id="icons-x:460.18-y:232.26-w:154.26-h:75.88">
			<g>
				<circle fill-rule="evenodd" clip-rule="evenodd" fill="#ED3739" cx="471.024" cy="293.844" r="2.024"/>
				<g>
					<path fill="#FFFFFF" d="M471.024,292.937c0.142,0,0.255-0.113,0.255-0.255s-0.114-0.256-0.255-0.256       c-0.137,0-0.251,0.113-0.251,0.256S470.888,292.937,471.024,292.937z"/>
					<path fill="#FFFFFF" d="M471.847,293.582l-0.654-0.536c-0.051-0.042-0.109-0.061-0.169-0.061s-0.119,0.019-0.17,0.061       l-0.653,0.536c-0.032,0.027-0.041,0.068-0.023,0.101c0.023,0.036,0.064,0.049,0.101,0.031l0.43-0.188       c0.005-0.004,0.01-0.004,0.018,0c0.005,0.004,0.005,0.015,0.005,0.019l-0.187,1.602c-0.006,0.072,0.045,0.104,0.082,0.112       c0.032,0.01,0.096,0.004,0.123-0.068l0.261-0.951c0-0.006,0.005-0.01,0.014-0.01c0.009,0,0.014,0.004,0.018,0.01l0.26,0.951       c0.024,0.072,0.087,0.078,0.124,0.068c0.031-0.008,0.086-0.041,0.077-0.112l-0.188-1.602c0-0.004,0-0.015,0.01-0.019       c0.004-0.004,0.008-0.004,0.018,0l0.426,0.188c0.036,0.018,0.082,0.004,0.1-0.031       C471.889,293.65,471.879,293.609,471.847,293.582z"/>
				</g>
			</g>
			<g>
				<circle fill-rule="evenodd" clip-rule="evenodd" fill="#ED3739" cx="462.209" cy="293.844" r="2.025"/>
				<g>
					<path fill="#FFFFFF" d="M463.034,293.581l-0.655-0.535c-0.05-0.043-0.11-0.062-0.169-0.062c-0.06,0-0.119,0.019-0.169,0.062       l-0.654,0.535c-0.032,0.026-0.04,0.068-0.022,0.102c0.022,0.036,0.064,0.049,0.1,0.03l0.494-0.22c0.005,0,0.009,0,0.019,0       c0.005,0.004,0.009,0.01,0.009,0.015l0.018,0.059c0,0.008,0,0.014,0,0.018l-0.279,0.896c0,0.01,0,0.019,0.005,0.028       c0.008,0.008,0.017,0.014,0.026,0.014h0.22c0.018,0,0.032,0.013,0.032,0.031l0.096,0.613c0.013,0.073,0.073,0.096,0.105,0.096       c0.036,0,0.091-0.022,0.105-0.096l0.097-0.613c0.004-0.018,0.017-0.031,0.032-0.031h0.219c0.009,0,0.017-0.006,0.027-0.014       c0.006-0.009,0.01-0.019,0.006-0.028l-0.28-0.896c0-0.004,0-0.01,0-0.018l0.018-0.059c0.005-0.004,0.01-0.01,0.015-0.015       c0.004,0,0.008,0,0.018,0l0.488,0.22c0.037,0.019,0.083,0.005,0.102-0.03C463.074,293.649,463.064,293.607,463.034,293.581z"/>
					<path fill="#FFFFFF" d="M462.21,292.931c0.142,0,0.256-0.113,0.256-0.25c0-0.144-0.114-0.256-0.256-0.256       s-0.257,0.112-0.257,0.256C461.953,292.818,462.068,292.931,462.21,292.931z"/>
				</g>
			</g>
			<g>
				<circle fill-rule="evenodd" clip-rule="evenodd" fill="#ED3739" cx="539.874" cy="255.487" r="2.025"/>
				<g>
					<circle fill="#FFFFFF" cx="539.646" cy="254.397" r="0.197"/>
					<path fill="#FFFFFF" d="M540.987,254.438h-0.498c-0.1,0-0.145,0.029-0.186,0.069l-0.451,0.455l-0.014,0.015l-0.042-0.215       c-0.018-0.083-0.084-0.124-0.151-0.124c-0.066,0-0.132,0.041-0.151,0.124l-0.131,0.693l-0.26,0.263       c-0.022,0.021-0.052,0.039-0.088,0.039h-0.276c-0.197,0-0.361,0.199-0.361,0.384c0,0.199,0.152,0.364,0.347,0.382h0h0.509       c0.113,0,0.2-0.076,0.253-0.125l1.097-1.073c0.076-0.073,0.112-0.117,0.22-0.117h0.181c0.207,0,0.38-0.167,0.386-0.373       c0-0.006,0-0.012,0-0.019C541.368,254.611,541.194,254.434,540.987,254.438z M540.989,255.01h-0.241       c-0.079,0-0.158,0.022-0.203,0.066l-1.191,1.175c-0.038,0.036-0.075,0.068-0.146,0.068h-0.445c-0.099,0-0.18-0.086-0.18-0.18       c0-0.097,0.069-0.169,0.159-0.178c0.01,0,0.021-0.001,0.032-0.001h0.3c0.041,0,0.075-0.021,0.1-0.047l0.908-0.907l0.28-0.281       c0.06-0.059,0.095-0.09,0.21-0.09h0.414c0.101,0,0.186,0.081,0.189,0.182c0,0.003,0,0.008,0,0.011       C541.173,254.927,541.089,255.01,540.989,255.01z"/>
					<path fill="#FFFFFF" d="M541.158,255.82l-0.8,0.083c-0.004,0-0.007,0-0.013,0.001c-0.074,0.019-0.061,0.116,0.008,0.122       l0.277,0.034c0.068,0.009,0.089,0.068,0.054,0.114l-0.375,0.487c-0.03,0.039-0.009,0.076,0.008,0.094       c0.017,0.017,0.055,0.037,0.092,0.007l0.489-0.375c0.046-0.036,0.103-0.014,0.111,0.054l0.034,0.277       c0.016,0.071,0.115,0.083,0.125-0.001l0.081-0.803c0.002-0.025-0.006-0.05-0.024-0.069       C541.207,255.827,541.185,255.817,541.158,255.82z"/>
				</g>
			</g>
			<g>
				<path fill-rule="evenodd" clip-rule="evenodd" fill="#ED3739" d="M509.261,302.898c0,1.118-0.907,2.023-2.024,2.023      c-1.12,0-2.026-0.905-2.026-2.023c0-1.12,0.906-2.026,2.026-2.026C508.354,300.872,509.261,301.778,509.261,302.898z"/>
				<g>
					<circle fill="#FFFFFF" cx="507.008" cy="301.806" r="0.198"/>
					<path fill="#FFFFFF" d="M508.349,301.847h-0.497c-0.102,0-0.146,0.028-0.188,0.071l-0.451,0.454l-0.015,0.014l-0.041-0.216       c-0.017-0.081-0.083-0.122-0.15-0.122c-0.069,0-0.133,0.041-0.151,0.122l-0.132,0.695l-0.261,0.261       c-0.022,0.023-0.05,0.042-0.086,0.042H506.1c-0.196,0-0.361,0.197-0.361,0.38c0,0.2,0.153,0.365,0.348,0.382c0,0,0,0,0,0h0.508       c0.113,0,0.201-0.075,0.254-0.125l1.097-1.072c0.077-0.074,0.112-0.117,0.219-0.117h0.183c0.207,0,0.379-0.167,0.385-0.373       c0-0.007,0-0.013,0-0.02C508.73,302.019,508.556,301.844,508.349,301.847z M508.352,302.419h-0.242       c-0.079,0-0.157,0.021-0.202,0.065l-1.192,1.176c-0.037,0.036-0.075,0.067-0.147,0.067h-0.445c-0.099,0-0.178-0.083-0.178-0.18       c0-0.096,0.068-0.167,0.157-0.177c0.011-0.001,0.021-0.001,0.033-0.001h0.3c0.04,0,0.074-0.022,0.099-0.049l0.908-0.905       l0.28-0.283c0.06-0.058,0.095-0.089,0.21-0.089h0.415c0.101,0,0.185,0.082,0.188,0.181c0,0.004,0,0.007,0,0.012       C508.534,302.335,508.45,302.419,508.352,302.419z"/>
					<path fill="#FFFFFF" d="M508.519,303.229l-0.799,0.082c-0.004,0-0.007,0.001-0.012,0.003c-0.074,0.019-0.061,0.113,0.007,0.123       l0.277,0.034c0.067,0.007,0.089,0.067,0.054,0.112l-0.375,0.487c-0.028,0.039-0.009,0.076,0.009,0.094       c0.016,0.016,0.054,0.036,0.092,0.007l0.488-0.374c0.046-0.036,0.104-0.015,0.112,0.053l0.034,0.277       c0.016,0.069,0.116,0.083,0.124-0.002l0.082-0.804c0.003-0.024-0.006-0.048-0.023-0.067       C508.569,303.235,508.545,303.228,508.519,303.229z"/>
				</g>
			</g>
			<g>
				<circle fill-rule="evenodd" clip-rule="evenodd" fill="#ED3739" cx="490.559" cy="285.743" r="2.025"/>
				<path fill-rule="evenodd" clip-rule="evenodd" fill="#FFFFFF" d="M491.881,284.597h-0.505h-0.002h-0.105h-0.003h-0.001h-0.002      l-0.003,0.001h-0.002l0,0h-0.002l-0.002,0.002l0,0h-0.002h-0.001l-0.004,0.001l0,0h-0.001h-0.002l0,0l-0.001,0.001h0      l-0.001,0.001l-0.002,0.001l0,0h-0.001l-0.004,0.002l0,0c-0.005,0.002-0.011,0.006-0.015,0.009l0,0l-0.001,0.001l0,0      l-0.001,0.003l-0.002,0.002l-0.002,0.002l-0.001,0.001l0,0c-0.004,0.005-0.007,0.008-0.011,0.015l-0.001,0.004l0,0l-0.001,0.002      v0.002l0,0l-0.001,0l0,0l0,0.002l0,0l0,0.001l0,0l0,0.004l-0.001,0.002l0,0l-0.001,0.003l0,0v0.001v0.002l0,0v0.003      l-0.001,0.001v0.001v0.003v0.001v0.105v0.001v0.322h-0.321h-0.002h-0.105h-0.002h-0.002h-0.002h-0.003h-0.002l0,0h-0.001      l-0.002,0.001l0,0h-0.001l-0.002,0.001l-0.003,0.002h-0.002h-0.001h0h-0.001l0,0l-0.001,0.001l-0.002,0.001l-0.002,0.001      l-0.003,0.002c-0.006,0.002-0.012,0.006-0.016,0.009l0,0l-0.001,0.001l-0.002,0.003l-0.002,0.001l-0.002,0.002l0,0      c-0.004,0.005-0.009,0.011-0.011,0.017l0,0l-0.002,0.002l0,0l0,0.003l0,0l-0.001,0.001l0,0l0,0.001l0,0l-0.001,0.002v0.002l0,0      l-0.001,0.001l0,0l-0.001,0.004v0.002l0,0v0.001l0,0l-0.001,0.004l0,0v0.001v0.001l0,0v0.003v0.001v0.003v0.001v0.105v0.001      v0.323h-0.321h-0.002h-0.107h-0.001h-0.001h-0.002h-0.001h-0.003h-0.001l-0.001,0.001h0h-0.003l-0.001,0.001h-0.003l0,0      l-0.002,0.002l0,0h-0.002h-0.002l0,0l-0.001,0.001l0,0l-0.002,0.001l-0.001,0.001h0h-0.003      c-0.006,0.005-0.011,0.008-0.016,0.012l-0.002,0.001l0,0l-0.001,0l-0.002,0.003h-0.002l-0.001,0.001      c-0.004,0.006-0.008,0.011-0.01,0.018l-0.001,0.003l-0.001,0.002l0,0.001l0,0l-0.001,0.003l0,0l-0.001,0.002l0,0.002h-0.001l0,0      l0,0.005v0.001v0.001l0,0.001l0,0.002v0.002l0,0l0,0.001l0,0v0.002v0.001v0.002v0.003v0.105v0.002v0.322h-0.322h-0.002h-0.104      h-0.002h-0.002h-0.002h-0.002h-0.001h-0.002h-0.002l0,0h-0.002l0,0l-0.001,0.001l-0.004,0.001l0,0l-0.001,0.001h-0.003h-0.001      l0,0h-0.002l-0.001,0.003l0,0l-0.001,0.001l0,0l-0.004,0.001c-0.006,0.003-0.011,0.006-0.016,0.01l-0.001,0.002l-0.001,0.001      l-0.002,0.003l-0.001,0l-0.002,0.001l0,0c-0.003,0.005-0.007,0.01-0.009,0.017l0,0l-0.002,0.002l0,0l-0.001,0.003l0,0      l-0.001,0.001v0.001l-0.001,0.001v0.003l0,0l-0.001,0.002l0,0l-0.001,0.002v0.002l-0.001,0.001l0,0l-0.001,0.002v0.001l0,0      v0.002l0,0l-0.001,0.004v0.001v0.002v0.001v0.107v0.001v0.324h-0.429c-0.043,0-0.078,0.033-0.078,0.076v0.107      c0,0.044,0.035,0.079,0.078,0.079h0.506h0.002h0.104h0.002h0.002h0.003l0.001-0.001h0.002h0.001l0.002-0.001h0.002h0.002      l0.003-0.001h0.002h0.001l0.002-0.002l0.002-0.001l0.002-0.001l0,0h0.001l0.003-0.001l0,0c0.005-0.004,0.011-0.007,0.016-0.011      l0.001-0.001l0,0l0.001-0.002l0.003-0.002l0.002-0.001l0.001-0.001l0,0c0.004-0.005,0.008-0.011,0.011-0.016l0.001-0.003l0,0      l0.001-0.001l0,0l0.001-0.003v-0.001v-0.002l0,0l0.001-0.003l0.001-0.001l0,0l0.001-0.004v-0.001l0,0v-0.002l0,0l0.001-0.002      l0,0v-0.003v-0.001l0,0v-0.001v-0.003v-0.002v-0.001v-0.107v-0.001v-0.164v-0.036l0,0v-0.076c0-0.024,0.022-0.045,0.047-0.045      h0.169h0.002h0.104h0.001h0.107h0.002h0.001h0.002h0.001h0.001h0.002h0.001l0,0l0.001-0.001l0,0h0.002l0.002-0.001l0.003-0.001      l0,0h0.003l0,0h0.001l0.002-0.001l0,0h0.001l0.002-0.002l0.002-0.001l0.004,0c0.006-0.002,0.01-0.006,0.015-0.011l0,0      l0.001-0.002l0,0l0.002-0.001l0.002-0.003l0.001-0.001l0,0h0.001c0.003-0.005,0.007-0.008,0.01-0.016l0,0l0.001-0.002l0-0.002      l0,0l0.001-0.002l0.001-0.002l0,0l0.001-0.001v-0.001v-0.002l0.001-0.001l0.001-0.003v-0.003v-0.001l0.001-0.002l0,0v-0.001l0,0      v-0.003v-0.001l0.001-0.003v-0.002v-0.001v-0.024c-0.001-0.004-0.001-0.005-0.001-0.01v-0.35c0-0.025,0.021-0.045,0.045-0.045      h0.169h0.007h0.101h0.002h0.105h0.002h0.002h0.002h0.002h0.002l0.002-0.002l0,0h0.002l0,0l0.002-0.001h0.002h0.004l0.002-0.001      h0.002h0.001l0,0l0.002-0.002l0,0h0.002h0.001l0,0l0.004-0.002c0.006-0.003,0.011-0.007,0.016-0.011l0,0l0.001-0.002      l0.001-0.001l0.002-0.005h0.001l0.001-0.001l0,0c0.004-0.004,0.008-0.009,0.011-0.015l0.002-0.004l0,0v-0.001l0,0l0.001-0.002      l0-0.002l0,0l0.001-0.001l0,0v-0.003h0.001l0,0l0-0.004l0-0.003l0-0.001l0,0v-0.001l0,0l0-0.003l0,0l0-0.001l0,0v-0.001v-0.001      v-0.003v-0.002v-0.029v-0.005v-0.35c0-0.024,0.021-0.045,0.045-0.045h0.17c0.003,0,0.005,0,0.008,0h0.098h0.003h0.105h0.002      h0.003h0.001h0.002h0.002h0.002l0,0h0.001h0.001l0.001-0.001l0,0h0.002l0.004-0.002l0.001-0.001h0.002h0.001h0l0.002-0.001      l0.001,0l0.001-0.001l0.003-0.002l0,0c0.006-0.002,0.012-0.006,0.016-0.009l0,0l0.001-0.002l0,0l0.002-0.002l0.002-0.001      l0.002-0.001l0,0l0.001-0.002c0.004-0.005,0.008-0.01,0.011-0.015l0,0l0.001-0.004l0.001-0.002l0,0l0-0.001l0-0.003l0,0l0.001,0      l0,0l0-0.001v-0.003l0.001-0.002l0-0.004l0,0l0.001-0.003l0,0l0,0l0-0.003l0,0v-0.002v0l0-0.003v-0.001v-0.105v-0.001v-0.166      v-0.036l0,0v-0.041v-0.005v-0.03c0-0.025,0.02-0.046,0.045-0.046h0.036h0.041l0.001-0.001h0.025h0.281      c0.044,0,0.079-0.034,0.079-0.077v-0.105C491.959,284.633,491.925,284.597,491.881,284.597z"/>
			</g>
			<g>
				<circle fill-rule="evenodd" clip-rule="evenodd" fill="#ED3739" cx="558.099" cy="238.931" r="2.025"/>
				<path fill-rule="evenodd" clip-rule="evenodd" fill="#FFFFFF" d="M559.42,237.784h-0.505h-0.002h-0.105h-0.002h-0.001      l-0.002,0.001H558.8h-0.002l0,0h-0.002h-0.002l0,0h-0.002l-0.002,0.002l-0.003,0.001l0,0h-0.002l-0.002,0.001l0,0h-0.001l0,0      h-0.002l-0.001,0.001l0,0l-0.002,0.001l-0.004,0.002l0,0c-0.006,0.003-0.01,0.007-0.015,0.01l0,0l-0.001,0.002l0,0h-0.001      l-0.003,0.002l-0.001,0.001l-0.001,0.004l0,0c-0.003,0.003-0.008,0.008-0.01,0.013l-0.001,0.004l-0.001,0.002h-0.001      l-0.001,0.002l0,0v0.002l0,0l-0.001,0.002l0,0l-0.001,0.001l0,0l-0.001,0.004v0.002l0,0v0.002l0,0l-0.001,0.002v0.001l0,0v0.004      l0,0v0.002v0.003v0.001v0.106v0.001v0.324h-0.321h-0.002H558.3h-0.002h-0.002h-0.002h-0.002h-0.002l0,0h-0.002h-0.001l0,0      h-0.002h-0.002l-0.004,0.002h-0.002l-0.002,0.001l0,0h-0.002l0,0h-0.001h-0.001l-0.002,0.003l-0.004,0.001      c-0.005,0.002-0.011,0.006-0.015,0.011l0,0h-0.002l-0.001,0.004l-0.002,0.001l-0.002,0.002l-0.001,0.001      c-0.003,0.004-0.009,0.01-0.011,0.014v0.001l-0.001,0.002l0,0v0.004l0,0l-0.001,0.001l0,0l-0.001,0.002l0,0v0.002l-0.001,0.002      l0,0l-0.001,0.001l0,0l0,0.003v0.002l0,0l0,0.002l0,0l0,0.002l0,0l0,0.001v0.003l0,0v0.001v0.002v0.002v0.002v0.104v0.002v0.322      H557.9h-0.002h-0.106h-0.001h-0.002h-0.003h-0.002l-0.001,0.001h-0.003h-0.001l0,0h-0.002h-0.002l-0.004,0.001l0,0h-0.001l0,0      h-0.002l-0.001,0.002l0,0h-0.003l0,0l-0.001,0.001l-0.001,0.001l0,0l-0.003,0.002c-0.006,0.004-0.012,0.006-0.017,0.01      l-0.001,0.001l0,0l-0.002,0.001l-0.002,0.003l-0.001,0.002l0,0c-0.005,0.005-0.008,0.01-0.011,0.017l-0.002,0.002l-0.001,0.003      v0.001l0,0l-0.001,0.002l0,0l-0.001,0.002v0.001l-0.001,0.002l0,0l-0.001,0.004v0.001l0,0v0.003l-0.002,0.002l0,0l0,0v0.003l0,0      l0,0v0.005v0.001v0.003v0.106v0.001v0.322h-0.322h-0.002h-0.105h-0.002h-0.002l-0.002,0h-0.002h-0.002h-0.002h-0.001l0,0h-0.002      l0,0h-0.002l-0.003,0.001l0,0l-0.002,0.001h-0.002l-0.001,0.001h0h-0.001h-0.002l0,0l-0.001,0.002l0,0l-0.003,0.001      c-0.006,0.003-0.011,0.006-0.017,0.011h-0.001l-0.001,0.002l-0.003,0.003l-0.001,0.001l-0.001,0.001l0,0      c-0.003,0.005-0.007,0.012-0.01,0.016l0,0l-0.002,0.003l0,0l-0.001,0.003l0,0v0.001l-0.001,0.001l-0.001,0.002v0.003l0,0v0.001      l0,0l-0.001,0.005l0,0.001v0.001l0,0l-0.001,0.001v0.003l0,0v0l0,0v0.001v0.003l0,0.002v0.002v0.106v0.002v0.32h-0.431      c-0.043,0-0.078,0.035-0.078,0.079v0.106c0,0.041,0.035,0.077,0.078,0.077h0.505h0.002h0.105h0.002h0.003h0.001h0.002h0.001      h0.002h0.002h0.002l0.002-0.001h0.003l0.002-0.001l0.001-0.001h0.002l0.002-0.001h0.002l0,0h0.001l0.004-0.003l0,0      c0.005-0.003,0.011-0.006,0.015-0.01l0.001-0.002l0,0h0.001l0.002-0.004l0.001-0.001l0.002-0.001l0,0      c0.004-0.006,0.007-0.01,0.011-0.016l0.001-0.003l0,0l0.001-0.002l0,0l0.001-0.002l0,0l0.001-0.004l0,0v-0.002l0.001-0.001l0,0      l0.002-0.004v-0.002l0,0v-0.001l0,0v-0.001v-0.002v-0.002h0v0v-0.003v-0.002V240v-0.001v-0.106v-0.003v-0.163v-0.035      l0.001-0.001v-0.076c0-0.025,0.021-0.047,0.046-0.047h0.169h0.002h0.104h0.001h0.106h0.002h0.002h0.002h0.001h0.001l0.002-0.001      h0.002l0,0h0.001l0,0l0.001-0.001h0.002h0.004l0,0h0.002l0.001-0.001l0,0l0.002-0.001l0,0l0.001-0.002h0.003l0.001-0.001      l0.003-0.001c0.006-0.004,0.012-0.006,0.016-0.011l0,0v-0.002h0.001h0.001l0.002-0.004h0.001l0,0l0.002-0.001      c0.005-0.005,0.009-0.01,0.012-0.017l0,0l0.001-0.002l0.001-0.001l0,0l0.001-0.003v-0.001l0,0l0-0.001l0,0v-0.001l0.001-0.004      l0.001-0.002l0.001-0.002v-0.002l0,0l0,0v-0.003l0,0v-0.002v-0.001l0.001-0.003v-0.001v-0.002v-0.026      c-0.001-0.002-0.001-0.006-0.001-0.008v-0.351c0-0.025,0.021-0.045,0.046-0.045h0.17h0.005h0.102h0.002h0.105h0.002h0.002h0.002      h0.002l0.002-0.001h0.002l0,0h0h0.001h0.002h0.002l0.002-0.001l0.002-0.001h0.002l0.002-0.001l0,0l0.002-0.002l0,0h0.002h0.002      l0,0l0.002-0.002c0.006-0.002,0.011-0.005,0.016-0.011l0,0l0.001-0.001l0.001-0.001l0.003-0.002l0.001-0.002l0.001-0.002h0      c0.004-0.003,0.008-0.008,0.011-0.014l0.001-0.005l0,0h0.002l0,0v-0.002l0.001-0.001l0,0l0.001-0.002l0,0v-0.001l0.001-0.003      l0,0v-0.003l0-0.002v-0.002l0,0l0-0.001l0,0l0-0.004v0l0,0l0,0v-0.002l0-0.001v-0.003v-0.001v-0.03l0-0.006v-0.35      c0-0.026,0.021-0.045,0.046-0.045h0.169c0.003,0,0.006,0,0.008,0.001h0.098h0.002h0.105h0.002l0.003-0.001h0.001h0.002h0.003      h0.001h0h0.001l0,0l0.003-0.001l0,0l0.002-0.001h0.003h0.001l0.002-0.001h0.003l0,0l0.002-0.001l0.001-0.001h0.001l0.004-0.002      l0,0c0.006-0.003,0.011-0.007,0.017-0.01l0,0l0.001-0.002l0,0l0.001-0.001l0.002-0.002l0.001-0.001l0,0l0.002-0.002      c0.004-0.004,0.007-0.009,0.01-0.016l0,0l0.002-0.003l0.001-0.001v-0.001l0-0.001l0-0.002l0,0l0.001-0.002l0,0V238.5      l0.001-0.003l0.001-0.003l0-0.002v-0.002v-0.001l0-0.001l0,0v-0.003l0,0v-0.002v0l0.001-0.003v-0.002v-0.104v-0.002v-0.164      v-0.037l0,0v-0.042v-0.003v-0.032c0-0.025,0.021-0.044,0.045-0.044h0.035h0.041h0h0.026h0.281c0.043,0,0.079-0.036,0.079-0.079      v-0.106C559.499,237.819,559.463,237.784,559.42,237.784z"/>
			</g>
			<g>
				<circle fill-rule="evenodd" clip-rule="evenodd" fill="#ED3739" cx="558.099" cy="234.286" r="2.025"/>
				<g>
					<path fill="#FFFFFF" d="M557.714,233.864c-0.025-0.021-0.057-0.03-0.088-0.03c-0.031,0-0.063,0.009-0.089,0.03l-0.345,0.283       c-0.017,0.013-0.021,0.035-0.012,0.053l0,0c0.011,0.018,0.033,0.026,0.053,0.018l0.259-0.116c0.003-0.001,0.006-0.001,0.009,0       s0.005,0.004,0.007,0.01l0.009,0.029c0.001,0.004,0.001,0.005,0,0.011l-0.146,0.471c-0.002,0.005-0.001,0.011,0.002,0.014       c0.004,0.005,0.009,0.006,0.015,0.006h0.114c0.009,0,0.016,0.008,0.018,0.017l0.051,0.324c0.006,0.041,0.036,0.051,0.055,0.051       s0.048-0.01,0.055-0.051l0.05-0.324c0.003-0.008,0.009-0.017,0.019-0.017h0.116c0.005,0,0.01-0.001,0.013-0.006       c0.003-0.003,0.004-0.009,0.003-0.014l-0.146-0.471c-0.001-0.006-0.001-0.007,0-0.011l0.009-0.029       c0.001-0.005,0.003-0.009,0.006-0.01c0.003-0.001,0.007-0.001,0.01,0l0.259,0.116c0.02,0.008,0.042,0,0.054-0.018l0,0       c0.009-0.018,0.004-0.04-0.013-0.053L557.714,233.864z"/>
					<path fill="#FFFFFF" d="M556.779,234.237l-0.102,0.08c-0.025,0.019-0.051,0.007-0.055-0.019l-0.036-0.282       c-0.002-0.021-0.021-0.026-0.033-0.026c-0.012,0-0.031,0.005-0.033,0.026l-0.036,0.282c-0.005,0.026-0.031,0.038-0.054,0.019       l-0.103-0.08c-0.025-0.019-0.061,0.009-0.043,0.04c0.001,0,0.002,0.002,0.003,0.003l0.234,0.287       c0.008,0.01,0.019,0.014,0.031,0.014c0.012,0,0.023-0.004,0.031-0.014l0.234-0.288       C556.844,234.248,556.807,234.22,556.779,234.237z"/>
					<circle fill="#FFFFFF" cx="558.585" cy="233.671" r="0.134"/>
					<path fill="#FFFFFF" d="M557.626,233.805c0.075,0,0.134-0.061,0.134-0.133c0-0.077-0.06-0.134-0.134-0.134       c-0.074,0-0.135,0.057-0.135,0.134C557.492,233.745,557.552,233.805,557.626,233.805z"/>
					<path fill="#FFFFFF" d="M558.674,233.864c-0.026-0.021-0.059-0.03-0.089-0.03c-0.031,0-0.063,0.009-0.089,0.03l-0.345,0.283       c-0.016,0.013-0.022,0.034-0.011,0.053l0,0c0.011,0.018,0.033,0.026,0.052,0.018l0.226-0.099c0.002-0.003,0.007-0.003,0.009,0       c0.002,0.001,0.004,0.005,0.004,0.007l-0.099,0.844c-0.004,0.042,0.023,0.058,0.042,0.062c0.018,0.004,0.051,0.001,0.064-0.036       l0.137-0.502c0.002-0.003,0.005-0.007,0.009-0.007c0.004,0,0.008,0.003,0.009,0.007l0.136,0.502       c0.015,0.037,0.048,0.04,0.065,0.036c0.018-0.004,0.047-0.021,0.042-0.062l-0.098-0.844c0-0.002,0.001-0.006,0.004-0.007       c0.002-0.003,0.005-0.003,0.01,0l0.224,0.099c0.021,0.008,0.044,0,0.054-0.018l0,0c0.01-0.019,0.004-0.04-0.012-0.053       L558.674,233.864z"/>
					<path fill="#FFFFFF" d="M559.912,234.296c-0.001-0.001-0.002-0.004-0.003-0.004l-0.235-0.288       c-0.007-0.011-0.018-0.014-0.029-0.014s-0.022,0.003-0.029,0.014l-0.236,0.288c-0.024,0.03,0.012,0.059,0.04,0.042l0.101-0.08       c0.024-0.02,0.051-0.008,0.055,0.019l0.037,0.282c0.003,0.021,0.022,0.027,0.032,0.027s0.029-0.006,0.033-0.027l0.036-0.282       c0.004-0.026,0.03-0.038,0.054-0.019l0.102,0.08C559.896,234.354,559.93,234.326,559.912,234.296z"/>
					<path fill="#FFFFFF" d="M558.848,233.099h-1.484c-0.245,0-0.444,0.2-0.444,0.444v1.485c0,0.244,0.199,0.443,0.444,0.443h1.484       c0.245,0,0.445-0.199,0.445-0.443v-1.485C559.292,233.299,559.093,233.099,558.848,233.099z M559.152,235.028       c0,0.166-0.137,0.305-0.304,0.305h-1.484c-0.167,0-0.305-0.139-0.305-0.305v-1.485c0-0.167,0.138-0.305,0.305-0.305h1.484       c0.167,0,0.304,0.138,0.304,0.305V235.028z"/>
				</g>
			</g>
			<g>
				<circle fill-rule="evenodd" clip-rule="evenodd" fill="#ED3739" cx="555.967" cy="294.785" r="2.025"/>
				<path fill-rule="evenodd" clip-rule="evenodd" fill="#FFFFFF" d="M557.288,293.64h-0.505h-0.003h-0.105h-0.001h-0.002h-0.002      l-0.002,0.001h-0.001l0,0h-0.002l-0.001,0.001l0,0h-0.001h-0.003h-0.004l0,0h-0.001l-0.002,0l0,0l-0.001,0.001h-0.001      l-0.001,0.002h-0.002l0,0l-0.002,0.002l-0.003,0.001l0,0c-0.006,0.004-0.011,0.006-0.016,0.011l0,0l-0.001,0.001l0,0      l-0.002,0.001l-0.002,0.002l-0.002,0.002l-0.001,0.002l0,0c-0.003,0.005-0.007,0.008-0.01,0.015l-0.002,0.004l0,0.001      l-0.001,0.003v0.001l0,0l-0.001,0.001l0,0l0,0.001l0,0l0,0.003l0,0l-0.001,0.003v0.001l0,0v0.003l0,0l-0.001,0.001v0.003l0,0      v0.001l-0.001,0.001v0.003v0.001v0.002v0.104v0.004v0.322h-0.322h-0.001h-0.106h-0.002h-0.002h-0.002l-0.002,0.002h-0.001l0,0      h-0.002h-0.002l0,0h-0.002l-0.002,0.001h-0.003l-0.001,0h-0.002l0,0l-0.001,0.001h-0.001h-0.001h-0.002l-0.002,0.001      l-0.004,0.003c-0.005,0.002-0.01,0.005-0.016,0.01l0,0l-0.001,0.002l-0.001,0.001l-0.003,0.002l-0.001,0.001l-0.001,0.003      c-0.003,0.004-0.007,0.008-0.011,0.014l0,0l-0.001,0.003l0,0l0,0.001v0l0,0.001l0,0l-0.001,0.003l0,0l-0.002,0.002v0.001l0,0      v0.003l0,0l-0.001,0.004l-0.001,0.002v0.001v0l0,0l-0.001,0.001l0,0v0.003v0.001l0,0v0.001v0.003v0.001v0.002v0.105v0.003v0.321      h-0.321h-0.003h-0.106h-0.001l-0.002,0.001h-0.002h-0.002h-0.002h-0.003l-0.002,0.001l0,0h-0.001h-0.002l-0.004,0.002l0,0      h-0.002l0,0l-0.002,0.001h-0.001l0,0l-0.002,0.001l0,0h-0.002l-0.001,0.001l0,0l-0.003,0.002      c-0.005,0.002-0.012,0.006-0.016,0.009l-0.002,0.003l0,0h-0.001l-0.002,0.003l-0.001,0.001l-0.001,0.002      c-0.004,0.004-0.007,0.01-0.011,0.015l-0.002,0.005l0,0.001l-0.001,0.001l0,0l-0.001,0.002l0,0l-0.001,0.002v0.001v0.003l0,0      l-0.001,0.003h-0.001v0.001v0.003l-0.001,0.001v0.002l0,0l0,0.002l0,0v0.002v0.002v0.001v0.003v0.104v0.003v0.321h-0.321h-0.002      h-0.106h-0.001l-0.002,0.001h-0.003h-0.002h-0.002h-0.002h-0.002l0,0h-0.001l0,0l-0.002,0.001l-0.003,0.002l0,0h-0.002l-0.001,0      l-0.001,0.001h0h-0.001h-0.002l0,0l-0.001,0.001l0,0l-0.003,0.003c-0.006,0.001-0.011,0.004-0.017,0.008l0,0.002h-0.001      l-0.003,0.003l-0.001,0.001l-0.002,0.002l0,0c-0.004,0.005-0.007,0.01-0.01,0.016l0,0l-0.002,0.004l0,0l-0.001,0.001l0,0      l-0.001,0.002l0,0.001v0.003l0,0.001l0,0l-0.001,0.002l0,0l-0.001,0.004v0.001l0,0.004l0,0l0,0.001v0.002l0,0v0.001l0,0l0,0.003      v0.001l0,0.002v0.002v0.105v0.004v0.32h-0.429c-0.043,0-0.079,0.037-0.079,0.08v0.106c0,0.042,0.035,0.077,0.079,0.077h0.506      h0.001h0.106h0.002h0.002h0.002l0.002-0.002h0.003h0.001h0.001h0.002h0.001l0.005-0.001l0.001-0.001h0.002l0.002-0.001h0.002      h0.002l0,0l0.002,0l0.002-0.003l0,0c0.005-0.002,0.011-0.005,0.016-0.011h0.001l0,0l0.001-0.002l0.003-0.001l0.001-0.003      l0.001-0.002l0,0c0.004-0.005,0.008-0.01,0.011-0.014l0.001-0.004l0,0l0.001-0.001v-0.001l0-0.002l0-0.002l0.001-0.002l0,0      h0.001v-0.003l0,0l0.002-0.004v-0.002l0,0v-0.001l0,0l0-0.002l0,0v-0.003l0-0.001l0,0l0-0.001v-0.002v-0.003v-0.001v-0.106      v-0.003v-0.164v-0.035h0.001v-0.077c0-0.025,0.021-0.045,0.046-0.045h0.17h0.002h0.104h0.001h0.106h0.003h0.001h0.002      l0.003-0.001l0,0h0.001h0.002l0,0l0.001-0.002l0,0h0.003h0.002l0.003-0.001h0.001h0.001h0.002l0,0l0.001-0.001h0.001      l0.001-0.001h0.002l0.001-0.001l0.003-0.002c0.005-0.003,0.011-0.007,0.016-0.012l0,0l0.001-0.001h0h0.001l0.002-0.003      l0.001-0.002l0,0l0.001-0.001c0.004-0.003,0.008-0.009,0.01-0.014l0,0l0.003-0.004v-0.001l0,0l0.001-0.002l0.001-0.002l0,0      l0.001-0.002l0,0v-0.001l0.001-0.001v-0.004l0-0.001l0-0.003l0-0.002l0,0v-0.001l0,0v-0.003l0-0.001l0-0.002v-0.001v-0.004      v-0.024c-0.001-0.004-0.001-0.005-0.001-0.01v-0.35c0-0.025,0.021-0.046,0.045-0.046h0.171l0.006,0.001h0.101h0.002h0.106h0.001      l0.003-0.001h0.001h0.002h0.002l0.002-0.001l0,0h0.001l0,0h0.002h0.002h0.002l0.002-0.002l0.002,0h0.002h0l0.001-0.001l0,0      h0.002h0.001l0,0l0.004-0.003c0.005-0.002,0.011-0.006,0.016-0.01l0,0h0.001l0.001-0.002l0.004-0.002v-0.001l0.001-0.003l0,0      c0.004-0.003,0.008-0.01,0.011-0.016l0.002-0.003l0,0l0-0.001l0,0l0-0.002h0.001l0,0l0-0.003l0,0v-0.002l0-0.002l0,0      l0.001-0.004l0.001-0.001v-0.003l0,0v-0.001l0,0v-0.002l0,0l0.001-0.003l0,0v-0.001v-0.002v-0.001v-0.003v-0.029v-0.004v-0.35      c0-0.026,0.021-0.046,0.045-0.046h0.17c0.003,0,0.006,0.001,0.009,0.001h0.099h0.001h0.105h0.003h0.002h0.002h0.002h0.002      l0.001-0.001l0,0h0.002l0,0l0.001-0.001l0,0h0.002h0.004l0.002-0.002h0.002l0.002-0.001l0,0l0.002-0.001h0.001l0.002-0.001      l0.004,0h0c0.005-0.003,0.011-0.006,0.015-0.011l0,0l0.001-0.001h0l0.001-0.001l0.003-0.003l0.001-0.002l0,0h0.001      c0.004-0.005,0.007-0.01,0.01-0.017l0,0l0.001-0.004l0.001-0.001l0,0l0.001-0.001l0-0.001v-0.001l0.001-0.001l0,0l0-0.001      l0-0.002l0-0.005l0.001-0.001v-0.002l0.001-0.003v-0.001l0,0v-0.003l0,0v-0.001v-0.002l0.001-0.001v-0.003v-0.105v-0.002v-0.165      v-0.036l0,0v-0.04v-0.004v-0.032c0-0.024,0.021-0.045,0.045-0.045h0.035h0.041l0.001-0.001h0.025h0.282      c0.044,0,0.079-0.037,0.079-0.08v-0.104C557.367,293.675,557.332,293.64,557.288,293.64z"/>
			</g>
			<g>
				<circle fill-rule="evenodd" clip-rule="evenodd" fill="#ED3739" cx="555.967" cy="290.259" r="2.025"/>
				<g>
					<path fill="#FFFFFF" d="M555.582,289.838c-0.025-0.021-0.058-0.03-0.088-0.03c-0.031,0-0.063,0.01-0.09,0.03l-0.345,0.283       c-0.015,0.012-0.021,0.035-0.01,0.054l0,0c0.009,0.019,0.032,0.025,0.052,0.018l0.259-0.115c0.003-0.002,0.006-0.002,0.01,0       c0.002,0,0.004,0.004,0.005,0.005l0.01,0.031c0.002,0.005,0.002,0.007,0,0.01l-0.146,0.471c-0.002,0.006,0,0.011,0.002,0.017       c0.004,0.004,0.009,0.008,0.015,0.008h0.114c0.01,0,0.017,0.006,0.018,0.014l0.052,0.324c0.005,0.041,0.036,0.052,0.055,0.052       s0.048-0.011,0.054-0.052l0.051-0.324c0.002-0.007,0.01-0.014,0.018-0.014h0.115c0.006,0,0.011-0.003,0.014-0.008       c0.003-0.005,0.005-0.01,0.003-0.017l-0.147-0.471c0-0.003,0-0.005,0-0.01l0.01-0.031c0.001-0.001,0.003-0.005,0.007-0.005       c0.002-0.002,0.006-0.002,0.009,0l0.258,0.115c0.021,0.008,0.043,0.001,0.054-0.018l0,0c0.01-0.019,0.004-0.042-0.011-0.054       L555.582,289.838z"/>
					<path fill="#FFFFFF" d="M554.646,290.212l-0.101,0.079c-0.026,0.019-0.051,0.007-0.056-0.019l-0.036-0.281       c-0.003-0.021-0.022-0.029-0.033-0.029c-0.011,0-0.029,0.008-0.033,0.029l-0.037,0.281c-0.003,0.026-0.03,0.038-0.053,0.019       l-0.102-0.079c-0.024-0.02-0.061,0.006-0.042,0.039c0.001,0.002,0.002,0.002,0.002,0.002l0.236,0.288       c0.007,0.009,0.017,0.015,0.029,0.015c0.012,0,0.022-0.006,0.03-0.015l0.234-0.288       C554.711,290.223,554.673,290.194,554.646,290.212z"/>
					<circle fill="#FFFFFF" cx="556.453" cy="289.646" r="0.135"/>
					<circle fill="#FFFFFF" cx="555.494" cy="289.646" r="0.135"/>
					<path fill="#FFFFFF" d="M556.541,289.838c-0.027-0.022-0.058-0.03-0.089-0.03c-0.031,0-0.063,0.008-0.089,0.03l-0.346,0.283       c-0.015,0.012-0.021,0.035-0.01,0.052l0,0c0.01,0.02,0.033,0.027,0.052,0.018l0.225-0.101c0.004-0.001,0.007,0,0.01,0.002       c0.003,0.002,0.004,0.004,0.004,0.008l-0.099,0.845c-0.004,0.04,0.025,0.058,0.043,0.063c0.017,0.004,0.05,0,0.064-0.037       l0.138-0.502c0.001-0.004,0.004-0.006,0.008-0.006s0.008,0.002,0.008,0.006l0.138,0.502c0.014,0.037,0.047,0.041,0.065,0.037       c0.018-0.004,0.047-0.022,0.042-0.063l-0.099-0.845c0-0.004,0-0.006,0.003-0.008s0.006-0.003,0.01-0.002l0.225,0.101       c0.019,0.009,0.042,0.002,0.052-0.018l0,0c0.01-0.018,0.005-0.04-0.011-0.052L556.541,289.838z"/>
					<path fill="#FFFFFF" d="M557.779,290.268c-0.001,0-0.002-0.001-0.004-0.003l-0.233-0.287c-0.008-0.009-0.02-0.016-0.031-0.016       s-0.022,0.007-0.03,0.016l-0.236,0.288c-0.023,0.031,0.013,0.058,0.042,0.042l0.102-0.079c0.025-0.02,0.051-0.009,0.055,0.018       l0.036,0.282c0.002,0.021,0.021,0.027,0.032,0.027c0.011,0,0.031-0.006,0.033-0.027l0.037-0.282       c0.003-0.027,0.029-0.038,0.054-0.018l0.101,0.079C557.762,290.326,557.797,290.299,557.779,290.268z"/>
					<path fill="#FFFFFF" d="M556.715,289.073h-1.485c-0.244,0-0.444,0.2-0.444,0.445v1.485c0,0.245,0.2,0.443,0.444,0.443h1.485       c0.245,0,0.444-0.199,0.444-0.443v-1.485C557.159,289.272,556.96,289.073,556.715,289.073z M557.018,291.002       c0,0.168-0.136,0.302-0.303,0.302h-1.485c-0.167,0-0.305-0.133-0.305-0.302v-1.485c0-0.169,0.137-0.305,0.305-0.305h1.485       c0.167,0,0.303,0.136,0.303,0.305V291.002z"/>
				</g>
			</g>
			<g>
				<circle fill-rule="evenodd" clip-rule="evenodd" fill="#ED3739" cx="515.931" cy="255.964" r="2.025"/>
				<g>
					<path fill="#FFFFFF" d="M515.548,255.545c-0.027-0.023-0.059-0.032-0.089-0.032c-0.03,0-0.063,0.009-0.088,0.032l-0.347,0.282       c-0.017,0.013-0.022,0.033-0.011,0.053l0,0c0.01,0.018,0.033,0.026,0.053,0.018l0.258-0.116c0.003,0,0.007,0,0.01,0       c0.003,0.003,0.005,0.004,0.006,0.007l0.009,0.029c0.001,0.004,0.001,0.009,0,0.012l-0.146,0.471       c-0.001,0.005,0,0.012,0.002,0.016c0.004,0.004,0.008,0.008,0.015,0.008h0.114c0.009,0,0.017,0.007,0.019,0.014l0.051,0.323       c0.006,0.041,0.036,0.053,0.055,0.053c0.018,0,0.048-0.012,0.055-0.053l0.051-0.323c0.001-0.007,0.009-0.014,0.018-0.014h0.114       c0.006,0,0.011-0.004,0.014-0.008c0.003-0.004,0.004-0.011,0.003-0.016l-0.147-0.471c-0.001-0.003-0.001-0.008,0-0.012       l0.01-0.029c0-0.003,0.003-0.004,0.006-0.007c0.003,0,0.006,0,0.01,0l0.258,0.116c0.021,0.009,0.042,0,0.054-0.018l0,0       c0.01-0.02,0.005-0.041-0.012-0.053L515.548,255.545z"/>
					<path fill="#FFFFFF" d="M514.611,255.916l-0.102,0.081c-0.024,0.019-0.05,0.008-0.054-0.02l-0.036-0.282       c-0.002-0.021-0.021-0.025-0.033-0.025c-0.01,0-0.03,0.005-0.033,0.025l-0.036,0.282c-0.004,0.026-0.03,0.039-0.055,0.02       l-0.101-0.081c-0.024-0.019-0.061,0.008-0.043,0.04c0.001,0.001,0.002,0.001,0.004,0.003l0.234,0.287       c0.007,0.011,0.019,0.016,0.03,0.016c0.012,0,0.023-0.005,0.03-0.016l0.235-0.288       C514.677,255.927,514.639,255.9,514.611,255.916z"/>
					<circle fill="#FFFFFF" cx="516.417" cy="255.35" r="0.134"/>
					<circle fill="#FFFFFF" cx="515.459" cy="255.35" r="0.134"/>
					<path fill="#FFFFFF" d="M516.506,255.543c-0.026-0.021-0.059-0.03-0.089-0.03s-0.062,0.009-0.089,0.03l-0.345,0.283       c-0.017,0.013-0.022,0.033-0.012,0.053l0,0c0.011,0.018,0.033,0.026,0.053,0.018l0.226-0.1c0.004-0.004,0.007-0.004,0.01,0       c0.003,0,0.005,0.005,0.004,0.007l-0.099,0.845c-0.005,0.04,0.023,0.055,0.042,0.062c0.018,0.004,0.052,0.003,0.065-0.037       l0.137-0.502c0.001-0.003,0.005-0.006,0.008-0.006s0.008,0.003,0.009,0.006l0.137,0.502c0.015,0.04,0.047,0.041,0.065,0.037       c0.019-0.006,0.045-0.021,0.041-0.062l-0.098-0.845c-0.001-0.002,0-0.007,0.003-0.007c0.004-0.004,0.007-0.004,0.011,0       l0.226,0.1c0.019,0.009,0.043,0,0.053-0.018l0,0c0.009-0.02,0.004-0.041-0.012-0.053L516.506,255.543z"/>
					<path fill="#FFFFFF" d="M517.744,255.976c0-0.002-0.002-0.005-0.003-0.006l-0.234-0.288c-0.007-0.008-0.018-0.013-0.029-0.013       c-0.013,0-0.023,0.005-0.031,0.013l-0.235,0.289c-0.025,0.031,0.012,0.059,0.04,0.042l0.102-0.08       c0.025-0.019,0.05-0.009,0.054,0.02l0.036,0.279c0.003,0.022,0.022,0.029,0.034,0.029c0.01,0,0.029-0.007,0.032-0.029       l0.037-0.279c0.003-0.029,0.03-0.039,0.054-0.02l0.101,0.08C517.728,256.032,517.762,256.005,517.744,255.976z"/>
					<path fill="#FFFFFF" d="M516.681,254.777h-1.486c-0.244,0-0.444,0.2-0.444,0.444v1.484c0,0.245,0.2,0.446,0.444,0.446h1.486       c0.244,0,0.444-0.201,0.444-0.446v-1.484C517.125,254.977,516.924,254.777,516.681,254.777z M516.984,256.706       c0,0.169-0.137,0.306-0.304,0.306h-1.486c-0.166,0-0.303-0.137-0.303-0.306v-1.484c0-0.166,0.137-0.302,0.303-0.302h1.486       c0.167,0,0.304,0.136,0.304,0.302V256.706z"/>
				</g>
			</g>
			<g>
				<circle fill-rule="evenodd" clip-rule="evenodd" fill="#ED3739" cx="504.139" cy="306.112" r="2.025"/>
				<g>
					<path fill="#FFFFFF" d="M503.756,305.693c-0.027-0.021-0.058-0.032-0.089-0.032c-0.031,0-0.063,0.011-0.089,0.032l-0.347,0.281       c-0.015,0.013-0.021,0.037-0.011,0.054l0,0c0.01,0.019,0.034,0.027,0.053,0.017l0.258-0.115c0.004,0,0.006,0,0.01,0       c0.003,0.001,0.005,0.003,0.006,0.007l0.01,0.031c0.001,0.002,0.001,0.005,0,0.008l-0.147,0.473       c-0.002,0.005-0.001,0.011,0.002,0.016c0.005,0.005,0.01,0.008,0.016,0.008h0.114c0.009,0,0.017,0.005,0.019,0.014l0.051,0.326       c0.006,0.039,0.036,0.05,0.055,0.05c0.018,0,0.048-0.011,0.055-0.05l0.05-0.326c0.002-0.009,0.008-0.014,0.018-0.014h0.115       c0.006,0,0.011-0.003,0.015-0.008c0.003-0.005,0.004-0.01,0.002-0.016l-0.147-0.473c0-0.003,0-0.006,0-0.008l0.01-0.031       c0.001-0.004,0.003-0.006,0.006-0.007c0.003,0,0.007,0,0.01,0l0.259,0.115c0.02,0.01,0.043,0.002,0.054-0.017l0,0       c0.01-0.018,0.004-0.041-0.012-0.054L503.756,305.693z"/>
					<path fill="#FFFFFF" d="M502.819,306.066l-0.102,0.079c-0.025,0.021-0.05,0.008-0.054-0.018l-0.037-0.281       c-0.003-0.023-0.021-0.028-0.033-0.028s-0.03,0.005-0.033,0.028l-0.036,0.281c-0.004,0.026-0.03,0.039-0.055,0.018       l-0.102-0.079c-0.025-0.021-0.061,0.006-0.042,0.037c0.001,0.001,0.002,0.002,0.003,0.006l0.233,0.287       c0.008,0.009,0.018,0.013,0.03,0.013s0.022-0.004,0.03-0.013l0.235-0.291C502.884,306.076,502.846,306.048,502.819,306.066z"/>
					<circle fill="#FFFFFF" cx="504.624" cy="305.498" r="0.135"/>
					<circle fill="#FFFFFF" cx="503.667" cy="305.498" r="0.135"/>
					<path fill="#FFFFFF" d="M504.714,305.693c-0.027-0.021-0.059-0.032-0.09-0.032c-0.03,0-0.063,0.011-0.089,0.032l-0.346,0.281       c-0.016,0.013-0.021,0.036-0.011,0.054l0,0c0.01,0.019,0.034,0.027,0.052,0.017l0.226-0.099c0.004-0.002,0.007-0.002,0.01,0       c0.003,0.001,0.004,0.005,0.004,0.01l-0.098,0.843c-0.005,0.04,0.023,0.058,0.042,0.061c0.018,0.005,0.051,0.002,0.065-0.035       l0.137-0.501c0.002-0.004,0.006-0.006,0.009-0.006c0.004,0,0.007,0.002,0.009,0.006l0.137,0.501       c0.015,0.037,0.048,0.04,0.065,0.035c0.018-0.003,0.047-0.021,0.042-0.061l-0.099-0.843c0-0.004,0.001-0.009,0.005-0.01       c0.002-0.002,0.006-0.002,0.01,0l0.225,0.099c0.02,0.01,0.043,0.002,0.053-0.017l0,0c0.01-0.019,0.005-0.041-0.012-0.054       L504.714,305.693z"/>
					<path fill="#FFFFFF" d="M505.951,306.123c0-0.001-0.002-0.002-0.002-0.006l-0.234-0.286c-0.008-0.008-0.018-0.014-0.031-0.014       c-0.011,0-0.022,0.005-0.03,0.014l-0.235,0.29c-0.025,0.027,0.013,0.058,0.04,0.04l0.102-0.079       c0.025-0.019,0.05-0.008,0.053,0.019l0.038,0.281c0.003,0.023,0.022,0.028,0.033,0.028c0.011,0,0.031-0.005,0.034-0.028       l0.036-0.281c0.003-0.026,0.029-0.037,0.054-0.019l0.102,0.079C505.935,306.181,505.969,306.153,505.951,306.123z"/>
					<path fill="#FFFFFF" d="M504.887,304.926h-1.485c-0.244,0-0.444,0.201-0.444,0.443v1.487c0,0.244,0.2,0.443,0.444,0.443h1.485       c0.245,0,0.445-0.2,0.445-0.443v-1.487C505.333,305.127,505.132,304.926,504.887,304.926z M505.192,306.856       c0,0.166-0.138,0.303-0.305,0.303h-1.485c-0.167,0-0.304-0.138-0.304-0.303v-1.487c0-0.166,0.137-0.302,0.304-0.302h1.485       c0.167,0,0.305,0.137,0.305,0.302V306.856z"/>
				</g>
			</g>
			<g>
				<circle fill-rule="evenodd" clip-rule="evenodd" fill="#ED3739" cx="607.532" cy="289.437" r="2.025"/>
				<g>
					<path fill-rule="evenodd" clip-rule="evenodd" fill="#FFFFFF" d="M608.136,289.926l-0.019-0.073c0-0.006,0-0.01,0-0.01v-0.004       h-0.004v-0.004v-0.006h-0.006v-0.003h-0.003v-0.004h-0.005v-0.004h-0.004v-0.005h-0.004c-0.004-0.006-0.009-0.006-0.018-0.009       c-0.005,0-0.015,0-0.02,0h-0.004l-0.127,0.025c-0.014,0.006-0.024,0.014-0.033,0.024c-0.003,0.01-0.003,0.018-0.008,0.023       c0,0.003,0,0.008,0,0.014l0.005,0.018l0.003,0.014c0.033,0.167-0.008,0.336-0.096,0.467l-0.004,0.005l-0.005,0.011       l-0.005,0.003l-0.004,0.003c-0.01,0.015-0.014,0.024-0.023,0.033c-0.041,0.043-0.087,0.092-0.142,0.121l-0.004,0.005       l-0.009,0.005l-0.005,0.005c-0.06,0.031-0.123,0.058-0.192,0.071h-0.005h-0.004c-0.168,0.036-0.333-0.004-0.466-0.091       l-0.015-0.008c-0.009-0.005-0.018-0.013-0.021-0.017l-0.014-0.01l-0.009-0.009l-0.01-0.008h-0.004l-0.01-0.009l-0.009-0.011       c-0.146-0.139-0.21-0.338-0.182-0.534v-0.004l0.005-0.01v-0.005v-0.008v-0.004l0.003-0.01v-0.004v-0.013h0.006v-0.011v-0.004       l0.004-0.009v-0.004l0.004-0.008v-0.005l0.004-0.01v-0.004l0.005-0.01v-0.003l0.005-0.008v-0.005l0.004-0.009l0.005-0.005       l0.004-0.013l0.005-0.014l0.005-0.014c0.063-0.124,0.165-0.222,0.292-0.282c0.013-0.003,0.023-0.013,0.027-0.022h0.004       c0.005-0.009,0.005-0.012,0.005-0.021v-0.005c0.005-0.005,0.005-0.009,0-0.018l-0.023-0.123       c-0.004-0.013-0.009-0.026-0.021-0.037c-0.01-0.008-0.023-0.013-0.042-0.013v0.005h-0.005h-0.005h-0.003l-0.01,0.004       c-0.188,0.077-0.334,0.217-0.425,0.389l-0.009,0.019h-0.005l-0.004,0.018l-0.004,0.005l-0.004,0.013v0.004l-0.01,0.013v0.006       l-0.01,0.013v0.004l-0.004,0.015v0.004l-0.008,0.018l-0.005,0.019c-0.096,0.317-0.004,0.662,0.233,0.884l0.019,0.012       l0.014,0.016v0.004l0.014,0.009h0.004l0.013,0.014l0.015,0.013h0.004l0.014,0.011l0.018,0.012       c0.184,0.124,0.417,0.178,0.654,0.131l0.018-0.004h0.006l0.018-0.004l0.018-0.005l0.023-0.009l0.019-0.005l0.023-0.009       l0.019-0.004l0.018-0.01l0.019-0.008h0.003l0.015-0.005l0.004-0.005l0.013-0.005l0.005-0.003l0.014-0.005l0.004-0.004       l0.015-0.004l0.005-0.005l0.009-0.005l0.009-0.005l0.009-0.007l0.009-0.004l0.009-0.005l0.01-0.004l0.009-0.006l0.009-0.007       l0.005-0.004l0.014-0.011l0.014-0.013h0.004c0.009-0.005,0.018-0.014,0.027-0.023h0.004l0.014-0.014       c0.042-0.036,0.074-0.076,0.11-0.117l0.009-0.013v-0.005l0.014-0.013l0.009-0.014v-0.004l0.008-0.014l0.005-0.005l0.005-0.009       l0.01-0.009v-0.009l0.01-0.01v-0.004l0.009-0.014v-0.004c0.081-0.154,0.118-0.333,0.096-0.513V289.926z"/>
					<path fill-rule="evenodd" clip-rule="evenodd" fill="#FFFFFF" d="M608.662,290.22l-0.114-0.707       c-0.023-0.137-0.119-0.199-0.251-0.199h-0.536c-0.032,0-0.073-0.004-0.083-0.059l-0.05-0.232c0-0.013,0.015-0.021,0.033-0.018       l0.595,0.186c0.095,0.031,0.145-0.097,0.063-0.146l-0.819-0.467c-0.077-0.045-0.164-0.072-0.25-0.041       c-0.101,0.031-0.16,0.127-0.138,0.246l0.138,0.739c0.022,0.154,0.154,0.213,0.292,0.184l0.672-0.112       c0.014-0.004,0.029,0.006,0.033,0.018l0.215,0.659c0.023,0.067,0.087,0.076,0.124,0.067       C608.615,290.331,608.675,290.297,608.662,290.22z"/>
					<path fill-rule="evenodd" clip-rule="evenodd" fill="#FFFFFF" d="M607.173,288.44c0.13-0.026,0.212-0.156,0.186-0.282       c-0.025-0.134-0.151-0.214-0.281-0.189c-0.129,0.027-0.211,0.151-0.189,0.281C606.915,288.379,607.043,288.466,607.173,288.44z       "/>
				</g>
			</g>
			<g>
				<circle fill-rule="evenodd" clip-rule="evenodd" fill="#ED3739" cx="593.001" cy="282.647" r="2.025"/>
				<g>
					<path fill="#FFFFFF" d="M592.551,283.13l-0.561,0.563l0.027,0.038c0.047,0.061,0.121,0.075,0.176,0.02l0.35-0.351       c0.05-0.049,0.08-0.139,0.044-0.204L592.551,283.13z"/>
					<path fill="#FFFFFF" d="M591.948,283.622l0.571-0.57c-0.012-0.095,0.016-0.193,0.083-0.259l0.273-0.271l0.274-0.275       c0.065-0.064,0.165-0.093,0.258-0.083l0.57-0.571C593.284,281.098,591.454,282.928,591.948,283.622z"/>
					<path fill="#FFFFFF" d="M594.081,281.667l-0.037-0.028l-0.563,0.559l0.067,0.038c0.064,0.036,0.152,0.007,0.204-0.044       l0.351-0.35C594.157,281.787,594.144,281.712,594.081,281.667z"/>
				</g>
			</g>
			<g>
				<circle fill-rule="evenodd" clip-rule="evenodd" fill="#ED3739" cx="495.801" cy="288.96" r="2.025"/>
				<g>
					<path fill="#FFFFFF" d="M495.351,289.443l-0.561,0.563l0.026,0.037c0.048,0.062,0.122,0.075,0.176,0.022l0.351-0.352       c0.051-0.049,0.079-0.14,0.044-0.203L495.351,289.443z"/>
					<path fill="#FFFFFF" d="M494.748,289.934l0.571-0.57c-0.012-0.093,0.016-0.194,0.083-0.258l0.274-0.273l0.273-0.274       c0.066-0.064,0.165-0.094,0.258-0.083l0.571-0.571C496.083,287.412,494.254,289.24,494.748,289.934z"/>
					<path fill="#FFFFFF" d="M496.88,287.979l-0.036-0.026l-0.563,0.559l0.067,0.038c0.064,0.036,0.152,0.007,0.204-0.044       l0.351-0.35C496.957,288.102,496.944,288.026,496.88,287.979z"/>
				</g>
			</g>
			<g>
				<circle fill-rule="evenodd" clip-rule="evenodd" fill="#ED3739" cx="611.107" cy="286.221" r="2.025"/>
				<g>
					<path fill="#FFFFFF" d="M611.106,285.313c0.142,0,0.256-0.114,0.256-0.255c0-0.142-0.114-0.256-0.256-0.256       c-0.138,0-0.251,0.115-0.251,0.256C610.855,285.199,610.969,285.313,611.106,285.313z"/>
					<path fill="#FFFFFF" d="M611.929,285.958l-0.652-0.535c-0.051-0.041-0.111-0.061-0.17-0.061c-0.06,0-0.119,0.02-0.168,0.061       l-0.655,0.535c-0.032,0.025-0.041,0.067-0.022,0.099c0.022,0.039,0.064,0.052,0.101,0.033l0.429-0.187       c0.004-0.005,0.009-0.005,0.018,0c0.004,0.004,0.004,0.015,0.004,0.019l-0.187,1.599c-0.004,0.074,0.045,0.105,0.082,0.115       c0.032,0.007,0.095,0.005,0.124-0.068l0.26-0.95c0-0.005,0.005-0.011,0.014-0.011s0.014,0.006,0.019,0.011l0.26,0.95       c0.022,0.073,0.086,0.076,0.123,0.068c0.033-0.01,0.088-0.041,0.079-0.115l-0.187-1.599c0-0.003,0-0.014,0.008-0.019       c0.005-0.005,0.009-0.005,0.019,0l0.426,0.187c0.036,0.019,0.082,0.006,0.1-0.033       C611.971,286.026,611.961,285.984,611.929,285.958z"/>
				</g>
			</g>
			<g>
				<circle fill-rule="evenodd" clip-rule="evenodd" fill="#ED3739" cx="605.747" cy="285.148" r="2.025"/>
				<g>
					<path fill="#FFFFFF" d="M606.569,284.884l-0.654-0.533c-0.049-0.042-0.11-0.061-0.168-0.061c-0.06,0-0.119,0.019-0.17,0.061       l-0.653,0.533c-0.032,0.029-0.041,0.07-0.023,0.101c0.023,0.037,0.064,0.051,0.1,0.034l0.495-0.22c0.004,0,0.008,0,0.019,0       c0.004,0.005,0.008,0.008,0.008,0.014l0.019,0.06c0,0.008,0,0.012,0,0.018l-0.279,0.897c0,0.009,0,0.017,0.004,0.027       c0.009,0.009,0.019,0.013,0.028,0.013h0.22c0.018,0,0.032,0.015,0.032,0.033l0.094,0.612c0.015,0.073,0.074,0.096,0.107,0.096       c0.037,0,0.091-0.023,0.105-0.096l0.095-0.612c0.006-0.018,0.019-0.033,0.033-0.033h0.219c0.009,0,0.019-0.004,0.028-0.013       c0.004-0.01,0.01-0.018,0.004-0.027l-0.278-0.897c0-0.006,0-0.01,0-0.018l0.018-0.06c0.004-0.005,0.009-0.009,0.014-0.014       c0.004,0,0.009,0,0.018,0l0.489,0.22c0.036,0.018,0.083,0.003,0.101-0.034C606.61,284.954,606.601,284.913,606.569,284.884z"/>
					<path fill="#FFFFFF" d="M605.747,284.236c0.141,0,0.256-0.115,0.256-0.251c0-0.141-0.115-0.254-0.256-0.254       c-0.143,0-0.256,0.113-0.256,0.254C605.491,284.121,605.604,284.236,605.747,284.236z"/>
				</g>
			</g>
			<g>
				<path fill-rule="evenodd" clip-rule="evenodd" fill="#1DA4DE" d="M610.986,291.22c0.395-0.393,0.915-0.593,1.43-0.593      c0.516,0,1.041,0.201,1.431,0.593c0.4,0.391,0.594,0.908,0.594,1.426c0,0.522-0.194,1.039-0.594,1.431      c-0.39,0.405-0.916,0.6-1.431,0.6c-0.515,0-1.035-0.195-1.43-0.6c-0.4-0.392-0.595-0.909-0.595-1.431      C610.392,292.128,610.586,291.611,610.986,291.22"/>
				<g>
					<path fill="#FFFFFF" d="M611.447,292.337c-0.001-0.006-0.001-0.011,0-0.017l0.021-0.071c0.003-0.008,0.009-0.016,0.019-0.019       c0.009-0.004,0.018-0.004,0.025,0.001l0.333,0.204c0.033,0.017,0.073,0.002,0.091-0.028v-0.003       c0.017-0.029,0.005-0.065-0.02-0.089l-0.503-0.483c-0.044-0.037-0.099-0.054-0.151-0.054c-0.053,0-0.107,0.018-0.152,0.054       l-0.502,0.483c-0.028,0.022-0.037,0.06-0.019,0.089v0.003c0.018,0.03,0.058,0.045,0.091,0.028l0.333-0.204       c0.008-0.006,0.017-0.006,0.026-0.001c0.009,0.003,0.015,0.011,0.017,0.019l0.021,0.071c0.002,0.006,0.002,0.011,0,0.017       l-0.25,0.788c-0.002,0.009,0,0.019,0.005,0.026c0.007,0.01,0.015,0.014,0.025,0.014h0.196c0.015,0,0.028,0.01,0.03,0.025       l0.086,0.554c0.013,0.067,0.063,0.085,0.095,0.085c0.032,0,0.083-0.018,0.094-0.085l0.086-0.554       c0.002-0.016,0.016-0.025,0.03-0.025h0.196c0.01,0,0.019-0.004,0.025-0.014c0.006-0.007,0.007-0.017,0.005-0.026       L611.447,292.337z"/>
					<circle fill="#FFFFFF" cx="611.261" cy="291.501" r="0.23"/>
					<circle fill="#FFFFFF" cx="612.926" cy="291.501" r="0.23"/>
					<path fill="#FFFFFF" d="M613.135,292.26c-0.004-0.027,0.022-0.04,0.042-0.028l0.332,0.202c0.002,0,0.003,0.001,0.003,0.001       c0.034,0.016,0.072,0.002,0.089-0.028v-0.003c0.017-0.029,0.008-0.065-0.019-0.088c0-0.001,0-0.001-0.001-0.003l-0.501-0.48       c0-0.001,0-0.001-0.001-0.002c-0.044-0.035-0.099-0.053-0.151-0.053c-0.052,0-0.105,0.018-0.15,0.053       c-0.001,0.001-0.001,0.001-0.001,0.002l-0.502,0.48c0,0.002,0,0.002-0.001,0.003c-0.028,0.023-0.035,0.059-0.02,0.088v0.003       c0.018,0.03,0.057,0.044,0.09,0.028c0.002,0,0.003-0.001,0.004-0.001l0.331-0.202c0.019-0.012,0.045,0.001,0.04,0.028       l-0.279,1.447c-0.025,0.112,0.126,0.167,0.177,0.065l0.002-0.003l0.286-0.841c0.003-0.01,0.013-0.017,0.025-0.017       c0.011,0,0.021,0.006,0.025,0.017l0.285,0.841c0.001,0,0.001,0.003,0.001,0.003c0.052,0.102,0.203,0.047,0.176-0.065       L613.135,292.26z"/>
					<path fill="#FFFFFF" d="M614.238,292.885l-0.314-0.302c-0.028-0.022-0.063-0.032-0.094-0.032c-0.034,0-0.068,0.01-0.096,0.032       l-0.315,0.302c-0.017,0.013-0.022,0.037-0.011,0.055l0,0c0.01,0.021,0.036,0.029,0.057,0.021l0.208-0.129       c0.005-0.002,0.011-0.002,0.017,0c0.005,0.001,0.009,0.006,0.011,0.011l0.013,0.044c0.001,0.004,0.001,0.007,0,0.011       l-0.156,0.491c-0.002,0.006-0.001,0.012,0.003,0.018s0.009,0.007,0.015,0.007h0.122c0.01,0,0.018,0.007,0.019,0.018       l0.055,0.345c0.007,0.042,0.039,0.052,0.059,0.052c0.019,0,0.051-0.011,0.058-0.052l0.055-0.345       c0.001-0.011,0.009-0.018,0.018-0.018h0.123c0.007,0,0.013-0.001,0.016-0.007c0.004-0.006,0.005-0.012,0.003-0.018       l-0.156-0.491c-0.001-0.004-0.001-0.007,0-0.011l0.012-0.044c0.002-0.005,0.006-0.01,0.011-0.011       c0.006-0.002,0.012-0.002,0.017,0l0.207,0.129c0.022,0.008,0.046,0,0.058-0.021l0,0       C614.26,292.922,614.253,292.898,614.238,292.885z"/>
					<circle fill="#FFFFFF" cx="613.83" cy="292.376" r="0.143"/>
					<circle fill="#FFFFFF" cx="612.13" cy="292.674" r="0.114"/>
					<path fill="#FFFFFF" d="M612.463,293.122L612.463,293.122c0.009-0.016,0.004-0.032-0.009-0.044c-0.001,0-0.001,0-0.001,0       l-0.249-0.239c0,0,0,0-0.001-0.001c-0.021-0.018-0.049-0.025-0.074-0.025c-0.026,0-0.052,0.007-0.075,0.025       c0,0.001,0,0.001,0,0.001l-0.249,0.239h-0.001c-0.013,0.012-0.018,0.029-0.009,0.044l0,0c0.009,0.017,0.027,0.022,0.043,0.017       c0.001-0.001,0.002-0.001,0.003-0.001l0.164-0.102c0.009-0.006,0.022,0.002,0.019,0.015l-0.138,0.719       c-0.013,0.055,0.063,0.082,0.088,0.032V293.8l0.144-0.417c0.002-0.005,0.006-0.01,0.012-0.01c0.005,0,0.01,0.004,0.012,0.01       l0.141,0.417c0,0,0.001,0,0.001,0.001c0.025,0.05,0.1,0.023,0.087-0.032l-0.137-0.719c-0.002-0.013,0.009-0.021,0.019-0.015       l0.165,0.102c0,0,0.001,0,0.001,0.001C612.435,293.144,612.455,293.139,612.463,293.122z"/>
				</g>
			</g>
			<g>
				<circle fill-rule="evenodd" clip-rule="evenodd" fill="#FFFFFF" cx="497.349" cy="274.07" r="2.025"/>
				<g>
					<path fill="#E59933" d="M497.524,273.089l0.345,0.052c0.011-0.022,0.02-0.033,0.02-0.033c0.099-0.198,0.086-0.255,0.086-0.255       c0.006-0.227-0.162-0.283-0.193-0.29l0,0c0,0-0.001,0-0.003,0c-0.001-0.001-0.003-0.001-0.003-0.001v0.001       c-0.031-0.003-0.209,0.001-0.269,0.22c0,0-0.029,0.052,0.009,0.268C497.516,273.051,497.522,273.063,497.524,273.089z"/>
					<path fill="#E59933" d="M497.843,273.259l-0.327-0.05c-0.008,0.035-0.021,0.073-0.038,0.117l0.367,0.056       C497.84,273.333,497.84,273.292,497.843,273.259z"/>
					<path fill="#E59933" d="M498.912,273.063L498.912,273.063c0.001,0,0-0.002-0.001-0.003c-0.002,0-0.002,0-0.002,0h-0.001       c-0.029-0.012-0.196-0.074-0.333,0.104c0,0-0.045,0.037-0.092,0.255c0,0,0,0.012-0.006,0.038l0.301,0.178       c0.018-0.019,0.031-0.025,0.031-0.025c0.165-0.146,0.174-0.203,0.174-0.203C499.074,273.196,498.938,273.083,498.912,273.063z"/>
					<path fill="#E59933" d="M498.346,273.657l0.319,0.188c0.014-0.045,0.028-0.082,0.043-0.113l-0.286-0.168       C498.405,273.591,498.378,273.624,498.346,273.657z"/>
					<path fill="#E59933" d="M498.252,273.741c-0.033,0.027-0.071,0.055-0.114,0.083c0,0-0.066,0.033-0.16,0.105       c-0.029-0.181-0.077-0.289-0.077-0.289c-0.017-0.05-0.028-0.095-0.037-0.137l-0.441-0.065       c-0.021,0.037-0.045,0.078-0.075,0.118c0,0-0.021,0.024-0.052,0.07c0.307,0.194,0.51,0.535,0.51,0.927       c0,0.234-0.074,0.453-0.2,0.631c0.018,0.01,0.032,0.019,0.038,0.024c0,0,0.001,0,0.002,0c0,0,0.001,0,0.002,0.001       c0,0,0.001,0,0.001,0.001c0.021,0.012,0.1,0.058,0.177,0.104c0.059,0.035,0.124,0.066,0.157,0.041       c0.667-0.551,0.636-1.249,0.636-1.249c0.004-0.052,0.01-0.098,0.017-0.14L498.252,273.741z"/>
					<path fill="#E59933" d="M496.71,273.527c-0.567,0-1.025,0.459-1.025,1.027c0,0.566,0.458,1.024,1.025,1.024       s1.026-0.458,1.026-1.024C497.736,273.986,497.277,273.527,496.71,273.527z M496.406,273.939c0-0.066,0.054-0.121,0.122-0.121       c0.067,0,0.121,0.055,0.121,0.121c0,0.068-0.054,0.12-0.121,0.12C496.46,274.059,496.406,274.007,496.406,273.939z        M496.71,274.409c-0.066,0-0.121-0.055-0.121-0.121c0-0.067,0.054-0.122,0.121-0.122c0.067,0,0.122,0.055,0.122,0.122       C496.832,274.354,496.777,274.409,496.71,274.409z M496.894,274.059c-0.067,0-0.121-0.052-0.121-0.12       c0-0.066,0.054-0.121,0.121-0.121s0.121,0.055,0.121,0.121C497.015,274.007,496.961,274.059,496.894,274.059z"/>
				</g>
			</g>
		</g>
	</g>
</svg>