<?xml version="1.0" encoding="utf-8"?>
<!DOCTYPE svg PUBLIC "-//W3C//DTD SVG 1.1//EN" "http://www.w3.org/Graphics/SVG/1.1/DTD/svg11.dtd">
<svg version="1.1" xmlns="http://www.w3.org/2000/svg" xmlns:xlink="http://www.w3.org/1999/xlink" xml:space="preserve">
  <g id="floor.5-x:476.10-y:281.16-w:85.9499999999999-h:68.24">
		<g id="hall-x:500.42-y:281.16-w:55.24-h:19.17">
			<polygon fill="#EBEBEB" points="555.663,294.058 555.663,287.309 555.663,287.189 539.32,287.189 539.32,282.221 538.021,281.16      517.563,281.16 516.263,282.18 516.263,287.189 500.416,287.189 500.416,289.511 502.597,289.511 502.551,300.329      539.208,300.329 539.222,290.985 551.588,290.985 551.596,294.058    "/>
		</g>
		<g id="stores-x:476.10-y:286.76-w:85.9499999999999-h:62.64">
			<polygon id="store.1" fill="#FFE3B4" points="544.523,301.328 535.699,301.328 535.703,300.782 502.006,300.782 502.006,289.907      499.9,289.907 499.9,286.762 476.095,286.762 476.095,349.395 493.757,349.395 499.638,349.395 544.523,349.395    "/>
			<polygon id="store.0" fill="#FFE3B4" points="551.133,294.472 551.133,291.333 539.814,291.333 539.814,300.329 545.378,300.329      545.378,347.579 549.909,347.579 550.931,347.579 553.568,347.579 553.568,343.881 562.046,343.881 562.046,294.472    "/>
		</g>
		<g id="icons-x:490.89-y:281.87-w:66.5700000000001-h:17.75">
			<g>
				<circle fill-rule="evenodd" clip-rule="evenodd" fill="#ED3739" cx="497.324" cy="289.017" r="2.025"/>
				<g>
					<circle fill="#FFFFFF" cx="497.325" cy="287.854" r="0.256"/>
					<path fill="#FFFFFF" d="M498.147,288.756l-0.653-0.536c-0.05-0.042-0.109-0.059-0.168-0.059c-0.06,0-0.12,0.018-0.169,0.059       l-0.654,0.536c-0.032,0.026-0.041,0.067-0.023,0.099c0.023,0.037,0.064,0.052,0.101,0.034l0.43-0.188       c0.004-0.004,0.009-0.004,0.018,0c0.004,0.005,0.004,0.014,0.004,0.02l-0.187,1.6c-0.004,0.073,0.046,0.104,0.082,0.114       c0.031,0.008,0.096,0.003,0.124-0.07l0.26-0.95c0-0.003,0.005-0.009,0.014-0.009c0.009,0,0.013,0.006,0.018,0.009l0.26,0.95       c0.023,0.073,0.087,0.079,0.125,0.07c0.032-0.009,0.086-0.041,0.077-0.114l-0.187-1.6c0-0.005,0-0.014,0.009-0.02       c0.005-0.004,0.008-0.004,0.018,0l0.426,0.188c0.036,0.018,0.082,0.003,0.1-0.034       C498.188,288.823,498.179,288.782,498.147,288.756z"/>
				</g>
			</g>
			<g>
				<circle fill-rule="evenodd" clip-rule="evenodd" fill="#ED3739" cx="492.917" cy="289.017" r="2.025"/>
				<g>
					<path fill="#FFFFFF" d="M493.741,288.756l-0.655-0.537c-0.05-0.041-0.109-0.059-0.169-0.059c-0.059,0-0.119,0.019-0.168,0.059       l-0.654,0.537c-0.032,0.026-0.042,0.067-0.023,0.099c0.023,0.037,0.064,0.049,0.101,0.032l0.494-0.219c0.004,0,0.01,0,0.02,0       c0.004,0.004,0.009,0.01,0.009,0.015l0.018,0.059c0,0.009,0,0.015,0,0.018l-0.279,0.896c0,0.009,0,0.019,0.005,0.027       c0.01,0.01,0.018,0.014,0.027,0.014h0.22c0.018,0,0.032,0.016,0.032,0.033l0.094,0.612c0.015,0.073,0.073,0.095,0.106,0.095       c0.037,0,0.092-0.022,0.105-0.095l0.097-0.612c0.005-0.018,0.018-0.033,0.031-0.033h0.22c0.01,0,0.019-0.004,0.028-0.014       c0.004-0.008,0.009-0.018,0.004-0.027l-0.278-0.896c0-0.003,0-0.009,0-0.018l0.018-0.059c0.005-0.005,0.009-0.01,0.014-0.015       c0.004,0,0.009,0,0.018,0l0.49,0.219c0.036,0.018,0.082,0.005,0.1-0.032C493.781,288.823,493.772,288.782,493.741,288.756z"/>
					<path fill="#FFFFFF" d="M492.917,288.105c0.142,0,0.256-0.115,0.256-0.252c0-0.141-0.114-0.257-0.256-0.257       c-0.142,0-0.256,0.116-0.256,0.257C492.661,287.99,492.775,288.105,492.917,288.105z"/>
				</g>
			</g>
			<g>
				<circle fill-rule="evenodd" clip-rule="evenodd" fill="#ED3739" cx="534.847" cy="283.896" r="2.024"/>
				<g>
					<circle fill="#FFFFFF" cx="534.618" cy="282.805" r="0.197"/>
					<path fill="#FFFFFF" d="M535.959,282.847h-0.497c-0.101,0-0.146,0.027-0.187,0.068l-0.451,0.453l-0.015,0.015l-0.041-0.216       c-0.017-0.082-0.083-0.123-0.151-0.123c-0.067,0-0.133,0.042-0.149,0.123l-0.132,0.693l-0.261,0.262       c-0.021,0.022-0.05,0.041-0.086,0.041h-0.278c-0.195,0-0.361,0.199-0.361,0.382c0,0.2,0.153,0.365,0.347,0.382h0.001h0.508       c0.113,0,0.201-0.076,0.254-0.126l1.097-1.071c0.077-0.075,0.111-0.117,0.22-0.117h0.182c0.208,0,0.379-0.167,0.386-0.375       c0-0.006,0-0.011,0-0.018C536.341,283.019,536.167,282.841,535.959,282.847z M535.962,283.417h-0.241       c-0.081,0-0.158,0.022-0.202,0.067l-1.194,1.174c-0.036,0.037-0.074,0.069-0.146,0.069h-0.445       c-0.099,0-0.179-0.084-0.179-0.181c0-0.096,0.069-0.167,0.158-0.178c0.011,0,0.021,0,0.033,0h0.3       c0.041,0,0.074-0.023,0.099-0.05l0.909-0.905l0.28-0.283c0.06-0.06,0.095-0.09,0.209-0.09h0.416       c0.101,0,0.184,0.082,0.188,0.181c0,0.003,0,0.007,0,0.012C536.144,283.333,536.062,283.417,535.962,283.417z"/>
					<path fill="#FFFFFF" d="M536.129,284.228l-0.799,0.08c-0.004,0.001-0.007,0.001-0.012,0.004       c-0.074,0.017-0.061,0.112,0.007,0.122l0.277,0.034c0.068,0.01,0.09,0.067,0.054,0.113l-0.375,0.487       c-0.029,0.037-0.01,0.076,0.008,0.093c0.016,0.016,0.054,0.037,0.093,0.007l0.488-0.375c0.045-0.034,0.103-0.014,0.112,0.055       l0.034,0.276c0.015,0.071,0.116,0.084,0.124-0.001l0.083-0.804c0.002-0.025-0.006-0.049-0.024-0.067       C536.179,284.233,536.155,284.223,536.129,284.228z"/>
				</g>
			</g>
			<g>
				<circle fill-rule="evenodd" clip-rule="evenodd" fill="#ED3739" cx="555.432" cy="292.114" r="2.025"/>
				<path fill-rule="evenodd" clip-rule="evenodd" fill="#FFFFFF" d="M556.754,290.967h-0.506h-0.003h-0.104h-0.002l-0.002,0.002      h-0.002h-0.002h-0.001l0,0h-0.002h-0.003l0,0h-0.001h-0.002h-0.004l0,0l-0.001,0.003h-0.002l0,0l-0.002,0.002l0,0h-0.002h-0.002      l0,0h-0.001l-0.003,0.004l0,0c-0.006,0.002-0.011,0.006-0.016,0.01l0,0l-0.002,0.002l0,0l0,0l-0.003,0.004l0,0l-0.002,0.002l0,0      c-0.004,0.003-0.008,0.009-0.01,0.015l-0.002,0.004l-0.001,0.001v0.002l-0.001,0.001l0,0l0,0.004l0,0l0,0.001l0,0v0.002l0,0      l-0.001,0.005l0,0.001l0,0v0.004l0,0l0,0.001v0.002l0,0l-0.001,0.001l0,0v0.004v0.002v0.002v0.105v0.002v0.323h-0.323h-0.001      h-0.105h-0.002h-0.002h-0.003h-0.002h-0.001l0,0h-0.003h-0.002l0,0l-0.002,0.001h-0.001l-0.003,0.001h-0.002l-0.002,0.003l0,0      l-0.002,0.001l0,0h-0.002h-0.001l-0.002,0.001l-0.003,0.001c-0.005,0.003-0.011,0.005-0.016,0.01l0,0l-0.001,0.001l-0.001,0.001      l-0.003,0.002l-0.001,0.003l-0.001,0.001c-0.003,0.004-0.008,0.01-0.011,0.015l0,0l-0.001,0.005l0,0l-0.001,0.001l0,0      l-0.001,0.003l0,0v0.001l0,0v0.004h-0.001l0,0v0.002l0,0l-0.002,0.004l0,0l0,0v0.002l0,0l0,0.002l0,0v0.002v0.002l0,0l0,0.002      l0,0.002v0.002v0.002v0.106v0.002v0.322h-0.322h-0.002h-0.106h-0.002h-0.002h-0.002h-0.002l-0.003,0.001h-0.002l0,0.002l0,0      h-0.002h-0.002h-0.003l0,0h-0.002l0,0h-0.002l-0.001,0.001l0,0l-0.002,0.002l0,0h-0.002l-0.001,0.001h-0.001l-0.003,0.001      c-0.005,0.003-0.01,0.006-0.015,0.011h-0.002l0,0l0,0.001l-0.003,0.004l-0.001,0.001l-0.001,0.002      c-0.004,0.004-0.007,0.009-0.01,0.015l-0.002,0.003l-0.001,0.002l-0.001,0.002l0,0v0.001l0,0l-0.002,0.001v0.003l-0.001,0.003      l0,0l0,0.003v0.001l0,0v0.003h-0.001v0.004l0,0v0.002l0,0v0.001v0.003l-0.001,0.002v0.002v0.105v0.002v0.322h-0.321h-0.002      h-0.105h-0.002h-0.002l-0.002,0.001h-0.001h-0.002h-0.002h-0.002l0,0h-0.002l0,0l-0.002,0.002h-0.004l0,0h-0.002h-0.002      l-0.001,0.002h-0.001h-0.002l-0.001,0.002l0,0h-0.001l0,0l-0.003,0.002c-0.006,0.002-0.011,0.006-0.016,0.011h-0.001      l-0.001,0.002l-0.002,0.001l-0.001,0.002l-0.001,0.001l0,0c-0.005,0.005-0.007,0.01-0.011,0.018l0,0l-0.001,0.002l0,0l0,0.002      l0,0l-0.001,0.002h-0.001l0,0.003l0,0l0,0l-0.001,0.004l0,0l-0.001,0.003v0.002l-0.001,0.002l0,0v0.001l-0.001,0.003l0,0v0.001      l0,0v0.002v0.004v0.001v0.002v0.106v0.001V293h-0.428c-0.043,0-0.079,0.033-0.079,0.078v0.104c0,0.043,0.036,0.078,0.079,0.078      h0.505h0.002h0.105h0.002h0.002h0.001h0.002h0.002h0.002h0.002h0.002h0.002l0.003-0.001h0.001l0.001-0.003h0.002h0.002h0.002      l0,0l0.001-0.001l0.004-0.002l0,0c0.006-0.004,0.011-0.006,0.016-0.011h0.001l0,0l0.002-0.002l0.003-0.002l0.001-0.001      l0.001-0.003l0,0c0.004-0.004,0.008-0.011,0.011-0.016l0.001-0.002l0,0l0.001-0.004l0,0h0l0-0.002l0.001-0.002l0,0v-0.002      l0-0.002l0,0l0.002-0.004v-0.001l0,0v-0.002l0,0v-0.002v-0.001l0.001-0.001v-0.001l0,0v-0.003v-0.002v-0.001v-0.004v-0.104      v-0.002v-0.165v-0.035l0.001-0.001v-0.076c0-0.026,0.02-0.044,0.045-0.044h0.169h0.003h0.104h0.002h0.106h0.002h0.001      l0.003-0.002h0.001l0,0l0.002-0.001h0.002l0,0h0.002l0,0h0.002h0.002l0.003-0.003l0,0h0.003h0.001l0,0l0.001-0.002l0,0h0.001      h0.004l0.001-0.002h0.003c0.006-0.003,0.011-0.007,0.016-0.011l0,0l0.001-0.001l0,0l0.001-0.001l0.003-0.004l0-0.002l0,0h0.001      c0.004-0.005,0.007-0.011,0.01-0.015l0,0l0.002-0.004v-0.002l0,0l0.001-0.001l0.001-0.002l0,0l0.001-0.002l0,0v-0.002      l0.001-0.002l0.001-0.004l0-0.002v-0.002l0-0.003l0,0v-0.001l0,0v-0.001l0-0.002v-0.003v-0.001v-0.001v-0.026      c0-0.002,0-0.005,0-0.009v-0.35c0-0.025,0.021-0.046,0.046-0.046h0.169h0.006h0.102h0.002h0.105h0.001h0.002h0.002h0.001h0.002      h0.002l0,0h0.002l0,0h0.001h0.003l0.003-0.002h0.001h0.002l0.002-0.002l0,0h0.001l0,0h0.001l0.002-0.002l0,0l0.003-0.003      c0.005-0.002,0.011-0.006,0.016-0.01v-0.002h0.001h0.001l0.002-0.004h0.001l0.002-0.002l0,0c0.004-0.005,0.007-0.01,0.01-0.015      l0.002-0.004l0,0h0.001l0,0v-0.003l0.001-0.001l0,0l0.001-0.003l0,0v-0.001l0.001-0.003l0,0l0.001-0.004l0-0.002v-0.002l0,0      l0-0.002l0,0v-0.002l0,0l0-0.001l0,0v-0.002l0-0.002v-0.002v-0.002v-0.029l0-0.006v-0.35c0-0.025,0.021-0.047,0.045-0.047h0.171      c0.003,0,0.005,0,0.008,0.002h0.098h0.002h0.104h0.003h0.001l0.002-0.002h0.002h0.002h0.002l0,0h0.002l0,0l0.002-0.001l0,0      h0.002l0.004-0.001l0.001-0.001h0.002h0.001h0l0.002-0.001h0.002l0.001-0.003l0.003-0.001h0.001      c0.005-0.003,0.011-0.006,0.016-0.01l0,0l0.001-0.001l0,0l0.001-0.001l0.002-0.002l0.002-0.002l0,0l0.001-0.002      c0.004-0.003,0.008-0.008,0.011-0.016l0,0l0.002-0.004l0-0.001v0l0-0.002l0.001-0.002l0,0l0.001-0.001l0,0v-0.001l0-0.003      l0.002-0.004v-0.002v-0.002l0.001-0.002l0,0l0,0v-0.004l0,0v-0.001v-0.003l0.001-0.001v-0.002v-0.106v-0.002v-0.163v-0.036l0,0      v-0.042v-0.005v-0.031c0-0.024,0.02-0.043,0.046-0.043h0.034h0.041l0.001-0.002h0.024h0.283c0.042,0,0.077-0.036,0.077-0.078      v-0.105C556.831,291.003,556.796,290.967,556.754,290.967z"/>
			</g>
			<g>
				<circle fill-rule="evenodd" clip-rule="evenodd" fill="#ED3739" cx="555.432" cy="287.707" r="2.025"/>
				<g>
					<path fill="#FFFFFF" d="M555.048,287.287c-0.026-0.021-0.058-0.031-0.089-0.031c-0.03,0-0.062,0.009-0.088,0.031l-0.347,0.281       c-0.015,0.014-0.02,0.036-0.01,0.055l0,0c0.009,0.018,0.033,0.025,0.053,0.018l0.259-0.117c0.003,0,0.006,0,0.01,0.001       c0.002,0.001,0.004,0.003,0.005,0.006l0.01,0.031c0.001,0.002,0.001,0.006,0,0.01l-0.146,0.471       c-0.002,0.007-0.001,0.011,0.001,0.016c0.004,0.004,0.01,0.009,0.016,0.009h0.115c0.008,0,0.016,0.006,0.017,0.014l0.051,0.324       c0.005,0.041,0.036,0.051,0.054,0.051c0.02,0,0.049-0.011,0.055-0.051l0.051-0.324c0.001-0.008,0.008-0.014,0.017-0.014h0.115       c0.006,0,0.012-0.004,0.014-0.009c0.004-0.005,0.005-0.009,0.004-0.016l-0.147-0.471c-0.001-0.004-0.001-0.008,0-0.01       l0.01-0.031c0.001-0.003,0.002-0.005,0.006-0.006c0.003-0.001,0.006-0.001,0.01-0.001l0.258,0.117       c0.019,0.008,0.042,0,0.053-0.018l0,0c0.01-0.019,0.005-0.041-0.011-0.055L555.048,287.287z"/>
					<path fill="#FFFFFF" d="M554.112,287.659l-0.102,0.079c-0.024,0.02-0.051,0.008-0.055-0.019l-0.037-0.282       c-0.003-0.022-0.021-0.028-0.032-0.028c-0.012,0-0.031,0.006-0.033,0.028l-0.037,0.282c-0.003,0.026-0.029,0.038-0.055,0.019       l-0.1-0.079c-0.026-0.019-0.062,0.007-0.043,0.038c0.001,0.002,0.002,0.002,0.003,0.005l0.233,0.288       c0.008,0.009,0.019,0.014,0.031,0.014c0.011,0,0.021-0.005,0.029-0.014l0.236-0.29       C554.177,287.67,554.14,287.641,554.112,287.659z"/>
					<circle fill="#FFFFFF" cx="555.917" cy="287.092" r="0.134"/>
					<circle fill="#FFFFFF" cx="554.958" cy="287.092" r="0.134"/>
					<path fill="#FFFFFF" d="M556.006,287.287c-0.027-0.021-0.059-0.032-0.089-0.032s-0.062,0.011-0.088,0.032l-0.346,0.281       c-0.017,0.014-0.021,0.036-0.012,0.055l0,0c0.011,0.018,0.034,0.024,0.053,0.018l0.226-0.102       c0.004-0.001,0.008-0.001,0.01,0.002c0.003,0.001,0.004,0.004,0.004,0.009l-0.099,0.844c-0.005,0.04,0.024,0.057,0.043,0.061       c0.018,0.004,0.051,0.002,0.064-0.038l0.137-0.5c0.001-0.004,0.004-0.007,0.009-0.007s0.008,0.003,0.009,0.007l0.138,0.5       c0.012,0.04,0.045,0.042,0.064,0.038c0.017-0.004,0.046-0.021,0.042-0.061l-0.099-0.844c0-0.005,0.001-0.008,0.004-0.009       c0.003-0.003,0.006-0.003,0.009-0.002l0.227,0.102c0.019,0.007,0.042,0,0.052-0.018l0,0c0.01-0.019,0.005-0.041-0.012-0.055       L556.006,287.287z"/>
					<path fill="#FFFFFF" d="M557.245,287.717c0-0.002-0.002-0.003-0.003-0.004l-0.234-0.289c-0.008-0.009-0.018-0.014-0.03-0.014       c-0.013,0-0.023,0.005-0.031,0.014l-0.235,0.29c-0.024,0.03,0.012,0.057,0.04,0.042l0.102-0.08       c0.025-0.021,0.051-0.009,0.055,0.02l0.037,0.279c0.002,0.024,0.021,0.029,0.033,0.029c0.011,0,0.03-0.005,0.033-0.029       l0.037-0.279c0.004-0.029,0.028-0.041,0.053-0.02l0.102,0.08C557.227,287.774,557.263,287.747,557.245,287.717z"/>
					<path fill="#FFFFFF" d="M556.181,286.521h-1.485c-0.244,0-0.444,0.199-0.444,0.444v1.485c0,0.244,0.2,0.442,0.444,0.442h1.485       c0.245,0,0.444-0.199,0.444-0.442v-1.485C556.625,286.72,556.425,286.521,556.181,286.521z M556.483,288.45       c0,0.167-0.136,0.304-0.303,0.304h-1.485c-0.167,0-0.303-0.137-0.303-0.304v-1.485c0-0.167,0.137-0.304,0.303-0.304h1.485       c0.167,0,0.303,0.137,0.303,0.304V288.45z"/>
				</g>
			</g>
			<g>
				<path fill-rule="evenodd" clip-rule="evenodd" fill="#ED3739" d="M501.731,292.592c0,1.117-0.907,2.023-2.025,2.023      c-1.117,0-2.024-0.907-2.024-2.023c0-1.121,0.908-2.027,2.024-2.027C500.824,290.565,501.731,291.471,501.731,292.592z"/>
				<g>
					<path fill-rule="evenodd" clip-rule="evenodd" fill="#FFFFFF" d="M500.31,293.081l-0.017-0.073c0-0.006,0-0.01,0-0.01v-0.003       h-0.005v-0.005v-0.004h-0.005v-0.006h-0.005v-0.004h-0.005v-0.003h-0.004v-0.006h-0.004c-0.005-0.004-0.01-0.004-0.018-0.01       c-0.006,0-0.015,0-0.018,0h-0.005l-0.129,0.028c-0.013,0.004-0.022,0.012-0.033,0.022c-0.004,0.009-0.004,0.017-0.008,0.023       c0,0.003,0,0.009,0,0.015l0.004,0.016l0.004,0.014c0.033,0.169-0.008,0.338-0.095,0.468l-0.004,0.005l-0.005,0.008       l-0.004,0.005l-0.005,0.005c-0.009,0.013-0.014,0.023-0.023,0.031c-0.041,0.045-0.088,0.092-0.141,0.122l-0.005,0.006       l-0.009,0.003l-0.004,0.003c-0.061,0.035-0.125,0.061-0.193,0.075h-0.005h-0.004c-0.169,0.036-0.334-0.004-0.467-0.091       l-0.013-0.009c-0.01-0.006-0.019-0.014-0.022-0.017l-0.015-0.012l-0.009-0.008l-0.009-0.009h-0.005l-0.01-0.008l-0.009-0.01       c-0.146-0.14-0.21-0.34-0.182-0.535v-0.006l0.004-0.009v-0.004v-0.008v-0.006l0.005-0.008v-0.006v-0.014h0.004v-0.008v-0.006       l0.005-0.009v-0.005l0.005-0.009v-0.003l0.003-0.01v-0.003l0.005-0.009v-0.006l0.005-0.007v-0.006l0.004-0.01l0.004-0.004       l0.004-0.015l0.005-0.012l0.004-0.013c0.064-0.124,0.165-0.223,0.292-0.281c0.014-0.004,0.023-0.014,0.029-0.023h0.003       c0.005-0.009,0.005-0.013,0.005-0.022v-0.004c0.005-0.004,0.005-0.009,0-0.02l-0.022-0.122       c-0.004-0.013-0.01-0.027-0.022-0.036c-0.01-0.009-0.023-0.015-0.042-0.015v0.005h-0.005h-0.005h-0.004l-0.009,0.005       c-0.187,0.077-0.333,0.217-0.426,0.388l-0.008,0.02h-0.005l-0.004,0.017l-0.004,0.005l-0.004,0.014v0.005l-0.009,0.012v0.006       l-0.009,0.013v0.005l-0.005,0.012v0.006l-0.008,0.018l-0.005,0.017c-0.096,0.32-0.005,0.663,0.233,0.887l0.018,0.013       l0.014,0.011v0.006l0.014,0.011h0.004l0.014,0.012l0.015,0.013h0.004l0.013,0.011l0.019,0.013       c0.183,0.123,0.416,0.177,0.653,0.13l0.018-0.004h0.006l0.018-0.003l0.018-0.005l0.023-0.009l0.018-0.005l0.022-0.011       l0.018-0.002l0.02-0.011l0.018-0.008h0.005l0.014-0.005l0.004-0.003l0.014-0.006l0.004-0.005l0.015-0.004l0.004-0.006       l0.014-0.003l0.004-0.005l0.009-0.006l0.009-0.004l0.009-0.009l0.009-0.005l0.01-0.002l0.008-0.006l0.009-0.005l0.009-0.008       l0.005-0.005l0.014-0.011l0.014-0.013h0.004c0.009-0.004,0.018-0.012,0.027-0.023h0.004l0.014-0.013       c0.041-0.036,0.072-0.076,0.11-0.117l0.009-0.014v-0.005l0.015-0.014l0.008-0.015v-0.003l0.008-0.014l0.006-0.005l0.004-0.009       l0.009-0.008v-0.009l0.01-0.01v-0.005l0.009-0.014v-0.004c0.081-0.154,0.117-0.332,0.095-0.511V293.081z"/>
					<path fill-rule="evenodd" clip-rule="evenodd" fill="#FFFFFF" d="M500.835,293.375l-0.113-0.707       c-0.023-0.137-0.12-0.2-0.252-0.2h-0.535c-0.031,0-0.074-0.005-0.083-0.061l-0.049-0.231c0-0.012,0.013-0.021,0.031-0.018       l0.595,0.188c0.096,0.031,0.146-0.096,0.064-0.147l-0.819-0.466c-0.078-0.045-0.164-0.071-0.25-0.042       c-0.102,0.032-0.16,0.129-0.138,0.245l0.138,0.741c0.022,0.153,0.155,0.213,0.292,0.184l0.672-0.112       c0.014-0.004,0.028,0.006,0.032,0.018l0.216,0.659c0.022,0.068,0.087,0.077,0.123,0.068       C500.79,293.484,500.848,293.452,500.835,293.375z"/>
					<path fill-rule="evenodd" clip-rule="evenodd" fill="#FFFFFF" d="M499.347,291.594c0.13-0.026,0.212-0.155,0.187-0.282       c-0.026-0.133-0.152-0.215-0.281-0.188c-0.13,0.026-0.211,0.15-0.19,0.28C499.089,291.533,499.218,291.621,499.347,291.594z"/>
				</g>
			</g>
			<g>
				<circle fill-rule="evenodd" clip-rule="evenodd" fill="#FFFFFF" cx="542.947" cy="296.164" r="2.025"/>
				<g>
					<path fill="#E59933" d="M544.641,295.499c-0.877,0.206-1.358-0.16-1.557-0.291c-0.228-0.147-0.265,1.747,0.356,1.945       c0,0,0.129,0.035,0.185,0.029C544.365,297.11,544.805,295.461,544.641,295.499z M543.442,295.858       c0.024,0.009,0.039,0.016,0.044,0.02c0.137,0.059,0.119,0.21,0.119,0.21l-0.402-0.192       C543.203,295.896,543.303,295.807,543.442,295.858z M543.628,296.832c-0.02,0-0.035-0.003-0.043-0.005       c-0.227-0.039-0.359-0.379-0.288-0.326c0.168,0.127,0.36,0.198,0.65,0.122C544.01,296.605,543.854,296.834,543.628,296.832z        M543.823,296.124c0,0,0.051-0.125,0.199-0.142c0.025-0.002,0.041-0.002,0.047-0.002c0.151-0.006,0.199,0.136,0.199,0.136       L543.823,296.124z"/>
					<path fill="#E59933" d="M542.893,295.261c-0.029-0.097-0.06-0.149-0.087-0.129c-0.722,0.546-1.308,0.407-1.541,0.369       c-0.267-0.042,0.452,1.706,1.1,1.635c0,0,0.132-0.021,0.183-0.048c0.205-0.116,0.318-0.367,0.376-0.651       C542.835,296.006,542.836,295.521,542.893,295.261z M542.681,295.839c0,0-0.049,0.127-0.197,0.143       c-0.025,0.004-0.041,0.004-0.047,0.004c-0.149,0.007-0.201-0.134-0.201-0.134L542.681,295.839z M541.923,296.114       c-0.022,0.014-0.036,0.02-0.042,0.025c-0.13,0.072-0.237-0.032-0.237-0.032l0.395-0.208       C542.038,295.898,542.048,296.035,541.923,296.114z M542.682,296.685c-0.205-0.044-0.41-0.033-0.644,0.155       c-0.051,0.042,0.002-0.231,0.209-0.322c0.018-0.009,0.033-0.011,0.042-0.016C542.511,296.448,542.767,296.704,542.682,296.685z       "/>
				</g>
			</g>
			<g>
				<circle fill-rule="evenodd" clip-rule="evenodd" fill="#FFFFFF" cx="499.35" cy="297.594" r="2.025"/>
				<g>
					<path fill="#E59933" d="M498.898,298.737c0.714,0,1.293-0.576,1.293-1.292c0-0.712-0.579-1.293-1.293-1.293       c-0.714,0-1.292,0.581-1.292,1.293C497.607,298.161,498.185,298.737,498.898,298.737z M498.307,298.367       c-0.161,0-0.29-0.13-0.29-0.287c0-0.163,0.128-0.291,0.29-0.291c0.159,0,0.289,0.128,0.289,0.291       C498.596,298.237,498.466,298.367,498.307,298.367z M498.657,297.588c-0.047,0-0.083-0.038-0.083-0.083       c0-0.048,0.036-0.083,0.083-0.083c0.045,0,0.081,0.035,0.081,0.083C498.737,297.55,498.702,297.588,498.657,297.588z        M498.898,297.565c-0.065,0-0.119-0.053-0.119-0.12c0-0.067,0.054-0.121,0.119-0.121c0.067,0,0.121,0.054,0.121,0.121       C499.02,297.512,498.965,297.565,498.898,297.565z M499.08,297.525c0.045,0,0.083,0.038,0.083,0.083       c0,0.046-0.038,0.083-0.083,0.083c-0.044,0-0.081-0.037-0.081-0.083C498.999,297.563,499.035,297.525,499.08,297.525z        M498.72,297.339c-0.045,0-0.082-0.038-0.082-0.083c0-0.043,0.037-0.082,0.082-0.082c0.046,0,0.083,0.039,0.083,0.082       C498.803,297.301,498.766,297.339,498.72,297.339z M498.761,297.69c0-0.046,0.038-0.083,0.083-0.083       c0.044,0,0.082,0.036,0.082,0.083c0,0.047-0.037,0.082-0.082,0.082C498.799,297.772,498.761,297.737,498.761,297.69z        M499.131,298.578c-0.16,0-0.29-0.128-0.29-0.288c0-0.161,0.129-0.289,0.29-0.289c0.16,0,0.289,0.128,0.289,0.289       C499.42,298.45,499.291,298.578,499.131,298.578z M500.006,297.676c0,0.159-0.129,0.291-0.289,0.291       c-0.16,0-0.289-0.132-0.289-0.291s0.129-0.29,0.289-0.29C499.877,297.387,500.006,297.518,500.006,297.676z M499.517,296.53       c0.161,0,0.291,0.128,0.291,0.289s-0.129,0.289-0.291,0.289c-0.16,0-0.289-0.128-0.289-0.289S499.356,296.53,499.517,296.53z        M499.143,297.293c0.045,0,0.082,0.036,0.082,0.082s-0.037,0.083-0.082,0.083c-0.046,0-0.083-0.037-0.083-0.083       S499.097,297.293,499.143,297.293z M499.039,297.2c0,0.044-0.038,0.084-0.082,0.084c-0.046,0-0.083-0.04-0.083-0.084       c0-0.044,0.037-0.081,0.083-0.081C499.001,297.119,499.039,297.155,499.039,297.2z M498.69,296.31       c0.159,0,0.289,0.129,0.289,0.289s-0.13,0.288-0.289,0.288c-0.16,0-0.29-0.128-0.29-0.288S498.53,296.31,498.69,296.31z        M497.793,297.23c0-0.161,0.129-0.29,0.289-0.29c0.16,0,0.289,0.129,0.289,0.29c0,0.16-0.129,0.287-0.289,0.287       C497.922,297.518,497.793,297.391,497.793,297.23z"/>
					<path fill="#E59933" d="M501.091,297.867c-0.064-0.036-0.398-0.024-0.398-0.024c-0.267,0.022-0.391,0.09-0.718,0.471       c-0.447,0.519-1.027,0.507-1.027,0.507c-0.878,0-1.198-0.633-1.198-0.633c0.294,0.612,0.655,0.848,1.264,0.848       c0.61,0,0.958-0.302,1.131-0.465c0.174-0.165,0.431-0.282,0.559-0.28c0.231,0.004,0.231,0.054,0.328,0.039       C501.106,298.315,501.091,297.867,501.091,297.867z"/>
				</g>
			</g>
		</g>
	</g>
</svg>