<?xml version="1.0" encoding="UTF-8" standalone="no"?>
<svg xmlns="http://www.w3.org/2000/svg" xmlns:xlink="http://www.w3.org/1999/xlink" id="svg2" width="900" height="115">
<defs>
<circle id="station" cx="0" cy="0" r="5" fill="white" style="stroke:#000000; stroke-width:1;"/>
</defs>
<line id="wil" x1="50" y1="50" x2="200" y2="50" style="stroke:#006CAE;stroke-width:6px;opacity:0.5" />
<line id="maintrack" x1="200" y1="50" x2="850" y2="50" style="stroke:#006CAE;stroke-width:6px;" />
<use xlink:href="#station" id="station1" x="50" y="50"/>
<use xlink:href="#station" id="station2" x="100" y="50"/>
<use xlink:href="#station" id="station3" x="150" y="50"/>
<use xlink:href="#station" id="station4" x="200" y="50"/>
<use xlink:href="#station" id="station5" x="250" y="50"/>
<use xlink:href="#station" id="station6" x="300" y="50"/>
<use xlink:href="#station" id="station7" x="350" y="50"/>
<use xlink:href="#station" id="station8" x="400" y="50"/>
<use xlink:href="#station" id="station9" x="450" y="50"/>
<use xlink:href="#station" id="station10" x="500" y="50"/>
<use xlink:href="#station" id="station11" x="550" y="50"/>
<use xlink:href="#station" id="station12" x="600" y="50"/>
<use xlink:href="#station" id="station13" x="650" y="50"/>
<use xlink:href="#station" id="station14" x="700" y="50"/>
<use xlink:href="#station" id="station15" x="750" y="50"/>
<use xlink:href="#station" id="station16" x="800" y="50"/>
<use xlink:href="#station" id="station16" x="850" y="50"/>
<text style="font-size:19px;font-family:Simhei, AR PL Mingti2L Big5;">
<tspan x="13" y="23">堅尼地城</tspan>
<tspan x="62" y="75">香港大學</tspan>
<tspan x="122" y="23">西營盤</tspan>
<tspan x="180" y="75">上環</tspan>
<tspan x="231" y="23">中環</tspan>
<tspan x="280" y="75">金鐘</tspan>
<tspan x="331" y="23">灣仔</tspan>
<tspan x="372" y="75">銅鑼灣</tspan>
<tspan x="431" y="23">天后</tspan>
<tspan x="472" y="75">炮台山</tspan>
<tspan x="531" y="23">北角</tspan>
<tspan x="572" y="75">鰂魚涌</tspan>
<tspan x="631" y="23">太古</tspan>
<tspan x="672" y="75">西灣河</tspan>
<tspan x="720" y="23">筲箕灣</tspan>
<tspan x="770" y="75">杏花邨</tspan>
<tspan x="831" y="23">柴灣</tspan>
</text>
<text style="font-size:13px;font-family:Arial">
<tspan x="7" y="38">Kennedy Town</tspan>
<tspan x="67" y="90">Hong Kong</tspan>
<tspan x="71" y="105">University</tspan>
<tspan x="112" y="38">Sai Ying Pun</tspan>
<tspan x="162" y="90">Sheung Wan</tspan>
<tspan x="229" y="38">Central</tspan>
<tspan x="273" y="90">Admiralty</tspan>
<tspan x="321" y="38">Wan Chai</tspan>
<tspan x="356" y="90">Causeway Bay</tspan>
<tspan x="427" y="38">Tin Hau</tspan>
<tspan x="465" y="90">Fortress Hill</tspan>
<tspan x="516" y="38">North Point</tspan>
<tspan x="567" y="90">Quarry Bay</tspan>
<tspan x="627" y="38">Tai Koo</tspan>
<tspan x="665" y="90">Sai Wan Ho</tspan>
<tspan x="712" y="38">Sau Kei Wan</tspan>
<tspan x="754" y="90">Heng Fa Chuen</tspan>
<tspan x="822" y="38">Chai Wan</tspan>
</text>
</svg>