<?xml version="1.0" encoding="utf-8"?>
<!-- Generator: Adobe Illustrator 12.0.0, SVG Export Plug-In . SVG Version: 6.00 Build 51448)  -->
<!DOCTYPE svg PUBLIC "-//W3C//DTD SVG 1.1//EN" "http://www.w3.org/Graphics/SVG/1.1/DTD/svg11.dtd" [
	<!ENTITY ns_svg "http://www.w3.org/2000/svg">
	<!ENTITY ns_xlink "http://www.w3.org/1999/xlink">
]>
<svg  version="1.1" id="Layer_1" xmlns="&ns_svg;" xmlns:xlink="&ns_xlink;" width="13039.371" height="440.567"
	 viewBox="0 0 13039.371 440.567" overflow="visible" enable-background="new 0 0 13039.371 440.567" xml:space="preserve">
<path fill="#F0002E" d="M5526.512,225.214c0,0.826-0.627,1.42-1.336,1.42c-0.871,0-1.498-0.594-1.498-1.42
	c0-0.784,0.627-1.415,1.498-1.415C5525.885,223.799,5526.512,224.43,5526.512,225.214z"/>
<line fill="none" stroke="#000000" stroke-width="0.5" x1="0" y1="225.217" x2="13039.371" y2="225.217"/>
<line fill="none" stroke="#00AAED" stroke-width="10" x1="464.882" y1="161.409" x2="464.882" y2="297.571"/>
<line fill="none" stroke="#838B6B" stroke-width="10" x1="345.827" y1="161.409" x2="345.827" y2="297.571"/>
<line fill="none" stroke="#FBAB72" stroke-width="10" x1="201.26" y1="161.409" x2="201.26" y2="297.571"/>
<line fill="none" stroke="#F0002E" stroke-width="10" x1="685.984" y1="161.409" x2="685.984" y2="297.571"/>
<line fill="none" stroke="#F0002E" stroke-width="20" x1="2245.04" y1="161.409" x2="2245.04" y2="297.571"/>
<line fill="none" stroke="#927150" stroke-width="20" x1="4101.732" y1="161.409" x2="4101.732" y2="297.571"/>
<line fill="none" stroke="#537686" stroke-width="20" x1="7976.694" y1="161.409" x2="7976.694" y2="297.571"/>
<line fill="none" stroke="#00AAED" stroke-width="20" x1="12795.592" y1="161.409" x2="12795.592" y2="297.571"/>
<circle fill="#F56D2E" cx="19.842" cy="225.216" r="19.843"/>
<path fill="#C1C2C5" d="M788.492,225.216c0,22.897,158.527,41.459,354.093,41.459c195.554,0,354.086-18.562,354.086-41.459
	c0-22.896-158.532-41.456-354.086-41.456C947.019,183.76,788.492,202.32,788.492,225.216z"/>
<text transform="matrix(1 0 0 1 165.8052 109.3926)" font-family="'ArialMT'" font-size="127.4994">1</text>
<text transform="matrix(1 0 0 1 310.3716 109.3926)" font-family="'ArialMT'" font-size="127.4994">2</text>
<text transform="matrix(1 0 0 1 434.2886 399.167)" font-family="'ArialMT'" font-size="127.4994">3</text>
<g>
	<path d="M854.186,218.272l1.283-3.962c2.956,1.042,5.103,1.944,6.441,2.707c-0.353-3.367-0.538-5.683-0.557-6.949h4.032
		c-0.056,1.842-0.269,4.148-0.64,6.92c1.914-0.967,4.107-1.86,6.581-2.679l1.283,3.962c-2.362,0.78-4.677,1.299-6.946,1.559
		c1.134,0.983,2.733,2.737,4.798,5.26l-3.347,2.366c-1.079-1.466-2.35-3.46-3.815-5.984c-1.372,2.616-2.579,4.611-3.62,5.984
		l-3.292-2.366c2.157-2.653,3.7-4.406,4.631-5.26C858.62,219.367,856.342,218.847,854.186,218.272z"/>
</g>
<g>
	<path d="M917.327,212.112l1.283-3.962c2.956,1.042,5.103,1.944,6.441,2.707c-0.352-3.367-0.538-5.683-0.556-6.949h4.032
		c-0.056,1.842-0.269,4.148-0.64,6.92c1.914-0.967,4.107-1.86,6.58-2.679l1.283,3.962c-2.361,0.78-4.677,1.299-6.946,1.559
		c1.135,0.983,2.734,2.737,4.798,5.26l-3.347,2.366c-1.079-1.466-2.35-3.46-3.815-5.984c-1.372,2.616-2.579,4.611-3.62,5.984
		l-3.292-2.366c2.157-2.653,3.701-4.406,4.631-5.26C921.762,213.207,919.484,212.687,917.327,212.112z"/>
</g>
<g>
	<path d="M965.069,225.202l1.283-3.962c2.956,1.042,5.103,1.944,6.441,2.707c-0.353-3.367-0.538-5.683-0.556-6.948h4.032
		c-0.056,1.842-0.27,4.148-0.64,6.92c1.913-0.967,4.107-1.86,6.58-2.679l1.284,3.962c-2.362,0.78-4.677,1.299-6.946,1.559
		c1.134,0.983,2.734,2.737,4.798,5.26l-3.347,2.366c-1.079-1.466-2.35-3.46-3.815-5.983c-1.372,2.616-2.579,4.61-3.62,5.983
		l-3.291-2.366c2.157-2.653,3.7-4.406,4.631-5.26C969.503,226.297,967.226,225.778,965.069,225.202z"/>
</g>
<g>
	<path d="M1043.611,224.432l1.283-3.962c2.956,1.042,5.103,1.944,6.44,2.707c-0.352-3.367-0.538-5.683-0.556-6.948h4.032
		c-0.056,1.842-0.27,4.148-0.64,6.92c1.914-0.968,4.107-1.86,6.58-2.679l1.284,3.962c-2.362,0.78-4.677,1.299-6.946,1.559
		c1.134,0.983,2.734,2.737,4.798,5.26l-3.347,2.366c-1.079-1.465-2.35-3.46-3.815-5.984c-1.372,2.617-2.579,4.611-3.62,5.984
		l-3.291-2.366c2.157-2.653,3.7-4.406,4.631-5.26C1048.045,225.527,1045.768,225.007,1043.611,224.432z"/>
</g>
<g>
	<path d="M1003.569,210.572l1.283-3.962c2.956,1.042,5.103,1.944,6.44,2.707c-0.352-3.367-0.537-5.683-0.556-6.949h4.032
		c-0.056,1.842-0.27,4.148-0.64,6.92c1.913-0.967,4.107-1.86,6.581-2.679l1.283,3.962c-2.361,0.78-4.677,1.299-6.945,1.559
		c1.134,0.983,2.734,2.737,4.798,5.26l-3.347,2.366c-1.079-1.466-2.351-3.46-3.815-5.984c-1.372,2.616-2.579,4.611-3.62,5.984
		l-3.291-2.366c2.157-2.653,3.7-4.406,4.631-5.26C1008.004,211.667,1005.727,211.147,1003.569,210.572z"/>
</g>
<g>
	<path d="M964.189,202.803l1.283-3.962c2.956,1.042,5.103,1.944,6.441,2.707c-0.353-3.367-0.538-5.683-0.556-6.949h4.032
		c-0.056,1.842-0.269,4.148-0.64,6.92c1.914-0.967,4.107-1.86,6.581-2.679l1.283,3.962c-2.362,0.78-4.677,1.299-6.946,1.559
		c1.134,0.983,2.734,2.737,4.798,5.26l-3.347,2.366c-1.079-1.466-2.35-3.46-3.815-5.984c-1.372,2.616-2.579,4.611-3.62,5.984
		l-3.292-2.366c2.157-2.653,3.7-4.406,4.631-5.26C968.624,203.897,966.346,203.378,964.189,202.803z"/>
</g>
<g>
	<path d="M1027.331,196.643l1.283-3.962c2.956,1.042,5.103,1.944,6.441,2.707c-0.352-3.367-0.538-5.683-0.556-6.949h4.032
		c-0.056,1.842-0.269,4.148-0.64,6.92c1.914-0.967,4.107-1.86,6.58-2.679l1.283,3.962c-2.361,0.78-4.677,1.299-6.946,1.559
		c1.135,0.983,2.733,2.737,4.798,5.26l-3.347,2.366c-1.079-1.466-2.35-3.46-3.815-5.984c-1.372,2.616-2.579,4.611-3.62,5.984
		l-3.292-2.366c2.157-2.653,3.701-4.406,4.631-5.26C1031.766,197.737,1029.487,197.218,1027.331,196.643z"/>
</g>
<g>
	<path d="M1075.072,209.733l1.283-3.962c2.957,1.042,5.103,1.944,6.441,2.707c-0.353-3.367-0.538-5.683-0.556-6.948h4.032
		c-0.056,1.842-0.269,4.148-0.64,6.92c1.914-0.967,4.107-1.86,6.581-2.679l1.283,3.962c-2.362,0.78-4.677,1.299-6.946,1.559
		c1.134,0.983,2.734,2.737,4.798,5.26l-3.348,2.366c-1.078-1.466-2.35-3.46-3.814-5.983c-1.372,2.616-2.579,4.61-3.62,5.983
		l-3.292-2.366c2.157-2.653,3.7-4.406,4.631-5.26C1079.507,210.828,1077.229,210.309,1075.072,209.733z"/>
</g>
<g>
	<path d="M1153.614,208.963l1.283-3.962c2.956,1.042,5.103,1.944,6.441,2.707c-0.352-3.367-0.538-5.683-0.556-6.948h4.032
		c-0.056,1.842-0.269,4.148-0.64,6.92c1.914-0.968,4.107-1.86,6.581-2.679l1.283,3.962c-2.362,0.78-4.677,1.299-6.946,1.559
		c1.134,0.983,2.734,2.737,4.798,5.26l-3.347,2.366c-1.079-1.465-2.35-3.46-3.815-5.984c-1.372,2.617-2.578,4.611-3.62,5.984
		l-3.291-2.366c2.157-2.653,3.7-4.406,4.631-5.26C1158.049,210.058,1155.771,209.538,1153.614,208.963z"/>
</g>
<g>
	<path d="M1113.573,195.103l1.283-3.962c2.956,1.042,5.103,1.944,6.441,2.707c-0.352-3.367-0.538-5.683-0.556-6.949h4.032
		c-0.056,1.842-0.269,4.148-0.64,6.92c1.914-0.967,4.107-1.86,6.581-2.679l1.283,3.962c-2.361,0.78-4.677,1.299-6.945,1.559
		c1.134,0.983,2.734,2.737,4.798,5.26l-3.347,2.366c-1.079-1.466-2.351-3.46-3.815-5.984c-1.372,2.616-2.578,4.611-3.62,5.984
		l-3.291-2.366c2.157-2.653,3.7-4.406,4.631-5.26C1118.008,196.197,1115.73,195.678,1113.573,195.103z"/>
</g>
<g>
	<path d="M933.25,240.616l1.284-3.962c2.956,1.042,5.103,1.944,6.441,2.707c-0.353-3.367-0.538-5.683-0.557-6.949h4.032
		c-0.056,1.842-0.269,4.148-0.64,6.92c1.914-0.967,4.107-1.86,6.581-2.679l1.283,3.962c-2.362,0.78-4.677,1.299-6.946,1.559
		c1.135,0.983,2.734,2.737,4.799,5.26l-3.347,2.366c-1.079-1.466-2.35-3.46-3.815-5.984c-1.372,2.616-2.579,4.611-3.62,5.984
		l-3.292-2.366c2.157-2.653,3.7-4.406,4.631-5.26C937.685,241.711,935.407,241.191,933.25,240.616z"/>
</g>
<g>
	<path d="M996.392,234.456l1.283-3.962c2.956,1.042,5.103,1.944,6.441,2.707c-0.352-3.367-0.538-5.683-0.556-6.949h4.032
		c-0.056,1.842-0.269,4.148-0.64,6.92c1.914-0.967,4.107-1.86,6.58-2.679l1.283,3.962c-2.361,0.78-4.677,1.299-6.946,1.559
		c1.135,0.983,2.734,2.737,4.798,5.26l-3.347,2.366c-1.079-1.466-2.35-3.46-3.815-5.984c-1.372,2.616-2.579,4.611-3.62,5.984
		l-3.292-2.366c2.157-2.653,3.701-4.406,4.631-5.26C1000.827,235.551,998.549,235.031,996.392,234.456z"/>
</g>
<g>
	<path d="M1044.134,247.546l1.283-3.962c2.956,1.042,5.103,1.944,6.441,2.707c-0.353-3.367-0.538-5.683-0.556-6.948h4.031
		c-0.055,1.842-0.269,4.148-0.639,6.92c1.914-0.967,4.107-1.86,6.581-2.679l1.283,3.962c-2.362,0.78-4.677,1.299-6.946,1.559
		c1.134,0.983,2.734,2.737,4.798,5.26l-3.347,2.366c-1.079-1.466-2.35-3.46-3.815-5.983c-1.372,2.616-2.579,4.61-3.62,5.983
		l-3.292-2.366c2.157-2.653,3.7-4.406,4.631-5.26C1048.568,248.641,1046.291,248.122,1044.134,247.546z"/>
</g>
<g>
	<path d="M1122.676,224.432l1.283-3.962c2.956,1.042,5.103,1.944,6.44,2.707c-0.352-3.367-0.538-5.683-0.556-6.948h4.031
		c-0.056,1.842-0.269,4.148-0.639,6.92c1.914-0.968,4.107-1.86,6.581-2.679l1.283,3.962c-2.362,0.78-4.677,1.299-6.946,1.559
		c1.134,0.983,2.734,2.737,4.798,5.26l-3.347,2.366c-1.079-1.465-2.35-3.46-3.815-5.984c-1.372,2.617-2.579,4.611-3.62,5.984
		l-3.291-2.366c2.157-2.653,3.7-4.406,4.631-5.26C1127.11,225.527,1124.832,225.007,1122.676,224.432z"/>
</g>
<g>
	<path d="M1082.634,232.916l1.283-3.962c2.957,1.042,5.103,1.944,6.441,2.707c-0.352-3.367-0.538-5.683-0.556-6.949h4.032
		c-0.056,1.842-0.269,4.148-0.64,6.92c1.914-0.967,4.107-1.86,6.581-2.679l1.283,3.962c-2.361,0.78-4.677,1.299-6.945,1.559
		c1.134,0.983,2.734,2.737,4.798,5.26l-3.347,2.366c-1.079-1.466-2.351-3.46-3.815-5.984c-1.372,2.616-2.579,4.611-3.62,5.984
		l-3.291-2.366c2.157-2.653,3.7-4.406,4.631-5.26C1087.069,234.011,1084.791,233.491,1082.634,232.916z"/>
</g>
<g>
	<path d="M1160.132,242.335l1.283-3.962c2.956,1.042,5.104,1.944,6.441,2.707c-0.353-3.367-0.538-5.683-0.557-6.949h4.032
		c-0.055,1.842-0.269,4.148-0.639,6.92c1.913-0.967,4.107-1.86,6.58-2.679l1.283,3.962c-2.361,0.78-4.677,1.299-6.945,1.559
		c1.134,0.983,2.733,2.737,4.798,5.26l-3.347,2.366c-1.079-1.466-2.351-3.46-3.815-5.984c-1.372,2.616-2.578,4.611-3.619,5.984
		l-3.292-2.366c2.157-2.653,3.7-4.406,4.631-5.26C1164.567,243.43,1162.29,242.91,1160.132,242.335z"/>
</g>
<g>
	<path d="M1113.725,249.21l1.283-3.962c2.956,1.042,5.103,1.944,6.441,2.707c-0.353-3.367-0.538-5.683-0.556-6.949h4.032
		c-0.056,1.842-0.269,4.148-0.64,6.92c1.914-0.967,4.107-1.86,6.581-2.679l1.283,3.962c-2.362,0.78-4.677,1.299-6.946,1.559
		c1.134,0.983,2.734,2.737,4.798,5.26l-3.347,2.366c-1.079-1.466-2.35-3.46-3.815-5.984c-1.372,2.616-2.579,4.611-3.62,5.984
		l-3.292-2.366c2.157-2.653,3.7-4.406,4.631-5.26C1118.16,250.305,1115.882,249.785,1113.725,249.21z"/>
</g>
<g>
	<path d="M1195.774,241.331l1.283-3.962c2.956,1.042,5.103,1.944,6.441,2.707c-0.352-3.367-0.538-5.683-0.556-6.949h4.032
		c-0.056,1.842-0.269,4.148-0.64,6.92c1.914-0.967,4.107-1.86,6.58-2.679l1.283,3.962c-2.361,0.78-4.677,1.299-6.946,1.559
		c1.135,0.983,2.734,2.737,4.798,5.26l-3.347,2.366c-1.079-1.466-2.35-3.46-3.815-5.984c-1.372,2.616-2.579,4.611-3.62,5.984
		l-3.292-2.366c2.157-2.653,3.701-4.406,4.631-5.26C1200.209,242.426,1197.931,241.906,1195.774,241.331z"/>
</g>
<g>
	<path d="M1234.921,249.265l1.283-3.962c2.956,1.042,5.103,1.944,6.44,2.707c-0.352-3.367-0.538-5.683-0.556-6.948h4.032
		c-0.056,1.842-0.269,4.148-0.64,6.92c1.914-0.967,4.107-1.86,6.581-2.679l1.283,3.962c-2.362,0.78-4.677,1.299-6.946,1.559
		c1.134,0.983,2.734,2.737,4.798,5.26l-3.347,2.366c-1.079-1.466-2.351-3.46-3.815-5.983c-1.372,2.616-2.579,4.61-3.62,5.983
		l-3.292-2.366c2.157-2.653,3.7-4.406,4.631-5.26C1239.356,250.36,1237.078,249.841,1234.921,249.265z"/>
</g>
<g>
	<path d="M1344.402,236.463l1.283-3.962c2.956,1.042,5.103,1.944,6.44,2.707c-0.351-3.367-0.537-5.683-0.555-6.948h4.032
		c-0.057,1.842-0.27,4.148-0.64,6.92c1.913-0.968,4.107-1.86,6.58-2.679l1.284,3.962c-2.361,0.78-4.677,1.299-6.945,1.559
		c1.134,0.983,2.733,2.737,4.798,5.26l-3.347,2.366c-1.079-1.465-2.351-3.46-3.815-5.984c-1.372,2.617-2.578,4.611-3.62,5.984
		l-3.291-2.366c2.157-2.653,3.7-4.406,4.631-5.26C1348.836,237.558,1346.559,237.039,1344.402,236.463z"/>
</g>
<g>
	<path d="M1283.735,244.948l1.283-3.962c2.956,1.042,5.103,1.944,6.441,2.707c-0.352-3.367-0.538-5.683-0.556-6.949h4.032
		c-0.056,1.842-0.269,4.148-0.64,6.92c1.914-0.967,4.107-1.86,6.581-2.679l1.283,3.962c-2.361,0.78-4.677,1.299-6.945,1.559
		c1.134,0.983,2.734,2.737,4.798,5.26l-3.347,2.366c-1.079-1.466-2.351-3.46-3.815-5.984c-1.372,2.616-2.579,4.611-3.621,5.984
		l-3.291-2.366c2.157-2.653,3.701-4.406,4.631-5.26C1288.17,246.042,1285.892,245.523,1283.735,244.948z"/>
</g>
<g>
	<path d="M1208.259,206.24l1.283-3.962c2.957,1.042,5.103,1.944,6.441,2.707c-0.353-3.367-0.538-5.683-0.556-6.949h4.031
		c-0.055,1.842-0.268,4.148-0.639,6.92c1.914-0.967,4.107-1.86,6.581-2.679l1.283,3.962c-2.362,0.78-4.677,1.299-6.946,1.559
		c1.135,0.983,2.734,2.737,4.799,5.26l-3.348,2.366c-1.078-1.466-2.35-3.46-3.814-5.984c-1.373,2.616-2.579,4.611-3.62,5.984
		l-3.291-2.366c2.156-2.653,3.7-4.406,4.631-5.26C1212.694,207.335,1210.416,206.815,1208.259,206.24z"/>
</g>
<g>
	<path d="M1252.494,212.112l1.283-3.962c2.956,1.042,5.103,1.944,6.441,2.707c-0.352-3.367-0.538-5.683-0.556-6.949h4.032
		c-0.056,1.842-0.269,4.148-0.64,6.92c1.914-0.967,4.107-1.86,6.58-2.679l1.283,3.962c-2.361,0.78-4.676,1.299-6.945,1.559
		c1.135,0.983,2.734,2.737,4.798,5.26l-3.347,2.366c-1.079-1.466-2.35-3.46-3.815-5.984c-1.372,2.616-2.579,4.611-3.62,5.984
		l-3.292-2.366c2.157-2.653,3.701-4.406,4.631-5.26C1256.929,213.207,1254.65,212.687,1252.494,212.112z"/>
</g>
<g>
	<path d="M1312.267,221.765l1.283-3.962c2.956,1.042,5.103,1.944,6.441,2.707c-0.353-3.367-0.538-5.683-0.556-6.948h4.032
		c-0.056,1.842-0.269,4.148-0.64,6.92c1.914-0.967,4.107-1.86,6.581-2.679l1.283,3.962c-2.362,0.78-4.677,1.299-6.946,1.559
		c1.134,0.983,2.734,2.737,4.798,5.26l-3.347,2.366c-1.079-1.466-2.35-3.46-3.815-5.983c-1.372,2.616-2.579,4.61-3.62,5.983
		l-3.292-2.366c2.157-2.653,3.7-4.406,4.631-5.26C1316.702,222.859,1314.424,222.34,1312.267,221.765z"/>
</g>
<g>
	<path d="M1284.767,201.139l1.283-3.962c2.956,1.042,5.103,1.944,6.441,2.707c-0.353-3.367-0.538-5.683-0.556-6.948h4.032
		c-0.056,1.842-0.269,4.148-0.64,6.92c1.914-0.967,4.107-1.86,6.581-2.679l1.283,3.962c-2.362,0.78-4.677,1.299-6.946,1.559
		c1.134,0.983,2.733,2.737,4.798,5.26l-3.347,2.366c-1.079-1.466-2.35-3.46-3.815-5.983c-1.372,2.616-2.579,4.61-3.62,5.983
		l-3.292-2.366c2.157-2.653,3.7-4.406,4.631-5.26C1289.201,202.233,1286.923,201.714,1284.767,201.139z"/>
</g>
<g>
	<path d="M1390.809,220.995l1.283-3.962c2.956,1.042,5.103,1.944,6.44,2.707c-0.352-3.367-0.538-5.683-0.556-6.948h4.032
		c-0.056,1.842-0.269,4.148-0.64,6.92c1.914-0.968,4.107-1.86,6.581-2.679l1.283,3.962c-2.362,0.78-4.677,1.299-6.946,1.559
		c1.134,0.983,2.734,2.737,4.798,5.26l-3.347,2.366c-1.079-1.465-2.35-3.46-3.815-5.984c-1.372,2.617-2.579,4.611-3.62,5.984
		l-3.291-2.366c2.157-2.653,3.7-4.406,4.631-5.26C1395.244,222.089,1392.966,221.57,1390.809,220.995z"/>
</g>
<g>
	<path d="M1350.768,207.134l1.283-3.962c2.956,1.042,5.103,1.944,6.441,2.707c-0.352-3.367-0.538-5.683-0.556-6.949h4.032
		c-0.056,1.842-0.269,4.148-0.64,6.92c1.914-0.967,4.107-1.86,6.581-2.679l1.283,3.962c-2.361,0.78-4.677,1.299-6.945,1.559
		c1.134,0.983,2.734,2.737,4.798,5.26l-3.347,2.366c-1.079-1.466-2.351-3.46-3.815-5.984c-1.372,2.616-2.579,4.611-3.62,5.984
		l-3.291-2.366c2.157-2.653,3.7-4.406,4.631-5.26C1355.203,208.229,1352.925,207.709,1350.768,207.134z"/>
</g>
<text transform="matrix(1 0 0 1 639.1538 109.3926)" font-family="'ArialMT'" font-size="127.4994">4</text>
<text transform="matrix(1 0 0 1 2209.5854 109.3926)" font-family="'ArialMT'" font-size="127.4994">5</text>
<text transform="matrix(1 0 0 1 4066.2778 109.3926)" font-family="'ArialMT'" font-size="127.4994">6</text>
<text transform="matrix(1 0 0 1 7941.2388 109.3926)" font-family="'ArialMT'" font-size="127.4994">7</text>
<text transform="matrix(1 0 0 1 12760.1367 109.3926)" font-family="'ArialMT'" font-size="127.4994">8</text>
</svg>
