<?xml version="1.0" encoding="UTF-8"?>
<!DOCTYPE svg PUBLIC "-//W3C//DTD SVG 1.1//EN" "http://www.w3.org/Graphics/SVG/1.1/DTD/svg11.dtd">
<!-- Creator: Corel DESIGNER -->
<svg xmlns="http://www.w3.org/2000/svg" xml:space="preserve" width="700px" height="574px" style="shape-rendering:geometricPrecision; text-rendering:geometricPrecision; image-rendering:optimizeQuality; fill-rule:evenodd; clip-rule:evenodd"
viewBox="0 0 700 574.359"
 xmlns:xlink="http://www.w3.org/1999/xlink"
 xmlns:svg="http://www.w3.org/2000/svg"
 version="1.0">
 <defs>
  <style type="text/css">
   <![CDATA[
    .str0 {stroke:#2B2828;stroke-width:1.95563;stroke-linecap:round;stroke-linejoin:round;stroke-opacity:0.400000}
    .str1 {stroke:#28166F;stroke-width:3.7392;stroke-linecap:round;stroke-linejoin:round}
    .fil4 {fill:none}
    .fil2 {fill:none}
    .fil5 {fill:#1F1A17}
    .fil0 {fill:white}
    .fil1 {fill:#E5A42D}
    .fil3 {fill:#3F4284;fill-opacity:0.200000}
    .fnt0 {font-weight:normal;font-size:29.9146;font-family:'DejaVu Sans'}
   ]]>
  </style>
 </defs>
 <g id="Layer_x0020_1">
  <metadata id="CorelCorpID_0Corel-Layer"/>
  <rect class="fil0" x="-0.000353321" y="-0.000353321" width="700.001" height="574.36"/>
  <g id="_39049312">
   <circle id="_33074208" class="fil1" cx="471.671" cy="417.011" r="26.2352"/>
   <circle id="_32832584" class="fil1" cx="532.505" cy="417.012" r="26.2352"/>
   <circle id="_32855184" class="fil1" cx="471.671" cy="356.177" r="26.2352"/>
   <circle id="_32832584_0" class="fil1" cx="532.505" cy="356.178" r="26.2352"/>
   <circle id="_33074208_1" class="fil1" cx="471.669" cy="295.342" r="26.2352"/>
   <circle id="_32832584_2" class="fil1" cx="532.505" cy="295.341" r="26.2352"/>
   <circle id="_33074208_3" class="fil1" cx="532.502" cy="234.506" r="26.2352"/>
   <circle id="_32832584_4" class="fil1" cx="471.668" cy="234.506" r="26.2352"/>
   <circle id="_32832584_5" class="fil1" cx="167.498" cy="112.838" r="26.2352"/>
   <circle id="_32855184_6" class="fil1" cx="228.332" cy="173.671" r="26.2352"/>
   <circle id="_32832584_7" class="fil1" cx="167.498" cy="173.671" r="26.2352"/>
   <circle id="_32855184_8" class="fil1" cx="532.503" cy="173.672" r="26.2352"/>
   <circle id="_32433088" class="fil1" cx="289.168" cy="234.505" r="26.2352"/>
   <circle id="_33074208_9" class="fil1" cx="228.334" cy="234.505" r="26.2352"/>
   <circle id="_32832584_10" class="fil1" cx="167.5" cy="234.505" r="26.2352"/>
   <circle id="_32685160" class="fil1" cx="410.835" cy="295.34" r="26.2352"/>
   <circle id="_32538280" class="fil1" cx="350.003" cy="295.34" r="26.2352"/>
   <circle id="_32433088_11" class="fil1" cx="289.168" cy="295.34" r="26.2352"/>
   <circle id="_33074208_12" class="fil1" cx="228.334" cy="295.34" r="26.2352"/>
   <circle id="_32832584_13" class="fil1" cx="167.5" cy="295.34" r="26.2352"/>
   <circle id="_32855184_14" class="fil1" cx="350.003" cy="356.177" r="26.2352"/>
   <circle id="_33870560" class="fil1" cx="410.837" cy="356.177" r="26.2352"/>
   <circle id="_32685160_15" class="fil1" cx="410.835" cy="417.011" r="26.2352"/>
   <circle id="_32538280_16" class="fil1" cx="350.003" cy="417.011" r="26.2352"/>
   <circle id="_32433088_17" class="fil1" cx="289.168" cy="417.011" r="26.2352"/>
   <circle id="_33074208_18" class="fil1" cx="228.334" cy="417.011" r="26.2352"/>
   <circle id="_32832584_19" class="fil1" cx="167.5" cy="417.011" r="26.2352"/>
   <circle id="_32855184_20" class="fil1" cx="289.168" cy="356.177" r="26.2352"/>
   <circle id="_32855184_21" class="fil1" cx="228.334" cy="356.177" r="26.2352"/>
   <path id="path2487" class="fil2 str0" d="M471.669 165.51l0 16.3249m8.16243 -8.16243l-16.3249 0"/>
   <path id="path2491" class="fil2 str0" d="M471.669 226.344l0 16.3249m8.16243 -8.16243l-16.3249 0"/>
   <path id="path2493" class="fil2 str0" d="M410.835 226.343l0 16.3249m8.16243 -8.16243l-16.3249 0"/>
   <path id="path2495" class="fil2 str0" d="M410.835 165.509l0 16.3249m8.16243 -8.16243l-16.3249 0"/>
   <path id="path2497" class="fil2 str0" d="M410.835 287.177l0 16.3249m8.16243 -8.16243l-16.3249 0"/>
   <path id="path2503" class="fil2 str0" d="M471.669 287.179l0 16.3245m8.16243 -8.16207l-16.3249 0"/>
   <path id="path2505" class="fil2 str0" d="M350 165.51l0 16.3249m8.16243 -8.16243l-16.3249 0"/>
   <path id="path2507" class="fil2 str0" d="M289.166 165.51l0 16.3249m8.16243 -8.16243l-16.3249 0"/>
   <path id="path2509" class="fil2 str0" d="M350 226.344l0 16.3249m8.16243 -8.16243l-16.3249 0"/>
   <path id="path2511" class="fil2 str0" d="M289.166 226.344l0 16.3249m8.16243 -8.16243l-16.3249 0"/>
   <path id="path2513" class="fil2 str0" d="M228.332 226.343l0 16.3249m8.16243 -8.16243l-16.3249 0"/>
   <path id="path2515" class="fil2 str0" d="M228.332 165.509l0 16.3249m8.16243 -8.16243l-16.3249 0"/>
   <path id="path2517" class="fil2 str0" d="M228.332 287.177l0 16.3249m8.16243 -8.16243l-16.3249 0"/>
   <path id="path2519" class="fil2 str0" d="M350 287.179l0 16.3245m8.16243 -8.16207l-16.3249 0"/>
   <path id="path2521" class="fil2 str0" d="M289.166 287.179l0 16.3245m8.16243 -8.16207l-16.3249 0"/>
   <path id="path2527" class="fil2 str0" d="M106.664 165.509l0 16.3249m8.16243 -8.16243l-16.3249 0"/>
   <path id="path2529" class="fil2 str0" d="M106.663 226.344l0 16.3249m8.16243 -8.16243l-16.3249 0"/>
   <path id="path2531" class="fil2 str0" d="M167.498 165.508l0 16.3249m8.16243 -8.16243l-16.3249 0"/>
   <path id="path2533" class="fil2 str0" d="M167.497 226.343l0 16.3249m8.16243 -8.16243l-16.3249 0"/>
   <path id="path2537" class="fil2 str0" d="M106.663 287.179l0 16.3245m8.16243 -8.16207l-16.3249 0"/>
   <path id="path2539" class="fil2 str0" d="M167.497 287.177l0 16.3249m8.16243 -8.16243l-16.3249 0"/>
   <path id="path2545" class="fil2 str0" d="M471.671 348.014l0 16.3249m8.16243 -8.16243l-16.3249 0"/>
   <path id="path2549" class="fil2 str0" d="M471.671 408.848l0 16.3249m8.16243 -8.16243l-16.3249 0"/>
   <path id="path2553" class="fil2 str0" d="M410.837 348.014l0 16.3249m8.16243 -8.16243l-16.3249 0"/>
   <path id="path2555" class="fil2 str0" d="M410.837 408.848l0 16.3249m8.16243 -8.16243l-16.3249 0"/>
   <path id="path2561" class="fil2 str0" d="M471.671 469.683l0 16.3249m8.16243 -8.16243l-16.3249 0"/>
   <path id="path2563" class="fil2 str0" d="M350.003 348.014l0 16.3249m8.16243 -8.16243l-16.3249 0"/>
   <path id="path2565" class="fil2 str0" d="M289.168 348.014l0 16.3249m8.16207 -8.16243l-16.3245 0"/>
   <path id="path2567" class="fil2 str0" d="M228.334 348.014l0 16.3249m8.16243 -8.16243l-16.3249 0"/>
   <path id="path2569" class="fil2 str0" d="M289.168 408.848l0 16.3249m8.16207 -8.16243l-16.3245 0"/>
   <path id="path2571" class="fil2 str0" d="M228.334 408.848l0 16.3249m8.16243 -8.16243l-16.3249 0"/>
   <path id="path2573" class="fil2 str0" d="M350.003 408.848l0 16.3249m8.16243 -8.16243l-16.3249 0"/>
   <path id="path2575" class="fil2 str0" d="M167.5 408.848l0 16.3249m8.16243 -8.16243l-16.3249 0"/>
   <path id="path2579" class="fil2 str0" d="M410.837 469.682l0 16.3249m8.16243 -8.16243l-16.3249 0"/>
   <path id="path2581" class="fil2 str0" d="M350.002 469.682l0 16.3249m8.16243 -8.16243l-16.3249 0"/>
   <path id="path2583" class="fil2 str0" d="M289.168 469.682l0 16.3249m8.16207 -8.16243l-16.3245 0"/>
   <path id="path2585" class="fil2 str0" d="M228.334 469.682l0 16.3249m8.16243 -8.16243l-16.3249 0"/>
   <path id="path2587" class="fil2 str0" d="M167.5 469.682l0 16.3249m8.16243 -8.16243l-16.3249 0"/>
   <path id="path2593" class="fil2 str0" d="M106.666 348.013l0 16.3249m8.16243 -8.16243l-16.3249 0"/>
   <path id="path2595" class="fil2 str0" d="M106.666 408.847l0 16.3249m8.16243 -8.16243l-16.3249 0"/>
   <path id="path2599" class="fil2 str0" d="M106.666 469.682l0 16.3249m8.16243 -8.16243l-16.3249 0"/>
   <circle id="_32832584_22" class="fil1" cx="167.5" cy="356.177" r="26.2352"/>
   <path id="path2577" class="fil2 str0" d="M167.5 348.014l0 16.3249m8.16243 -8.16243l-16.3249 0"/>
   <g>
    <polygon id="_37379600" class="fil3" points="167.5,417.011 593.339,417.012 593.337,112.84 410.835,295.34 167.495,52.0018 "/>
    <polygon id="_38649232" class="fil4 str1" points="167.5,417.011 593.339,417.012 593.337,112.84 410.835,295.34 167.495,52.0018 "/>
   </g>
   <path id="path2507_23" class="fil2 str0" d="M654.171 165.512l0 16.3249m8.16243 -8.16243l-16.3249 0"/>
   <path id="path2511_24" class="fil2 str0" d="M654.171 226.345l0 16.3249m8.16243 -8.16243l-16.3249 0"/>
   <path id="path2513_25" class="fil2 str0" d="M593.337 226.344l0 16.3249m8.16243 -8.16243l-16.3249 0"/>
   <path id="path2515_26" class="fil2 str0" d="M593.337 165.51l0 16.3249m8.16243 -8.16243l-16.3249 0"/>
   <path id="path2517_27" class="fil2 str0" d="M593.337 287.178l0 16.3249m8.16243 -8.16243l-16.3249 0"/>
   <path id="path2521_28" class="fil2 str0" d="M654.171 287.181l0 16.3245m8.16243 -8.16207l-16.3249 0"/>
   <path id="path2531_29" class="fil2 str0" d="M532.503 165.509l0 16.3249m8.16243 -8.16243l-16.3249 0"/>
   <path id="path2533_30" class="fil2 str0" d="M532.502 226.344l0 16.3249m8.16243 -8.16243l-16.3249 0"/>
   <path id="path2539_31" class="fil2 str0" d="M532.502 287.178l0 16.3249m8.16243 -8.16243l-16.3249 0"/>
   <path id="path2565_32" class="fil2 str0" d="M654.173 348.015l0 16.3249m8.16207 -8.16243l-16.3245 0"/>
   <path id="path2567_33" class="fil2 str0" d="M593.339 348.015l0 16.3249m8.16243 -8.16243l-16.3249 0"/>
   <path id="path2569_34" class="fil2 str0" d="M654.173 408.849l0 16.3249m8.16207 -8.16243l-16.3245 0"/>
   <path id="path2571_35" class="fil2 str0" d="M593.339 408.849l0 16.3249m8.16243 -8.16243l-16.3249 0"/>
   <path id="path2575_36" class="fil2 str0" d="M532.505 408.849l0 16.3249m8.16243 -8.16243l-16.3249 0"/>
   <path id="path2583_37" class="fil2 str0" d="M654.173 469.683l0 16.3249m8.16207 -8.16243l-16.3245 0"/>
   <path id="path2585_38" class="fil2 str0" d="M593.339 469.683l0 16.3249m8.16243 -8.16243l-16.3249 0"/>
   <path id="path2587_39" class="fil2 str0" d="M532.505 469.683l0 16.3249m8.16243 -8.16243l-16.3249 0"/>
   <path id="path2577_40" class="fil2 str0" d="M532.505 348.015l0 16.3249m8.16243 -8.16243l-16.3249 0"/>
   <path id="path2545_41" class="fil2 str0" d="M471.669 43.8415l0 16.3249m8.16243 -8.16243l-16.3249 0"/>
   <path id="path2549_42" class="fil2 str0" d="M471.669 104.675l0 16.3249m8.16243 -8.16243l-16.3249 0"/>
   <path id="path2553_43" class="fil2 str0" d="M410.834 43.8415l0 16.3249m8.16243 -8.16243l-16.3249 0"/>
   <path id="path2555_44" class="fil2 str0" d="M410.834 104.675l0 16.3249m8.16243 -8.16243l-16.3249 0"/>
   <path id="path2563_45" class="fil2 str0" d="M350.001 43.8415l0 16.3249m8.16243 -8.16243l-16.3249 0"/>
   <path id="path2565_46" class="fil2 str0" d="M289.166 43.8415l0 16.3249m8.16207 -8.16243l-16.3245 0"/>
   <path id="path2567_47" class="fil2 str0" d="M228.332 43.8415l0 16.3249m8.16243 -8.16243l-16.3249 0"/>
   <path id="path2569_48" class="fil2 str0" d="M289.166 104.675l0 16.3249m8.16207 -8.16243l-16.3245 0"/>
   <path id="path2571_49" class="fil2 str0" d="M228.332 104.675l0 16.3249m8.16243 -8.16243l-16.3249 0"/>
   <path id="path2573_50" class="fil2 str0" d="M350.001 104.675l0 16.3249m8.16243 -8.16243l-16.3249 0"/>
   <path id="path2575_51" class="fil2 str0" d="M167.498 104.675l0 16.3249m8.16243 -8.16243l-16.3249 0"/>
   <path id="path2593_52" class="fil2 str0" d="M106.664 43.8405l0 16.3249m8.16243 -8.16243l-16.3249 0"/>
   <path id="path2595_53" class="fil2 str0" d="M106.664 104.675l0 16.3249m8.16243 -8.16243l-16.3249 0"/>
   <path id="path2577_54" class="fil2 str0" d="M167.498 43.8415l0 16.3249m8.16243 -8.16243l-16.3249 0"/>
   <path id="path2565_55" class="fil2 str0" d="M654.171 43.8426l0 16.3249m8.16207 -8.16243l-16.3245 0"/>
   <path id="path2567_56" class="fil2 str0" d="M593.337 43.8426l0 16.3249m8.16243 -8.16243l-16.3249 0"/>
   <path id="path2569_57" class="fil2 str0" d="M654.171 104.676l0 16.3249m8.16207 -8.16243l-16.3245 0"/>
   <path id="path2571_58" class="fil2 str0" d="M593.337 104.676l0 16.3249m8.16243 -8.16243l-16.3249 0"/>
   <path id="path2575_59" class="fil2 str0" d="M532.502 104.676l0 16.3249m8.16243 -8.16243l-16.3249 0"/>
   <path id="path2577_60" class="fil2 str0" d="M532.502 43.8426l0 16.3249m8.16243 -8.16243l-16.3249 0"/>
   <text x="44.8623" y="488.733" id="_36856040" class="fil5 fnt0">0</text>
   <text x="44.8623" y="427.898" id="_39260248" class="fil5 fnt0">1</text>
   <text x="44.8623" y="367.065" id="_38504600" class="fil5 fnt0">2</text>
   <text x="44.8623" y="306.23" id="_37296632" class="fil5 fnt0">3</text>
   <text x="44.8623" y="245.395" id="_36919344" class="fil5 fnt0">4</text>
   <text x="44.8623" y="184.56" id="_37453280" class="fil5 fnt0">5</text>
   <text x="98.1399" y="537.905" id="_38654168" class="fil5 fnt0">0</text>
   <text x="158.975" y="537.905" id="_37361336" class="fil5 fnt0">1</text>
   <text x="219.81" y="537.905" id="_39609392" class="fil5 fnt0">2</text>
   <text x="280.645" y="537.905" id="_38774464" class="fil5 fnt0">3</text>
   <text x="341.479" y="537.905" id="_39931576" class="fil5 fnt0">4</text>
   <text x="402.314" y="537.905" id="_38652856" class="fil5 fnt0">5</text>
   <text x="463.149" y="537.905" id="_38638544" class="fil5 fnt0">6</text>
   <text x="523.979" y="537.906" id="_39614552" class="fil5 fnt0">7</text>
   <text x="584.813" y="537.906" id="_37459744" class="fil5 fnt0">8</text>
   <text x="645.649" y="537.906" id="_37460592" class="fil5 fnt0">9</text>
   <text x="44.8601" y="123.726" id="_38654120" class="fil5 fnt0">6</text>
   <text x="44.8601" y="62.8908" id="_38809496" class="fil5 fnt0">7</text>
  </g>
 </g>
</svg>
