<?xml version="1.0" encoding="UTF-8" standalone="no"?>
<svg xmlns="http://www.w3.org/2000/svg" version="1.0" width="996.5845" height="1000.0" id="f:Regular_polygon_19.svg">
<!-- X Coordinate transform: fx(x)=(x+1.0856793)*456.1033-->
<!-- Y Coordinate transform: fy(y)=(1.0962429-y)*456.1033 -->
<g style="stroke:#ff0000;stroke-width:1.6609741;stroke-opacity:0.80;fill-opacity:00">
<!-- Group: <Default>-->
</g>
<g style="stroke:#000000;stroke-width:1.6609741;stroke-opacity:0.80;fill-opacity:00">
<!-- Group: poly-->
<path d="M 951.285,500 926.572,648.096 Z" />
<path d="M 951.285,500 926.572,351.904 Z" />
<path d="M 926.572,351.904 855.112,219.856 Z" />
<path d="M 744.647,118.166 855.112,219.856 Z" />
<path d="M 607.149,57.853 744.647,118.166 Z" />
<path d="M 457.517,45.455 607.149,57.853 Z" />
<path d="M 457.517,45.455 311.967,82.313 Z" />
<path d="M 311.967,82.313 186.272,164.434 Z" />
<path d="M 94.051,282.919 186.272,164.434 Z" />
<path d="M 45.299,424.928 94.051,282.919 Z" />
<path d="M 45.299,424.928 45.299,575.072 Z" />
<path d="M 45.299,575.072 94.051,717.081 Z" />
<path d="M 94.051,717.081 186.272,835.566 Z" />
<path d="M 311.967,917.687 186.272,835.566 Z" />
<path d="M 457.517,954.545 311.967,917.687 Z" />
<path d="M 457.517,954.545 607.149,942.147 Z" />
<path d="M 607.149,942.147 744.647,881.834 Z" />
<path d="M 744.647,881.834 855.112,780.144 Z" />
<path d="M 926.572,648.096 855.112,780.144 Z" />
</g>
<g style="stroke:#000000;stroke-width:0.33219483;fill:#ff007f">
<circle cx="926.572" cy="648.096" r="3.986338"/>
<circle cx="951.285" cy="500" r="3.986338"/>
<circle cx="951.285" cy="500" r="3.986338"/>
<circle cx="926.572" cy="351.904" r="3.986338"/>
<circle cx="926.572" cy="351.904" r="3.986338"/>
<circle cx="855.112" cy="219.856" r="3.986338"/>
<circle cx="855.112" cy="219.856" r="3.986338"/>
<circle cx="744.647" cy="118.166" r="3.986338"/>
<circle cx="744.647" cy="118.166" r="3.986338"/>
<circle cx="607.149" cy="57.853" r="3.986338"/>
<circle cx="607.149" cy="57.853" r="3.986338"/>
<circle cx="457.517" cy="45.455" r="3.986338"/>
<circle cx="457.517" cy="45.455" r="3.986338"/>
<circle cx="311.967" cy="82.313" r="3.986338"/>
<circle cx="311.967" cy="82.313" r="3.986338"/>
<circle cx="186.272" cy="164.434" r="3.986338"/>
<circle cx="186.272" cy="164.434" r="3.986338"/>
<circle cx="94.051" cy="282.919" r="3.986338"/>
<circle cx="94.051" cy="282.919" r="3.986338"/>
<circle cx="45.299" cy="424.928" r="3.986338"/>
<circle cx="45.299" cy="424.928" r="3.986338"/>
<circle cx="45.299" cy="575.072" r="3.986338"/>
<circle cx="45.299" cy="575.072" r="3.986338"/>
<circle cx="94.051" cy="717.081" r="3.986338"/>
<circle cx="94.051" cy="717.081" r="3.986338"/>
<circle cx="186.272" cy="835.566" r="3.986338"/>
<circle cx="186.272" cy="835.566" r="3.986338"/>
<circle cx="311.967" cy="917.687" r="3.986338"/>
<circle cx="311.967" cy="917.687" r="3.986338"/>
<circle cx="457.517" cy="954.545" r="3.986338"/>
<circle cx="457.517" cy="954.545" r="3.986338"/>
<circle cx="607.149" cy="942.147" r="3.986338"/>
<circle cx="607.149" cy="942.147" r="3.986338"/>
<circle cx="744.647" cy="881.834" r="3.986338"/>
<circle cx="744.647" cy="881.834" r="3.986338"/>
<circle cx="855.112" cy="780.144" r="3.986338"/>
<circle cx="855.112" cy="780.144" r="3.986338"/>
<circle cx="926.572" cy="648.096" r="3.986338"/>
</g>
</svg>
